Amita-Regular.ufo
<glyph name="dollar" format="1">
  <advance width="401"/>
  <unicode hex="0024"/>
  <outline>
    <contour>
      <point x="192" y="-2" type="line"/>
      <point x="179" y="-107" type="line"/>
      <point x="237" y="-86" type="line"/>
      <point x="223" y="2" type="line"/>
    </contour>
    <contour>
      <point x="176" y="608" type="line"/>
      <point x="189" y="522" type="line"/>
      <point x="220" y="525" type="line"/>
      <point x="233" y="628" type="line"/>
    </contour>
    <component base="S"/>
  </outline>
</glyph>
<glyph name="ampersand" format="1">
  <advance width="457"/>
  <unicode hex="0026"/>
  <outline>
    <contour>
      <point x="158" y="511"/>
      <point x="94" y="470"/>
      <point x="94" y="399" type="curve" smooth="yes"/>
      <point x="94" y="369"/>
      <point x="100" y="336"/>
      <point x="127" y="286" type="curve"/>
      <point x="255" y="77" type="line" smooth="yes"/>
      <point x="295" y="14"/>
      <point x="322" y="-10"/>
      <point x="370" y="-10" type="curve"/>
      <point x="412" y="-10"/>
      <point x="453" y="15"/>
      <point x="482" y="72" type="curve"/>
      <point x="469" y="80" type="line"/>
      <point x="451" y="49"/>
      <point x="421" y="37"/>
      <point x="396" y="36" type="curve"/>
      <point x="362" y="36"/>
      <point x="343" y="54"/>
      <point x="323" y="89" type="curve" smooth="yes"/>
      <point x="171" y="343" type="line"/>
      <point x="155" y="373"/>
      <point x="150" y="400"/>
      <point x="150" y="421" type="curve" smooth="yes"/>
      <point x="150" y="454"/>
      <point x="171" y="483"/>
      <point x="212" y="483" type="curve"/>
      <point x="256" y="483"/>
      <point x="281" y="446"/>
      <point x="281" y="400" type="curve" smooth="yes"/>
      <point x="281" y="376"/>
      <point x="276" y="339"/>
      <point x="240" y="320" type="curve"/>
      <point x="247" y="307" type="line"/>
      <point x="313" y="322"/>
      <point x="346" y="366"/>
      <point x="346" y="406" type="curve" smooth="yes"/>
      <point x="346" y="456"/>
      <point x="301" y="511"/>
      <point x="218" y="511" type="curve"/>
    </contour>
    <contour>
      <point x="84" y="260"/>
      <point x="25" y="203"/>
      <point x="25" y="124" type="curve" smooth="yes"/>
      <point x="25" y="39"/>
      <point x="94" y="-15"/>
      <point x="173" y="-15" type="curve" smooth="yes"/>
      <point x="295" y="-15"/>
      <point x="388" y="74"/>
      <point x="388" y="241" type="curve"/>
      <point x="325" y="223" type="line"/>
      <point x="325" y="120"/>
      <point x="303" y="19"/>
      <point x="193" y="19" type="curve" smooth="yes"/>
      <point x="158" y="19"/>
      <point x="91" y="42"/>
      <point x="91" y="137" type="curve" smooth="yes"/>
      <point x="91" y="205"/>
      <point x="131" y="241"/>
      <point x="178" y="262" type="curve"/>
      <point x="177" y="287" type="line"/>
    </contour>
  </outline>
</glyph>
<glyph name="parenleft" format="1">
  <advance width="234"/>
  <unicode hex="0028"/>
  <outline>
    <contour>
      <point x="225" y="-107" type="line"/>
      <point x="108" y="-46"/>
      <point x="23" y="89"/>
      <point x="23" y="221" type="curve" smooth="yes"/>
      <point x="23" y="353"/>
      <point x="108" y="489"/>
      <point x="225" y="550" type="curve"/>
      <point x="233" y="535" type="line"/>
      <point x="145" y="465"/>
      <point x="97" y="331"/>
      <point x="97" y="221" type="curve" smooth="yes"/>
      <point x="97" y="112"/>
      <point x="144" y="-21"/>
      <point x="233" y="-90" type="curve"/>
    </contour>
  </outline>
</glyph>
<glyph name="period" format="1">
  <advance width="158"/>
  <unicode hex="002E"/>
  <outline>
    <contour>
      <point x="123" y="54"/>
      <point x="103" y="75"/>
      <point x="79" y="75" type="curve" smooth="yes"/>
      <point x="55" y="75"/>
      <point x="35" y="54"/>
      <point x="35" y="30" type="curve" smooth="yes"/>
      <point x="35" y="6"/>
      <point x="55" y="-13"/>
      <point x="79" y="-13" type="curve" smooth="yes"/>
      <point x="103" y="-13"/>
      <point x="123" y="6"/>
      <point x="123" y="30" type="curve" smooth="yes"/>
    </contour>
  </outline>
</glyph>
<glyph name="one" format="1">
  <advance width="231"/>
  <unicode hex="0031"/>
  <outline>
    <contour>
      <point x="165" y="12" type="line"/>
      <point x="97" y="-14" type="line"/>
      <point x="97" y="450" type="line"/>
      <point x="21" y="407" type="line"/>
      <point x="9" y="428" type="line"/>
      <point x="165" y="516" type="line"/>
    </contour>
  </outline>
</glyph>
<glyph name="two" format="1">
  <advance width="406"/>
  <unicode hex="0032"/>
  <outline>
    <contour>
      <point x="126" y="521"/>
      <point x="53" y="465"/>
      <point x="17" y="410" type="curve"/>
      <point x="31" y="397" type="line"/>
      <point x="60" y="434"/>
      <point x="105" y="462"/>
      <point x="157" y="462" type="curve" smooth="yes"/>
      <point x="223" y="462"/>
      <point x="275" y="410"/>
      <point x="275" y="342" type="curve" smooth="yes"/>
      <point x="275" y="208"/>
      <point x="98" y="80"/>
      <point x="25" y="5" type="curve"/>
      <point x="37" y="-7" type="line"/>
      <point x="52" y="5"/>
      <point x="85" y="14"/>
      <point x="119" y="14" type="curve" smooth="yes"/>
      <point x="187" y="14"/>
      <point x="267" y="2"/>
      <point x="331" y="-7" type="curve"/>
      <point x="391" y="97" type="line"/>
      <point x="380" y="104" type="line"/>
      <point x="366" y="84"/>
      <point x="343" y="59"/>
      <point x="311" y="59" type="curve" smooth="yes"/>
      <point x="255" y="59"/>
      <point x="225" y="75"/>
      <point x="181" y="75" type="curve" smooth="yes"/>
      <point x="165" y="75"/>
      <point x="150" y="73"/>
      <point x="131" y="68" type="curve"/>
      <point x="129" y="71" type="line"/>
      <point x="217" y="134"/>
      <point x="349" y="228"/>
      <point x="349" y="366" type="curve" smooth="yes"/>
      <point x="349" y="463"/>
      <point x="287" y="521"/>
      <point x="194" y="521" type="curve" smooth="yes"/>
    </contour>
  </outline>
</glyph>
<glyph name="three" format="1">
  <advance width="382"/>
  <unicode hex="0033"/>
  <outline>
    <contour>
      <point x="149" y="281" type="line"/>
      <point x="170" y="286"/>
      <point x="188" y="288"/>
      <point x="205" y="288" type="curve" smooth="yes"/>
      <point x="288" y="288"/>
      <point x="356" y="235"/>
      <point x="356" y="153" type="curve" smooth="yes"/>
      <point x="356" y="5"/>
      <point x="159" y="-52"/>
      <point x="37" y="-52" type="curve"/>
      <point x="33" y="-33" type="line"/>
      <point x="130" y="-21"/>
      <point x="276" y="40"/>
      <point x="276" y="151" type="curve" smooth="yes"/>
      <point x="276" y="218"/>
      <point x="222" y="260"/>
      <point x="154" y="260" type="curve" smooth="yes"/>
      <point x="119" y="260"/>
      <point x="101" y="255"/>
      <point x="59" y="238" type="curve"/>
      <point x="52" y="256" type="line"/>
      <point x="115" y="286"/>
      <point x="216" y="342"/>
      <point x="216" y="422" type="curve" smooth="yes"/>
      <point x="216" y="459"/>
      <point x="192" y="473"/>
      <point x="162" y="473" type="curve" smooth="yes"/>
      <point x="119" y="473"/>
      <point x="61" y="444"/>
      <point x="33" y="413" type="curve"/>
      <point x="20" y="426" type="line"/>
      <point x="72" y="493"/>
      <point x="147" y="526"/>
      <point x="207" y="526" type="curve" smooth="yes"/>
      <point x="260" y="526"/>
      <point x="300" y="498"/>
      <point x="300" y="444" type="curve" smooth="yes"/>
      <point x="300" y="373"/>
      <point x="211" y="315"/>
      <point x="148" y="284" type="curve"/>
    </contour>
  </outline>
</glyph>
<glyph name="five" format="1">
  <advance width="373"/>
  <unicode hex="0035"/>
  <outline>
    <contour>
      <point x="345" y="13"/>
      <point x="138" y="-55"/>
      <point x="34" y="-62" type="curve"/>
      <point x="26" y="-42" type="line"/>
      <point x="123" y="-18"/>
      <point x="269" y="42"/>
      <point x="269" y="163" type="curve" smooth="yes"/>
      <point x="269" y="239"/>
      <point x="197" y="275"/>
      <point x="124" y="275" type="curve" smooth="yes"/>
      <point x="88" y="275"/>
      <point x="54" y="268"/>
      <point x="28" y="253" type="curve"/>
      <point x="94" y="516" type="line"/>
      <point x="345" y="516" type="line"/>
      <point x="320" y="438" type="line"/>
      <point x="106" y="438" type="line"/>
      <point x="70" y="294" type="line"/>
      <point x="97" y="305"/>
      <point x="125" y="313"/>
      <point x="171" y="313" type="curve" smooth="yes"/>
      <point x="261" y="313"/>
      <point x="345" y="265"/>
      <point x="345" y="156" type="curve" smooth="yes"/>
    </contour>
  </outline>
</glyph>
<glyph name="six" format="1">
  <advance width="453"/>
  <unicode hex="0036"/>
  <outline>
    <contour>
      <point x="110" y="229"/>
      <point x="106" y="204"/>
      <point x="106" y="181" type="curve" smooth="yes"/>
      <point x="106" y="98"/>
      <point x="144" y="20"/>
      <point x="242" y="20" type="curve" smooth="yes"/>
      <point x="322" y="20"/>
      <point x="358" y="76"/>
      <point x="358" y="146" type="curve" smooth="yes"/>
      <point x="358" y="219"/>
      <point x="320" y="298"/>
      <point x="222" y="298" type="curve" smooth="yes"/>
      <point x="182" y="298"/>
      <point x="143" y="282"/>
      <point x="115" y="254" type="curve"/>
    </contour>
    <contour>
      <point x="432" y="70"/>
      <point x="341" y="-18"/>
      <point x="228" y="-18" type="curve" smooth="yes"/>
      <point x="109" y="-18"/>
      <point x="32" y="75"/>
      <point x="32" y="192" type="curve" smooth="yes"/>
      <point x="32" y="359"/>
      <point x="202" y="496"/>
      <point x="360" y="519" type="curve"/>
      <point x="366" y="500" type="line"/>
      <point x="266" y="474"/>
      <point x="158" y="391"/>
      <point x="127" y="292" type="curve"/>
      <point x="167" y="321"/>
      <point x="218" y="336"/>
      <point x="273" y="336" type="curve" smooth="yes"/>
      <point x="377" y="336"/>
      <point x="432" y="257"/>
      <point x="432" y="172" type="curve" smooth="yes"/>
    </contour>
  </outline>
</glyph>
<glyph name="nine" format="1">
  <advance width="453"/>
  <unicode hex="0039"/>
  <outline>
    <contour>
      <point x="344" y="272"/>
      <point x="347" y="297"/>
      <point x="347" y="321" type="curve" smooth="yes"/>
      <point x="347" y="405"/>
      <point x="308" y="481"/>
      <point x="211" y="481" type="curve" smooth="yes"/>
      <point x="132" y="481"/>
      <point x="95" y="425"/>
      <point x="95" y="355" type="curve" smooth="yes"/>
      <point x="95" y="283"/>
      <point x="133" y="205"/>
      <point x="231" y="205" type="curve" smooth="yes"/>
      <point x="273" y="205"/>
      <point x="311" y="220"/>
      <point x="339" y="249" type="curve"/>
    </contour>
    <contour>
      <point x="22" y="431"/>
      <point x="112" y="519"/>
      <point x="224" y="519" type="curve" smooth="yes"/>
      <point x="344" y="519"/>
      <point x="422" y="427"/>
      <point x="422" y="310" type="curve" smooth="yes"/>
      <point x="422" y="143"/>
      <point x="250" y="5"/>
      <point x="93" y="-18" type="curve"/>
      <point x="86" y="3" type="line"/>
      <point x="188" y="27"/>
      <point x="294" y="111"/>
      <point x="326" y="210" type="curve"/>
      <point x="285" y="180"/>
      <point x="236" y="165"/>
      <point x="180" y="165" type="curve" smooth="yes"/>
      <point x="75" y="165"/>
      <point x="22" y="244"/>
      <point x="22" y="330" type="curve" smooth="yes"/>
    </contour>
  </outline>
</glyph>
<glyph name="semicolon" format="1">
  <advance width="162"/>
  <unicode hex="003B"/>
  <outline>
    <contour>
      <point x="57" y="75"/>
      <point x="37" y="54"/>
      <point x="37" y="30" type="curve" smooth="yes"/>
      <point x="37" y="10"/>
      <point x="51" y="-7"/>
      <point x="71" y="-12" type="curve"/>
      <point x="68" y="-25"/>
      <point x="59" y="-39"/>
      <point x="50" y="-48" type="curve"/>
      <point x="63" y="-59" type="line"/>
      <point x="96" y="-40"/>
      <point x="124" y="-9"/>
      <point x="124" y="30" type="curve" smooth="yes"/>
      <point x="124" y="54"/>
      <point x="104" y="75"/>
      <point x="80" y="75" type="curve" smooth="yes"/>
    </contour>
    <contour>
      <point x="57" y="291"/>
      <point x="37" y="270"/>
      <point x="37" y="246" type="curve" smooth="yes"/>
      <point x="37" y="223"/>
      <point x="57" y="203"/>
      <point x="80" y="203" type="curve" smooth="yes"/>
      <point x="104" y="203"/>
      <point x="124" y="223"/>
      <point x="124" y="246" type="curve" smooth="yes"/>
      <point x="124" y="270"/>
      <point x="104" y="291"/>
      <point x="80" y="291" type="curve" smooth="yes"/>
    </contour>
  </outline>
</glyph>
<glyph name="at" format="1">
  <advance width="451"/>
  <unicode hex="0040"/>
  <outline>
    <contour>
      <point x="102" y="325"/>
      <point x="26" y="214"/>
      <point x="26" y="113" type="curve" smooth="yes"/>
      <point x="26" y="25"/>
      <point x="83" y="-51"/>
      <point x="187" y="-51" type="curve" smooth="yes"/>
      <point x="217" y="-51"/>
      <point x="258" y="-44"/>
      <point x="285" y="-30" type="curve"/>
      <point x="280" y="-16" type="line"/>
      <point x="259" y="-24"/>
      <point x="237" y="-29"/>
      <point x="215" y="-29" type="curve" smooth="yes"/>
      <point x="128" y="-29"/>
      <point x="87" y="42"/>
      <point x="87" y="119" type="curve" smooth="yes"/>
      <point x="87" y="209"/>
      <point x="145" y="308"/>
      <point x="254" y="308" type="curve" smooth="yes"/>
      <point x="366" y="308"/>
      <point x="408" y="236"/>
      <point x="408" y="166" type="curve" smooth="yes"/>
      <point x="408" y="110"/>
      <point x="381" y="60"/>
      <point x="358" y="60" type="curve" smooth="yes"/>
      <point x="352" y="60"/>
      <point x="348" y="66"/>
      <point x="348" y="74" type="curve" smooth="yes"/>
      <point x="348" y="188" type="line"/>
      <point x="291" y="169" type="line"/>
      <point x="291" y="150" type="line" smooth="yes"/>
      <point x="291" y="119"/>
      <point x="285" y="59"/>
      <point x="243" y="59" type="curve" smooth="yes"/>
      <point x="213" y="59"/>
      <point x="204" y="96"/>
      <point x="204" y="136" type="curve" smooth="yes"/>
      <point x="204" y="182"/>
      <point x="225" y="222"/>
      <point x="261" y="222" type="curve" smooth="yes"/>
      <point x="278" y="222"/>
      <point x="291" y="210"/>
      <point x="300" y="195" type="curve"/>
      <point x="347" y="212" type="line"/>
      <point x="333" y="240"/>
      <point x="302" y="250"/>
      <point x="273" y="250" type="curve" smooth="yes"/>
      <point x="199" y="250"/>
      <point x="151" y="188"/>
      <point x="151" y="118" type="curve" smooth="yes"/>
      <point x="151" y="66"/>
      <point x="176" y="26"/>
      <point x="224" y="26" type="curve" smooth="yes"/>
      <point x="257" y="26"/>
      <point x="279" y="50"/>
      <point x="291" y="79" type="curve"/>
      <point x="294" y="79" type="line"/>
      <point x="294" y="46"/>
      <point x="304" y="28"/>
      <point x="335" y="28" type="curve" smooth="yes"/>
      <point x="387" y="28"/>
      <point x="427" y="98"/>
      <point x="427" y="169" type="curve" smooth="yes"/>
      <point x="427" y="249"/>
      <point x="374" y="325"/>
      <point x="252" y="325" type="curve" smooth="yes"/>
    </contour>
  </outline>
</glyph>
<glyph name="C" format="1">
  <advance width="446"/>
  <unicode hex="0043"/>
  <outline>
    <contour>
      <point x="163" y="530"/>
      <point x="29" y="392"/>
      <point x="29" y="210" type="curve" smooth="yes"/>
      <point x="29" y="90"/>
      <point x="98" y="-8"/>
      <point x="219" y="-8" type="curve" smooth="yes"/>
      <point x="307" y="-8"/>
      <point x="366" y="44"/>
      <point x="401" y="89" type="curve"/>
      <point x="386" y="106" type="line"/>
      <point x="349" y="68"/>
      <point x="303" y="47"/>
      <point x="256" y="47" type="curve" smooth="yes"/>
      <point x="162" y="47"/>
      <point x="99" y="132"/>
      <point x="99" y="261" type="curve" smooth="yes"/>
      <point x="99" y="382"/>
      <point x="177" y="487"/>
      <point x="266" y="487" type="curve" smooth="yes"/>
      <point x="323" y="487"/>
      <point x="361" y="448"/>
      <point x="361" y="390" type="curve" smooth="yes"/>
      <point x="361" y="344"/>
      <point x="333" y="300"/>
      <point x="292" y="281" type="curve"/>
      <point x="299" y="267" type="line"/>
      <point x="364" y="287"/>
      <point x="424" y="366"/>
      <point x="424" y="436" type="curve" smooth="yes"/>
      <point x="424" y="492"/>
      <point x="383" y="530"/>
      <point x="321" y="530" type="curve" smooth="yes"/>
    </contour>
    <contour>
      <point x="274" y="538" type="move" name="top"/>
    </contour>
    <contour>
      <point x="223" y="0" type="move" name="bottom"/>
    </contour>
  </outline>
</glyph>
<glyph name="D" format="1">
  <advance width="490"/>
  <unicode hex="0044"/>
  <outline>
    <contour>
      <point x="198" y="517"/>
      <point x="84" y="470"/>
      <point x="22" y="408" type="curve"/>
      <point x="36" y="393" type="line"/>
      <point x="93" y="441"/>
      <point x="172" y="475"/>
      <point x="251" y="475" type="curve" smooth="yes"/>
      <point x="346" y="475"/>
      <point x="382" y="398"/>
      <point x="382" y="324" type="curve" smooth="yes"/>
      <point x="382" y="182"/>
      <point x="280" y="68"/>
      <point x="136" y="30" type="curve"/>
      <point x="136" y="418" type="line"/>
      <point x="69" y="393" type="line"/>
      <point x="69" y="-9" type="line"/>
      <point x="257" y="1"/>
      <point x="461" y="143"/>
      <point x="461" y="336" type="curve" smooth="yes"/>
      <point x="461" y="445"/>
      <point x="401" y="517"/>
      <point x="282" y="517" type="curve" smooth="yes"/>
    </contour>
    <contour>
      <point x="244" y="269" type="move" name="center"/>
    </contour>
    <contour>
      <point x="244" y="538" type="move" name="top"/>
    </contour>
  </outline>
</glyph>
<glyph name="E" format="1">
  <advance width="392"/>
  <unicode hex="0045"/>
  <outline>
    <contour>
      <point x="188" y="520"/>
      <point x="79" y="476"/>
      <point x="79" y="379" type="curve" smooth="yes"/>
      <point x="79" y="334"/>
      <point x="110" y="296"/>
      <point x="159" y="285" type="curve"/>
      <point x="92" y="255"/>
      <point x="22" y="197"/>
      <point x="22" y="122" type="curve" smooth="yes"/>
      <point x="22" y="43"/>
      <point x="82" y="-8"/>
      <point x="164" y="-8" type="curve" smooth="yes"/>
      <point x="261" y="-8"/>
      <point x="343" y="57"/>
      <point x="387" y="131" type="curve"/>
      <point x="371" y="145" type="line"/>
      <point x="344" y="99"/>
      <point x="273" y="48"/>
      <point x="197" y="48" type="curve" smooth="yes"/>
      <point x="136" y="48"/>
      <point x="101" y="92"/>
      <point x="101" y="147" type="curve" smooth="yes"/>
      <point x="101" y="234"/>
      <point x="197" y="286"/>
      <point x="264" y="307" type="curve"/>
      <point x="258" y="327" type="line"/>
      <point x="249" y="323"/>
      <point x="237" y="321"/>
      <point x="224" y="321" type="curve" smooth="yes"/>
      <point x="176" y="321"/>
      <point x="124" y="359"/>
      <point x="124" y="407" type="curve" smooth="yes"/>
      <point x="124" y="454"/>
      <point x="174" y="487"/>
      <point x="222" y="487" type="curve" smooth="yes"/>
      <point x="261" y="487"/>
      <point x="288" y="464"/>
      <point x="310" y="441" type="curve"/>
      <point x="355" y="476" type="line"/>
      <point x="330" y="505"/>
      <point x="299" y="520"/>
      <point x="262" y="520" type="curve" smooth="yes"/>
    </contour>
    <contour>
      <point x="253" y="4" type="move" name="ogonek"/>
    </contour>
    <contour>
      <point x="196" y="0" type="move" name="bottom"/>
    </contour>
    <contour>
      <point x="234" y="538" type="move" name="top"/>
    </contour>
  </outline>
</glyph>
<glyph name="F" format="1">
  <advance width="429"/>
  <unicode hex="0046"/>
  <outline>
    <contour>
      <point x="408" y="508"/>
      <point x="318" y="508"/>
      <point x="276" y="508" type="curve" smooth="yes"/>
      <point x="152" y="508" type="line" smooth="yes"/>
      <point x="95" y="508"/>
      <point x="40" y="473"/>
      <point x="-6" y="415" type="curve"/>
      <point x="7" y="404" type="line"/>
      <point x="30" y="431"/>
      <point x="54" y="445"/>
      <point x="93" y="445" type="curve"/>
      <point x="194" y="445" type="line"/>
      <point x="165" y="418"/>
      <point x="131" y="377"/>
      <point x="131" y="330" type="curve" smooth="yes"/>
      <point x="131" y="19" type="line" smooth="yes"/>
      <point x="131" y="-4"/>
      <point x="126" y="-34"/>
      <point x="110" y="-52" type="curve"/>
      <point x="125" y="-67" type="line"/>
      <point x="173" y="-31"/>
      <point x="198" y="5"/>
      <point x="198" y="84" type="curve"/>
      <point x="198" y="372" type="line" smooth="yes"/>
      <point x="198" y="402"/>
      <point x="207" y="421"/>
      <point x="227" y="445" type="curve"/>
      <point x="306" y="445" type="line" smooth="yes"/>
      <point x="356" y="445"/>
      <point x="416" y="483"/>
      <point x="447" y="529" type="curve"/>
      <point x="439" y="537" type="line"/>
    </contour>
    <contour>
      <point x="340" y="282"/>
      <point x="313" y="267"/>
      <point x="256" y="267" type="curve" smooth="yes"/>
      <point x="90" y="267" type="line"/>
      <point x="57" y="225" type="line"/>
      <point x="241" y="225" type="line" smooth="yes"/>
      <point x="298" y="225"/>
      <point x="341" y="243"/>
      <point x="371" y="287" type="curve"/>
      <point x="361" y="299" type="line"/>
    </contour>
  </outline>
</glyph>
<glyph name="J" format="1">
  <advance width="298"/>
  <unicode hex="004A"/>
  <outline>
    <contour>
      <point x="167" y="508" type="line" smooth="yes"/>
      <point x="107" y="508"/>
      <point x="51" y="473"/>
      <point x="4" y="415" type="curve"/>
      <point x="17" y="404" type="line"/>
      <point x="41" y="431"/>
      <point x="65" y="445"/>
      <point x="105" y="445" type="curve" smooth="yes"/>
      <point x="189" y="445" type="line"/>
      <point x="147" y="415"/>
      <point x="114" y="368"/>
      <point x="114" y="321" type="curve" smooth="yes"/>
      <point x="114" y="18" type="line" smooth="yes"/>
      <point x="114" y="-21"/>
      <point x="99" y="-68"/>
      <point x="40" y="-68" type="curve" smooth="yes"/>
      <point x="-8" y="-68"/>
      <point x="-39" y="-35"/>
      <point x="-57" y="-11" type="curve"/>
      <point x="-117" y="-60" type="line"/>
      <point x="-83" y="-84"/>
      <point x="-39" y="-98"/>
      <point x="0" y="-98" type="curve" smooth="yes"/>
      <point x="129" y="-98"/>
      <point x="181" y="-12"/>
      <point x="181" y="81" type="curve"/>
      <point x="181" y="363" type="line"/>
      <point x="181" y="398"/>
      <point x="194" y="422"/>
      <point x="223" y="457" type="curve"/>
      <point x="271" y="508" type="line"/>
    </contour>
    <contour>
      <point x="164" y="538" type="move" name="top"/>
    </contour>
  </outline>
</glyph>
<glyph name="K" format="1">
  <advance width="453"/>
  <unicode hex="004B"/>
  <outline>
    <contour>
      <point x="84" y="164" type="line"/>
      <point x="126" y="161" type="line"/>
      <point x="427" y="513" type="line"/>
      <point x="383" y="517" type="line"/>
    </contour>
    <contour>
      <point x="65" y="504" type="line"/>
      <point x="65" y="-10" type="line"/>
      <point x="132" y="15" type="line"/>
      <point x="132" y="530" type="line"/>
    </contour>
    <contour>
      <point x="151" y="224" type="line"/>
      <point x="227" y="95" type="line" smooth="yes"/>
      <point x="269" y="23"/>
      <point x="285" y="-6"/>
      <point x="339" y="-6" type="curve" smooth="yes"/>
      <point x="381" y="-6"/>
      <point x="422" y="30"/>
      <point x="451" y="87" type="curve"/>
      <point x="438" y="95" type="line"/>
      <point x="420" y="64"/>
      <point x="390" y="41"/>
      <point x="365" y="40" type="curve" smooth="yes"/>
      <point x="340" y="39"/>
      <point x="329" y="51"/>
      <point x="310" y="84" type="curve" smooth="yes"/>
      <point x="198" y="272" type="line"/>
    </contour>
    <contour>
      <point x="224" y="538" type="move" name="top"/>
    </contour>
    <contour>
      <point x="224" y="0" type="move" name="bottom"/>
    </contour>
  </outline>
</glyph>
<glyph name="M" format="1">
  <advance width="644"/>
  <unicode hex="004D"/>
  <outline>
    <contour>
      <point x="68" y="-10" type="line"/>
      <point x="135" y="14" type="line"/>
      <point x="135" y="209" type="line" smooth="yes"/>
      <point x="135" y="370"/>
      <point x="217" y="475"/>
      <point x="260" y="475" type="curve" smooth="yes"/>
      <point x="273" y="475"/>
      <point x="281" y="463"/>
      <point x="281" y="441" type="curve"/>
      <point x="281" y="-10" type="line"/>
      <point x="349" y="14" type="line"/>
      <point x="349" y="209" type="line" smooth="yes"/>
      <point x="349" y="370"/>
      <point x="430" y="475"/>
      <point x="472" y="475" type="curve" smooth="yes"/>
      <point x="486" y="475"/>
      <point x="495" y="463"/>
      <point x="495" y="441" type="curve"/>
      <point x="495" y="86" type="line"/>
      <point x="495" y="26"/>
      <point x="527" y="-4"/>
      <point x="569" y="-4" type="curve" smooth="yes"/>
      <point x="609" y="-4"/>
      <point x="637" y="23"/>
      <point x="649" y="49" type="curve"/>
      <point x="639" y="59" type="line"/>
      <point x="629" y="44"/>
      <point x="611" y="33"/>
      <point x="595" y="33" type="curve" smooth="yes"/>
      <point x="574" y="33"/>
      <point x="563" y="51"/>
      <point x="563" y="78" type="curve"/>
      <point x="563" y="460" type="line"/>
      <point x="563" y="500"/>
      <point x="546" y="529"/>
      <point x="507" y="529" type="curve" smooth="yes"/>
      <point x="456" y="529"/>
      <point x="381" y="468"/>
      <point x="349" y="342" type="curve"/>
      <point x="349" y="460" type="line"/>
      <point x="349" y="500"/>
      <point x="332" y="529"/>
      <point x="294" y="529" type="curve" smooth="yes"/>
      <point x="242" y="529"/>
      <point x="167" y="468"/>
      <point x="135" y="341" type="curve"/>
      <point x="135" y="530" type="line"/>
      <point x="68" y="504" type="line"/>
    </contour>
  </outline>
</glyph>
<glyph name="P" format="1">
  <advance width="451"/>
  <unicode hex="0050"/>
  <outline>
    <contour>
      <point x="189" y="519"/>
      <point x="88" y="469"/>
      <point x="20" y="405" type="curve"/>
      <point x="34" y="390" type="line"/>
      <point x="89" y="440"/>
      <point x="170" y="475"/>
      <point x="237" y="475" type="curve" smooth="yes"/>
      <point x="327" y="475"/>
      <point x="368" y="425"/>
      <point x="368" y="356" type="curve" smooth="yes"/>
      <point x="368" y="250"/>
      <point x="262" y="178"/>
      <point x="168" y="167" type="curve"/>
      <point x="164" y="148" type="line"/>
      <point x="166" y="147"/>
      <point x="169" y="147"/>
      <point x="172" y="147" type="curve" smooth="yes"/>
      <point x="297" y="147"/>
      <point x="438" y="246"/>
      <point x="438" y="370" type="curve" smooth="yes"/>
      <point x="438" y="474"/>
      <point x="367" y="519"/>
      <point x="281" y="519" type="curve"/>
    </contour>
    <contour>
      <point x="68" y="388" type="line"/>
      <point x="68" y="-9" type="line"/>
      <point x="135" y="16" type="line"/>
      <point x="135" y="413" type="line"/>
    </contour>
  </outline>
</glyph>
<glyph name="R" format="1">
  <advance width="470"/>
  <unicode hex="0052"/>
  <outline>
    <contour>
      <point x="189" y="519"/>
      <point x="88" y="469"/>
      <point x="20" y="405" type="curve"/>
      <point x="34" y="390" type="line"/>
      <point x="89" y="440"/>
      <point x="170" y="475"/>
      <point x="237" y="475" type="curve" smooth="yes"/>
      <point x="327" y="475"/>
      <point x="368" y="425"/>
      <point x="368" y="356" type="curve" smooth="yes"/>
      <point x="368" y="250"/>
      <point x="269" y="178"/>
      <point x="174" y="167" type="curve"/>
      <point x="170" y="148" type="line"/>
      <point x="257" y="41" type="line" smooth="yes"/>
      <point x="285" y="6"/>
      <point x="309" y="-11"/>
      <point x="337" y="-11" type="curve" smooth="yes"/>
      <point x="389" y="-11"/>
      <point x="429" y="47"/>
      <point x="452" y="77" type="curve"/>
      <point x="441" y="87" type="line"/>
      <point x="425" y="70"/>
      <point x="395" y="42"/>
      <point x="368" y="42" type="curve" smooth="yes"/>
      <point x="350" y="42"/>
      <point x="337" y="50"/>
      <point x="327" y="61" type="curve"/>
      <point x="247" y="158" type="line"/>
      <point x="347" y="185"/>
      <point x="438" y="269"/>
      <point x="438" y="370" type="curve" smooth="yes"/>
      <point x="438" y="474"/>
      <point x="367" y="519"/>
      <point x="281" y="519" type="curve" smooth="yes"/>
    </contour>
    <contour>
      <point x="65" y="389" type="line"/>
      <point x="65" y="-10" type="line"/>
      <point x="132" y="16" type="line"/>
      <point x="132" y="414" type="line"/>
    </contour>
    <contour>
      <point x="246" y="538" type="move" name="top"/>
    </contour>
    <contour>
      <point x="235" y="0" type="move" name="bottom"/>
    </contour>
  </outline>
</glyph>
<glyph name="T" format="1">
  <advance width="363"/>
  <unicode hex="0054"/>
  <outline>
    <contour>
      <point x="348" y="508"/>
      <point x="258" y="508"/>
      <point x="216" y="508" type="curve" smooth="yes"/>
      <point x="156" y="508" type="line" smooth="yes"/>
      <point x="99" y="508"/>
      <point x="44" y="473"/>
      <point x="-3" y="415" type="curve"/>
      <point x="10" y="404" type="line"/>
      <point x="34" y="431"/>
      <point x="57" y="445"/>
      <point x="96" y="445" type="curve"/>
      <point x="196" y="445" type="line"/>
      <point x="165" y="418"/>
      <point x="134" y="377"/>
      <point x="134" y="330" type="curve" smooth="yes"/>
      <point x="134" y="70" type="line" smooth="yes"/>
      <point x="134" y="48"/>
      <point x="129" y="18"/>
      <point x="113" y="0" type="curve"/>
      <point x="128" y="-15" type="line"/>
      <point x="176" y="21"/>
      <point x="201" y="56"/>
      <point x="201" y="136" type="curve"/>
      <point x="201" y="372" type="line" smooth="yes"/>
      <point x="201" y="402"/>
      <point x="210" y="421"/>
      <point x="229" y="445" type="curve"/>
      <point x="292" y="445"/>
      <point x="351" y="483"/>
      <point x="387" y="529" type="curve"/>
      <point x="379" y="537" type="line"/>
    </contour>
    <contour>
      <point x="181" y="269" type="move" name="center"/>
    </contour>
    <contour>
      <point x="170" y="0" type="move" name="bottom"/>
    </contour>
    <contour>
      <point x="191" y="538" type="move" name="top"/>
    </contour>
  </outline>
</glyph>
<glyph name="U" format="1">
  <advance width="458"/>
  <unicode hex="0055"/>
  <outline>
    <contour>
      <point x="300" y="493" type="line"/>
      <point x="300" y="267" type="line" smooth="yes"/>
      <point x="300" y="202"/>
      <point x="270" y="33"/>
      <point x="180" y="33" type="curve" smooth="yes"/>
      <point x="125" y="33"/>
      <point x="127" y="90"/>
      <point x="127" y="125" type="curve" smooth="yes"/>
      <point x="127" y="518" type="line"/>
      <point x="60" y="494" type="line"/>
      <point x="60" y="97" type="line" smooth="yes"/>
      <point x="60" y="41"/>
      <point x="88" y="-7"/>
      <point x="149" y="-7" type="curve" smooth="yes"/>
      <point x="236" y="-7"/>
      <point x="282" y="67"/>
      <point x="300" y="136" type="curve"/>
      <point x="300" y="85" type="line"/>
      <point x="300" y="26"/>
      <point x="332" y="-4"/>
      <point x="373" y="-4" type="curve" smooth="yes"/>
      <point x="413" y="-4"/>
      <point x="442" y="23"/>
      <point x="453" y="49" type="curve"/>
      <point x="443" y="59" type="line"/>
      <point x="433" y="44"/>
      <point x="415" y="33"/>
      <point x="399" y="33" type="curve" smooth="yes"/>
      <point x="379" y="33"/>
      <point x="367" y="51"/>
      <point x="367" y="78" type="curve"/>
      <point x="367" y="518" type="line"/>
    </contour>
    <contour>
      <point x="448" y="4" type="move" name="ogonek"/>
    </contour>
    <contour>
      <point x="231" y="538" type="move" name="top"/>
    </contour>
  </outline>
</glyph>
<glyph name="Y" format="1">
  <advance width="457"/>
  <unicode hex="0059"/>
  <outline>
    <contour>
      <point x="322" y="131" type="line"/>
      <point x="322" y="-46" type="line" smooth="yes"/>
      <point x="322" y="-74"/>
      <point x="306" y="-129"/>
      <point x="250" y="-129" type="curve" smooth="yes"/>
      <point x="214" y="-129"/>
      <point x="183" y="-96"/>
      <point x="171" y="-72" type="curve"/>
      <point x="112" y="-122" type="line"/>
      <point x="141" y="-147"/>
      <point x="178" y="-162"/>
      <point x="222" y="-162" type="curve" smooth="yes"/>
      <point x="325" y="-162"/>
      <point x="389" y="-78"/>
      <point x="389" y="19" type="curve" smooth="yes"/>
      <point x="389" y="517" type="line"/>
      <point x="322" y="493" type="line"/>
      <point x="322" y="271" type="line" smooth="yes"/>
      <point x="322" y="205"/>
      <point x="293" y="39"/>
      <point x="202" y="39" type="curve" smooth="yes"/>
      <point x="152" y="39"/>
      <point x="151" y="98"/>
      <point x="151" y="134" type="curve" smooth="yes"/>
      <point x="151" y="423" type="line" smooth="yes"/>
      <point x="151" y="466"/>
      <point x="123" y="512"/>
      <point x="71" y="512" type="curve" smooth="yes"/>
      <point x="42" y="512"/>
      <point x="9" y="486"/>
      <point x="-3" y="458" type="curve"/>
      <point x="7" y="449" type="line"/>
      <point x="17" y="462"/>
      <point x="35" y="473"/>
      <point x="51" y="473" type="curve" smooth="yes"/>
      <point x="76" y="473"/>
      <point x="83" y="452"/>
      <point x="83" y="430" type="curve" smooth="yes"/>
      <point x="83" y="105" type="line" smooth="yes"/>
      <point x="83" y="49"/>
      <point x="111" y="0"/>
      <point x="171" y="0" type="curve" smooth="yes"/>
      <point x="254" y="0"/>
      <point x="300" y="63"/>
      <point x="319" y="131" type="curve"/>
    </contour>
    <contour>
      <point x="231" y="538" type="move" name="top"/>
    </contour>
  </outline>
</glyph>
<glyph name="bracketright" format="1">
  <advance width="210"/>
  <unicode hex="005D"/>
  <outline>
    <contour>
      <point x="15" y="542" type="line"/>
      <point x="15" y="518" type="line"/>
      <point x="87" y="518" type="line"/>
      <point x="87" y="-78" type="line"/>
      <point x="15" y="-78" type="line"/>
      <point x="15" y="-103" type="line"/>
      <point x="156" y="-103" type="line"/>
      <point x="156" y="542" type="line"/>
    </contour>
  </outline>
</glyph>
<glyph name="underscore" format="1">
  <advance width="402"/>
  <unicode hex="005F"/>
  <outline>
    <contour>
      <point x="344" y="-53" type="line"/>
      <point x="322" y="-111" type="line"/>
      <point x="76" y="-111" type="line"/>
      <point x="99" y="-53" type="line"/>
    </contour>
  </outline>
</glyph>
<glyph name="grave" format="1">
  <advance width="132"/>
  <unicode hex="0060"/>
  <outline>
    <contour>
      <point x="-9" y="389" type="line"/>
      <point x="35" y="443" type="line"/>
      <point x="124" y="341" type="line"/>
      <point x="113" y="325" type="line"/>
    </contour>
    <contour>
      <point x="66" y="300" type="move" name="_top"/>
    </contour>
  </outline>
</glyph>
<glyph name="a" format="1">
  <advance width="326"/>
  <unicode hex="0061"/>
  <outline>
    <contour>
      <point x="87" y="279"/>
      <point x="25" y="200"/>
      <point x="25" y="112" type="curve" smooth="yes"/>
      <point x="25" y="44"/>
      <point x="56" y="-7"/>
      <point x="119" y="-7" type="curve" smooth="yes"/>
      <point x="159" y="-7"/>
      <point x="191" y="24"/>
      <point x="207" y="61" type="curve"/>
      <point x="208" y="61" type="line"/>
      <point x="208" y="26"/>
      <point x="222" y="-4"/>
      <point x="259" y="-4" type="curve" smooth="yes"/>
      <point x="286" y="-4"/>
      <point x="311" y="18"/>
      <point x="322" y="43" type="curve"/>
      <point x="312" y="53" type="line"/>
      <point x="306" y="45"/>
      <point x="296" y="33"/>
      <point x="284" y="33" type="curve" smooth="yes"/>
      <point x="273" y="33"/>
      <point x="268" y="43"/>
      <point x="268" y="52" type="curve" smooth="yes"/>
      <point x="268" y="198" type="line"/>
      <point x="208" y="176" type="line"/>
      <point x="208" y="151" type="line" smooth="yes"/>
      <point x="208" y="111"/>
      <point x="198" y="34"/>
      <point x="136" y="34" type="curve" smooth="yes"/>
      <point x="94" y="34"/>
      <point x="80" y="81"/>
      <point x="80" y="133" type="curve" smooth="yes"/>
      <point x="80" y="194"/>
      <point x="111" y="243"/>
      <point x="163" y="243" type="curve" smooth="yes"/>
      <point x="187" y="243"/>
      <point x="207" y="226"/>
      <point x="218" y="209" type="curve"/>
      <point x="267" y="231" type="line"/>
      <point x="251" y="266"/>
      <point x="212" y="279"/>
      <point x="176" y="279" type="curve" smooth="yes"/>
    </contour>
    <contour>
      <point x="322" y="4" type="move" name="ogonek"/>
    </contour>
    <contour>
      <point x="184" y="300" type="move" name="top"/>
    </contour>
  </outline>
</glyph>
<glyph name="d" format="1">
  <advance width="331"/>
  <unicode hex="0064"/>
  <outline>
    <contour>
      <point x="209" y="494" type="line"/>
      <point x="209" y="272" type="line"/>
      <point x="196" y="279"/>
      <point x="181" y="282"/>
      <point x="167" y="282" type="curve" smooth="yes"/>
      <point x="76" y="282"/>
      <point x="25" y="190"/>
      <point x="25" y="110" type="curve" smooth="yes"/>
      <point x="25" y="48"/>
      <point x="58" y="-7"/>
      <point x="123" y="-7" type="curve" smooth="yes"/>
      <point x="166" y="-7"/>
      <point x="192" y="29"/>
      <point x="206" y="60" type="curve"/>
      <point x="209" y="60" type="line"/>
      <point x="209" y="16"/>
      <point x="224" y="-4"/>
      <point x="261" y="-4" type="curve" smooth="yes"/>
      <point x="287" y="-4"/>
      <point x="312" y="18"/>
      <point x="324" y="43" type="curve"/>
      <point x="314" y="53" type="line"/>
      <point x="309" y="45"/>
      <point x="298" y="33"/>
      <point x="286" y="33" type="curve" smooth="yes"/>
      <point x="276" y="33"/>
      <point x="272" y="43"/>
      <point x="272" y="52" type="curve" smooth="yes"/>
      <point x="272" y="516" type="line"/>
    </contour>
    <contour>
      <point x="182" y="248"/>
      <point x="197" y="240"/>
      <point x="208" y="228" type="curve"/>
      <point x="208" y="151" type="line"/>
      <point x="208" y="111"/>
      <point x="200" y="34"/>
      <point x="143" y="34" type="curve" smooth="yes"/>
      <point x="97" y="34"/>
      <point x="83" y="97"/>
      <point x="83" y="132" type="curve" smooth="yes"/>
      <point x="83" y="177"/>
      <point x="105" y="248"/>
      <point x="165" y="248" type="curve" smooth="yes"/>
    </contour>
    <contour>
      <point x="166" y="150" type="move" name="center"/>
    </contour>
    <contour>
      <point x="319" y="300" type="move" name="topright"/>
    </contour>
  </outline>
</glyph>
<glyph name="e" format="1">
  <advance width="296"/>
  <unicode hex="0065"/>
  <outline>
    <contour>
      <point x="100" y="284"/>
      <point x="22" y="203"/>
      <point x="22" y="117" type="curve" smooth="yes"/>
      <point x="22" y="48"/>
      <point x="73" y="-7"/>
      <point x="144" y="-7" type="curve" smooth="yes"/>
      <point x="209" y="-7"/>
      <point x="248" y="26"/>
      <point x="281" y="69" type="curve"/>
      <point x="271" y="81" type="line"/>
      <point x="247" y="53"/>
      <point x="211" y="30"/>
      <point x="176" y="30" type="curve" smooth="yes"/>
      <point x="149" y="30"/>
      <point x="124" y="39"/>
      <point x="106" y="68" type="curve"/>
      <point x="153" y="89"/>
      <point x="260" y="166"/>
      <point x="260" y="220" type="curve" smooth="yes"/>
      <point x="260" y="265"/>
      <point x="226" y="284"/>
      <point x="186" y="284" type="curve" smooth="yes"/>
    </contour>
    <contour>
      <point x="182" y="249"/>
      <point x="197" y="235"/>
      <point x="197" y="207" type="curve" smooth="yes"/>
      <point x="197" y="165"/>
      <point x="135" y="106"/>
      <point x="94" y="86" type="curve"/>
      <point x="84" y="101"/>
      <point x="79" y="121"/>
      <point x="79" y="143" type="curve" smooth="yes"/>
      <point x="79" y="194"/>
      <point x="110" y="249"/>
      <point x="156" y="249" type="curve" smooth="yes"/>
    </contour>
    <contour>
      <point x="244" y="4" type="move" name="ogonek"/>
    </contour>
    <contour>
      <point x="148" y="0" type="move" name="bottom"/>
    </contour>
    <contour>
      <point x="158" y="300" type="move" name="top"/>
    </contour>
  </outline>
</glyph>
<glyph name="f" format="1">
  <advance width="206"/>
  <unicode hex="0066"/>
  <outline>
    <contour>
      <point x="84" y="521"/>
      <point x="52" y="434"/>
      <point x="52" y="355" type="curve" smooth="yes"/>
      <point x="52" y="279" type="line"/>
      <point x="29" y="279" type="line"/>
      <point x="14" y="243" type="line"/>
      <point x="52" y="243" type="line"/>
      <point x="52" y="-101" type="line"/>
      <point x="115" y="-73" type="line"/>
      <point x="115" y="243" type="line"/>
      <point x="204" y="243" type="line"/>
      <point x="221" y="279" type="line"/>
      <point x="115" y="279" type="line"/>
      <point x="115" y="432" type="line" smooth="yes"/>
      <point x="115" y="460"/>
      <point x="124" y="496"/>
      <point x="163" y="496" type="curve" smooth="yes"/>
      <point x="192" y="496"/>
      <point x="209" y="472"/>
      <point x="218" y="447" type="curve"/>
      <point x="267" y="474" type="line"/>
      <point x="247" y="503"/>
      <point x="211" y="521"/>
      <point x="185" y="521" type="curve" smooth="yes"/>
    </contour>
  </outline>
</glyph>
<glyph name="g" format="1">
  <advance width="310"/>
  <unicode hex="0067"/>
  <outline>
    <contour>
      <point x="87" y="285"/>
      <point x="25" y="198"/>
      <point x="25" y="105" type="curve" smooth="yes"/>
      <point x="25" y="44"/>
      <point x="58" y="-7"/>
      <point x="123" y="-7" type="curve" smooth="yes"/>
      <point x="164" y="-7"/>
      <point x="190" y="30"/>
      <point x="208" y="61" type="curve"/>
      <point x="212" y="61" type="line"/>
      <point x="209" y="50"/>
      <point x="208" y="35"/>
      <point x="208" y="23" type="curve"/>
      <point x="208" y="-18" type="line"/>
      <point x="208" y="-66"/>
      <point x="204" y="-123"/>
      <point x="145" y="-123" type="curve" smooth="yes"/>
      <point x="127" y="-123"/>
      <point x="114" y="-114"/>
      <point x="105" y="-100" type="curve"/>
      <point x="58" y="-144" type="line"/>
      <point x="71" y="-158"/>
      <point x="90" y="-164"/>
      <point x="109" y="-164" type="curve" smooth="yes"/>
      <point x="200" y="-164"/>
      <point x="269" y="-57"/>
      <point x="269" y="27" type="curve" smooth="yes"/>
      <point x="269" y="198" type="line"/>
      <point x="208" y="176" type="line"/>
      <point x="208" y="151" type="line" smooth="yes"/>
      <point x="208" y="111"/>
      <point x="199" y="34"/>
      <point x="142" y="34" type="curve" smooth="yes"/>
      <point x="95" y="34"/>
      <point x="81" y="89"/>
      <point x="81" y="133" type="curve" smooth="yes"/>
      <point x="81" y="182"/>
      <point x="111" y="249"/>
      <point x="164" y="249" type="curve" smooth="yes"/>
      <point x="187" y="249"/>
      <point x="207" y="235"/>
      <point x="219" y="209" type="curve"/>
      <point x="269" y="231" type="line"/>
      <point x="251" y="266"/>
      <point x="213" y="285"/>
      <point x="176" y="285" type="curve" smooth="yes"/>
    </contour>
    <contour>
      <point x="167" y="300" type="move" name="top"/>
    </contour>
  </outline>
</glyph>
<glyph name="i" format="1">
  <advance width="172"/>
  <unicode hex="0069"/>
  <outline>
    <contour>
      <point x="47" y="257" type="line"/>
      <point x="47" y="54" type="line" smooth="yes"/>
      <point x="47" y="14"/>
      <point x="64" y="-4"/>
      <point x="96" y="-4" type="curve" smooth="yes"/>
      <point x="117" y="-4"/>
      <point x="146" y="10"/>
      <point x="164" y="42" type="curve"/>
      <point x="154" y="52" type="line"/>
      <point x="144" y="38"/>
      <point x="134" y="32"/>
      <point x="125" y="32" type="curve" smooth="yes"/>
      <point x="116" y="32"/>
      <point x="110" y="39"/>
      <point x="110" y="51" type="curve" smooth="yes"/>
      <point x="110" y="279" type="line"/>
    </contour>
    <contour>
      <point x="39" y="444" type="line"/>
      <point x="62" y="328" type="line"/>
      <point x="93" y="337" type="line"/>
      <point x="112" y="469" type="line"/>
    </contour>
  </outline>
</glyph>
<glyph name="l" format="1">
  <advance width="173"/>
  <unicode hex="006C"/>
  <outline>
    <contour>
      <point x="48" y="494" type="line"/>
      <point x="48" y="54" type="line" smooth="yes"/>
      <point x="48" y="17"/>
      <point x="65" y="-4"/>
      <point x="101" y="-4" type="curve" smooth="yes"/>
      <point x="128" y="-4"/>
      <point x="153" y="18"/>
      <point x="165" y="42" type="curve"/>
      <point x="155" y="52" type="line"/>
      <point x="150" y="43"/>
      <point x="138" y="32"/>
      <point x="127" y="32" type="curve" smooth="yes"/>
      <point x="115" y="32"/>
      <point x="110" y="43"/>
      <point x="110" y="51" type="curve" smooth="yes"/>
      <point x="110" y="516" type="line"/>
    </contour>
    <contour>
      <point x="86" y="504" type="move" name="top"/>
    </contour>
    <contour>
      <point x="86" y="0" type="move" name="bottom"/>
    </contour>
    <contour>
      <point x="164" y="300" type="move" name="topright"/>
    </contour>
  </outline>
</glyph>
<glyph name="m" format="1">
  <advance width="452"/>
  <unicode hex="006D"/>
  <outline>
    <contour>
      <point x="313" y="284"/>
      <point x="278" y="237"/>
      <point x="260" y="156" type="curve"/>
      <point x="258" y="156" type="line"/>
      <point x="258" y="232" type="line" smooth="yes"/>
      <point x="258" y="267"/>
      <point x="246" y="284"/>
      <point x="218" y="284" type="curve" smooth="yes"/>
      <point x="185" y="284"/>
      <point x="151" y="237"/>
      <point x="132" y="156" type="curve"/>
      <point x="130" y="156" type="line"/>
      <point x="130" y="230" type="line" smooth="yes"/>
      <point x="130" y="257"/>
      <point x="121" y="284"/>
      <point x="79" y="284" type="curve"/>
      <point x="83" y="284"/>
      <point x="38" y="287"/>
      <point x="15" y="237" type="curve"/>
      <point x="25" y="226" type="line"/>
      <point x="34" y="241"/>
      <point x="44" y="248"/>
      <point x="52" y="248" type="curve" smooth="yes"/>
      <point x="62" y="248"/>
      <point x="69" y="240"/>
      <point x="69" y="228" type="curve" smooth="yes"/>
      <point x="69" y="-8" type="line"/>
      <point x="129" y="8" type="line"/>
      <point x="129" y="140"/>
      <point x="166" y="221"/>
      <point x="185" y="221" type="curve" smooth="yes"/>
      <point x="191" y="221"/>
      <point x="195" y="214"/>
      <point x="195" y="206" type="curve" smooth="yes"/>
      <point x="195" y="-8" type="line"/>
      <point x="257" y="8" type="line"/>
      <point x="257" y="140"/>
      <point x="291" y="221"/>
      <point x="314" y="221" type="curve" smooth="yes"/>
      <point x="319" y="221"/>
      <point x="323" y="214"/>
      <point x="323" y="206" type="curve" smooth="yes"/>
      <point x="323" y="54" type="line" smooth="yes"/>
      <point x="323" y="25"/>
      <point x="334" y="-4"/>
      <point x="375" y="-4" type="curve"/>
      <point x="370" y="-4"/>
      <point x="415" y="-7"/>
      <point x="438" y="42" type="curve"/>
      <point x="429" y="52" type="line"/>
      <point x="419" y="39"/>
      <point x="408" y="32"/>
      <point x="400" y="32" type="curve" smooth="yes"/>
      <point x="392" y="32"/>
      <point x="386" y="39"/>
      <point x="386" y="51" type="curve" smooth="yes"/>
      <point x="386" y="232" type="line" smooth="yes"/>
      <point x="386" y="267"/>
      <point x="374" y="284"/>
      <point x="346" y="284" type="curve" smooth="yes"/>
    </contour>
  </outline>
</glyph>
<glyph name="o" format="1">
  <advance width="311"/>
  <unicode hex="006F"/>
  <outline>
    <contour>
      <point x="79" y="262"/>
      <point x="22" y="199"/>
      <point x="22" y="117" type="curve" smooth="yes"/>
      <point x="22" y="46"/>
      <point x="78" y="-8"/>
      <point x="149" y="-8" type="curve" smooth="yes"/>
      <point x="238" y="-8"/>
      <point x="288" y="73"/>
      <point x="288" y="149" type="curve" smooth="yes"/>
      <point x="288" y="205"/>
      <point x="257" y="260"/>
      <point x="202" y="279" type="curve"/>
      <point x="180" y="263"/>
      <point x="159" y="248"/>
      <point x="142" y="229" type="curve"/>
      <point x="198" y="225"/>
      <point x="244" y="161"/>
      <point x="244" y="109" type="curve" smooth="yes"/>
      <point x="244" y="65"/>
      <point x="216" y="27"/>
      <point x="170" y="27" type="curve" smooth="yes"/>
      <point x="113" y="27"/>
      <point x="85" y="89"/>
      <point x="85" y="135" type="curve" smooth="yes"/>
      <point x="85" y="200"/>
      <point x="121" y="241"/>
      <point x="167" y="273" type="curve"/>
      <point x="156" y="285" type="line"/>
    </contour>
    <contour>
      <point x="160" y="300" type="move" name="top"/>
    </contour>
  </outline>
</glyph>
<glyph name="r" format="1">
  <advance width="251"/>
  <unicode hex="0072"/>
  <outline>
    <contour>
      <point x="151" y="207" type="line"/>
      <point x="136" y="200"/>
      <point x="120" y="196"/>
      <point x="104" y="196" type="curve" smooth="yes"/>
      <point x="91" y="196"/>
      <point x="83" y="197"/>
      <point x="72" y="202" type="curve"/>
      <point x="34" y="124" type="line"/>
      <point x="12" y="134" type="line"/>
      <point x="51" y="212" type="line"/>
      <point x="43" y="218"/>
      <point x="31" y="228"/>
      <point x="28" y="236" type="curve"/>
      <point x="80" y="294" type="line"/>
      <point x="88" y="267"/>
      <point x="112" y="238"/>
      <point x="141" y="238" type="curve" smooth="yes"/>
      <point x="167" y="238"/>
      <point x="192" y="249"/>
      <point x="213" y="262" type="curve"/>
      <point x="223" y="253" type="line"/>
      <point x="185" y="217"/>
      <point x="145" y="158"/>
      <point x="145" y="99" type="curve" smooth="yes"/>
      <point x="145" y="66"/>
      <point x="161" y="37"/>
      <point x="197" y="37" type="curve" smooth="yes"/>
      <point x="209" y="37"/>
      <point x="221" y="42"/>
      <point x="232" y="49" type="curve"/>
      <point x="240" y="39" type="line"/>
      <point x="219" y="13"/>
      <point x="187" y="-6"/>
      <point x="155" y="-6" type="curve" smooth="yes"/>
      <point x="113" y="-6"/>
      <point x="94" y="28"/>
      <point x="94" y="66" type="curve" smooth="yes"/>
      <point x="94" y="111"/>
      <point x="121" y="172"/>
      <point x="153" y="205" type="curve"/>
    </contour>
    <contour>
      <point x="142" y="300" type="move" name="top"/>
    </contour>
    <contour>
      <point x="126" y="0" type="move" name="bottom"/>
    </contour>
  </outline>
</glyph>
<glyph name="t" format="1">
  <advance width="193"/>
  <unicode hex="0074"/>
  <outline>
    <contour>
      <point x="52" y="406" type="line"/>
      <point x="52" y="279" type="line"/>
      <point x="28" y="279" type="line"/>
      <point x="11" y="243" type="line"/>
      <point x="52" y="243" type="line"/>
      <point x="52" y="54" type="line" smooth="yes"/>
      <point x="52" y="25"/>
      <point x="63" y="-4"/>
      <point x="106" y="-4" type="curve"/>
      <point x="99" y="-4"/>
      <point x="147" y="-7"/>
      <point x="172" y="42" type="curve"/>
      <point x="162" y="52" type="line"/>
      <point x="150" y="39"/>
      <point x="140" y="32"/>
      <point x="132" y="32" type="curve" smooth="yes"/>
      <point x="122" y="32"/>
      <point x="115" y="39"/>
      <point x="115" y="51" type="curve" smooth="yes"/>
      <point x="115" y="243" type="line"/>
      <point x="173" y="243" type="line"/>
      <point x="189" y="279" type="line"/>
      <point x="115" y="279" type="line"/>
      <point x="115" y="429" type="line"/>
    </contour>
    <contour>
      <point x="98" y="150" type="move" name="center"/>
    </contour>
    <contour>
      <point x="98" y="0" type="move" name="bottom"/>
    </contour>
    <contour>
      <point x="188" y="300" type="move" name="topright"/>
    </contour>
  </outline>
</glyph>
<glyph name="u" format="1">
  <advance width="338"/>
  <unicode hex="0075"/>
  <outline>
    <contour>
      <point x="212" y="263" type="line"/>
      <point x="211" y="230"/>
      <point x="178" y="53"/>
      <point x="131" y="53" type="curve" smooth="yes"/>
      <point x="126" y="53"/>
      <point x="122" y="59"/>
      <point x="122" y="74" type="curve" smooth="yes"/>
      <point x="122" y="226" type="line" smooth="yes"/>
      <point x="122" y="254"/>
      <point x="111" y="283"/>
      <point x="69" y="283" type="curve"/>
      <point x="75" y="283"/>
      <point x="29" y="286"/>
      <point x="7" y="237" type="curve"/>
      <point x="15" y="227" type="line"/>
      <point x="26" y="241"/>
      <point x="36" y="248"/>
      <point x="44" y="248" type="curve" smooth="yes"/>
      <point x="54" y="248"/>
      <point x="60" y="240"/>
      <point x="60" y="227" type="curve" smooth="yes"/>
      <point x="60" y="71" type="line" smooth="yes"/>
      <point x="60" y="23"/>
      <point x="61" y="-7"/>
      <point x="101" y="-7" type="curve" smooth="yes"/>
      <point x="169" y="-7"/>
      <point x="200" y="113"/>
      <point x="212" y="162" type="curve"/>
      <point x="215" y="162" type="line" smooth="yes"/>
      <point x="215" y="52" type="line"/>
      <point x="214" y="25"/>
      <point x="225" y="-4"/>
      <point x="266" y="-4" type="curve"/>
      <point x="261" y="-4"/>
      <point x="306" y="-7"/>
      <point x="330" y="43" type="curve"/>
      <point x="320" y="53" type="line"/>
      <point x="311" y="39"/>
      <point x="301" y="32"/>
      <point x="293" y="32" type="curve" smooth="yes"/>
      <point x="283" y="32"/>
      <point x="277" y="39"/>
      <point x="277" y="51" type="curve" smooth="yes"/>
      <point x="277" y="287" type="line"/>
    </contour>
    <contour>
      <point x="334" y="4" type="move" name="ogonek"/>
    </contour>
    <contour>
      <point x="169" y="300" type="move" name="top"/>
    </contour>
  </outline>
</glyph>
<glyph name="y" format="1">
  <advance width="322"/>
  <unicode hex="0079"/>
  <outline>
    <contour>
      <point x="213" y="263" type="line"/>
      <point x="213" y="187"/>
      <point x="160" y="56"/>
      <point x="133" y="56" type="curve" smooth="yes"/>
      <point x="126" y="56"/>
      <point x="122" y="63"/>
      <point x="122" y="76" type="curve" smooth="yes"/>
      <point x="122" y="226" type="line" smooth="yes"/>
      <point x="122" y="263"/>
      <point x="104" y="283"/>
      <point x="71" y="283" type="curve"/>
      <point x="40" y="283"/>
      <point x="24" y="272"/>
      <point x="7" y="237" type="curve"/>
      <point x="17" y="227" type="line"/>
      <point x="26" y="240"/>
      <point x="37" y="248"/>
      <point x="45" y="248" type="curve" smooth="yes"/>
      <point x="54" y="248"/>
      <point x="61" y="239"/>
      <point x="61" y="227" type="curve" smooth="yes"/>
      <point x="61" y="71" type="line" smooth="yes"/>
      <point x="61" y="9"/>
      <point x="69" y="-7"/>
      <point x="102" y="-7" type="curve" smooth="yes"/>
      <point x="150" y="-7"/>
      <point x="188" y="55"/>
      <point x="216" y="177" type="curve"/>
      <point x="219" y="177" type="line"/>
      <point x="218" y="155"/>
      <point x="216" y="103"/>
      <point x="216" y="27" type="curve"/>
      <point x="216" y="-64"/>
      <point x="193" y="-123"/>
      <point x="158" y="-123" type="curve" smooth="yes"/>
      <point x="141" y="-123"/>
      <point x="119" y="-113"/>
      <point x="101" y="-97" type="curve"/>
      <point x="61" y="-148" type="line"/>
      <point x="80" y="-162"/>
      <point x="98" y="-168"/>
      <point x="117" y="-168" type="curve" smooth="yes"/>
      <point x="201" y="-168"/>
      <point x="278" y="-73"/>
      <point x="278" y="30" type="curve" smooth="yes"/>
      <point x="278" y="287" type="line"/>
    </contour>
    <contour>
      <point x="169" y="300" type="move" name="top"/>
    </contour>
  </outline>
</glyph>
<glyph name="braceleft" format="1">
  <advance width="228"/>
  <unicode hex="007B"/>
  <outline>
    <contour>
      <point x="74" y="547"/>
      <point x="85" y="428"/>
      <point x="85" y="351" type="curve" smooth="yes"/>
      <point x="85" y="291"/>
      <point x="80" y="243"/>
      <point x="5" y="234" type="curve"/>
      <point x="5" y="209" type="line"/>
      <point x="100" y="198"/>
      <point x="85" y="118"/>
      <point x="85" y="49" type="curve" smooth="yes"/>
      <point x="85" y="-21"/>
      <point x="94" y="-104"/>
      <point x="186" y="-104" type="curve" smooth="yes"/>
      <point x="198" y="-104"/>
      <point x="208" y="-103"/>
      <point x="218" y="-99" type="curve"/>
      <point x="213" y="-80" type="line"/>
      <point x="209" y="-81"/>
      <point x="204" y="-81"/>
      <point x="200" y="-81" type="curve" smooth="yes"/>
      <point x="156" y="-81"/>
      <point x="156" y="-48"/>
      <point x="156" y="-14" type="curve" smooth="yes"/>
      <point x="156" y="9"/>
      <point x="156" y="31"/>
      <point x="156" y="52" type="curve" smooth="yes"/>
      <point x="156" y="125"/>
      <point x="142" y="214"/>
      <point x="55" y="221" type="curve"/>
      <point x="55" y="224" type="line"/>
      <point x="141" y="235"/>
      <point x="157" y="315"/>
      <point x="157" y="390" type="curve" smooth="yes"/>
      <point x="157" y="413"/>
      <point x="156" y="437"/>
      <point x="156" y="461" type="curve" smooth="yes"/>
      <point x="156" y="494"/>
      <point x="161" y="524"/>
      <point x="200" y="524" type="curve" smooth="yes"/>
      <point x="204" y="524"/>
      <point x="209" y="523"/>
      <point x="213" y="522" type="curve"/>
      <point x="218" y="542" type="line"/>
      <point x="208" y="545"/>
      <point x="198" y="547"/>
      <point x="186" y="547" type="curve" smooth="yes"/>
    </contour>
  </outline>
</glyph>
<glyph name="bar" format="1">
  <advance width="182"/>
  <unicode hex="007C"/>
  <outline>
    <contour>
      <point x="124" y="-76" type="line"/>
      <point x="57" y="-100" type="line"/>
      <point x="57" y="519" type="line"/>
      <point x="124" y="539" type="line"/>
    </contour>
  </outline>
</glyph>
<glyph name="asciitilde" format="1">
  <advance width="257"/>
  <unicode hex="007E"/>
  <outline>
    <contour>
      <point x="131" y="313"/>
      <point x="155" y="268"/>
      <point x="177" y="268" type="curve" smooth="yes"/>
      <point x="186" y="268"/>
      <point x="197" y="273"/>
      <point x="197" y="288" type="curve" smooth="yes"/>
      <point x="197" y="293"/>
      <point x="194" y="300"/>
      <point x="189" y="309" type="curve"/>
      <point x="204" y="316" type="line"/>
      <point x="220" y="301"/>
      <point x="222" y="283"/>
      <point x="222" y="274" type="curve"/>
      <point x="222" y="245"/>
      <point x="203" y="222"/>
      <point x="166" y="222" type="curve"/>
      <point x="127" y="222"/>
      <point x="103" y="268"/>
      <point x="81" y="268" type="curve" smooth="yes"/>
      <point x="72" y="268"/>
      <point x="62" y="263"/>
      <point x="62" y="248" type="curve" smooth="yes"/>
      <point x="62" y="243"/>
      <point x="64" y="236"/>
      <point x="70" y="227" type="curve"/>
      <point x="54" y="220" type="line"/>
      <point x="38" y="235"/>
      <point x="36" y="252"/>
      <point x="36" y="261" type="curve"/>
      <point x="36" y="291"/>
      <point x="56" y="313"/>
      <point x="92" y="313" type="curve"/>
    </contour>
  </outline>
</glyph>
<glyph name="currency" format="1">
  <advance width="386"/>
  <unicode hex="00A4"/>
  <outline>
    <contour>
      <point x="24" y="381" type="line"/>
      <point x="119" y="309" type="line"/>
      <point x="129" y="338" type="line"/>
      <point x="60" y="423" type="line"/>
    </contour>
    <contour>
      <point x="25" y="122" type="line"/>
      <point x="67" y="87" type="line"/>
      <point x="139" y="180" type="line"/>
      <point x="110" y="191" type="line"/>
    </contour>
    <contour>
      <point x="270" y="158" type="line"/>
      <point x="327" y="88" type="line"/>
      <point x="362" y="130" type="line"/>
      <point x="287" y="187" type="line"/>
    </contour>
    <contour>
      <point x="261" y="350" type="line"/>
      <point x="290" y="332" type="line"/>
      <point x="360" y="389" type="line"/>
      <point x="318" y="424" type="line"/>
    </contour>
    <component base="o" xOffset="41" yOffset="113"/>
  </outline>
</glyph>
<glyph name="yen" format="1">
  <advance width="396"/>
  <unicode hex="00A5"/>
  <outline>
    <contour>
      <point x="202" y="204" type="line"/>
      <point x="251" y="284" type="line" smooth="yes"/>
      <point x="278" y="330"/>
      <point x="289" y="360"/>
      <point x="289" y="389" type="curve" smooth="yes"/>
      <point x="289" y="431"/>
      <point x="267" y="467"/>
      <point x="231" y="494" type="curve"/>
      <point x="284" y="552" type="line"/>
      <point x="320" y="529"/>
      <point x="343" y="485"/>
      <point x="343" y="447" type="curve" smooth="yes"/>
      <point x="343" y="397"/>
      <point x="329" y="359"/>
      <point x="297" y="306" type="curve" smooth="yes"/>
      <point x="190" y="126" type="line"/>
      <point x="1" y="483" type="line"/>
      <point x="65" y="508" type="line"/>
      <point x="219" y="204" type="line"/>
    </contour>
    <contour>
      <point x="231" y="16" type="line"/>
      <point x="164" y="-12" type="line"/>
      <point x="164" y="200" type="line"/>
      <point x="231" y="211" type="line"/>
    </contour>
    <contour>
      <point x="11" y="266" type="line"/>
      <point x="29" y="304" type="line"/>
      <point x="162" y="304" type="line"/>
      <point x="144" y="266" type="line"/>
    </contour>
    <contour>
      <point x="12" y="158" type="line"/>
      <point x="30" y="196" type="line"/>
      <point x="369" y="196" type="line"/>
      <point x="351" y="158" type="line"/>
    </contour>
    <contour>
      <point x="253" y="266" type="line"/>
      <point x="271" y="304" type="line"/>
      <point x="370" y="304" type="line"/>
      <point x="352" y="266" type="line"/>
    </contour>
  </outline>
</glyph>
<glyph name="section" format="1">
  <advance width="353"/>
  <unicode hex="00A7"/>
  <outline>
    <contour>
      <point x="112" y="549"/>
      <point x="50" y="496"/>
      <point x="50" y="423" type="curve" smooth="yes"/>
      <point x="50" y="295"/>
      <point x="251" y="308"/>
      <point x="251" y="217" type="curve" smooth="yes"/>
      <point x="251" y="188"/>
      <point x="228" y="170"/>
      <point x="198" y="170" type="curve"/>
      <point x="176" y="145" type="line"/>
      <point x="238" y="145"/>
      <point x="296" y="181"/>
      <point x="296" y="248" type="curve" smooth="yes"/>
      <point x="296" y="362"/>
      <point x="101" y="332"/>
      <point x="101" y="450" type="curve" smooth="yes"/>
      <point x="101" y="490"/>
      <point x="127" y="519"/>
      <point x="173" y="519" type="curve" smooth="yes"/>
      <point x="224" y="519"/>
      <point x="258" y="479"/>
      <point x="275" y="434" type="curve"/>
      <point x="321" y="485" type="line"/>
      <point x="289" y="526"/>
      <point x="244" y="549"/>
      <point x="195" y="549" type="curve" smooth="yes"/>
    </contour>
    <contour>
      <point x="81" y="339"/>
      <point x="50" y="299"/>
      <point x="50" y="251" type="curve" smooth="yes"/>
      <point x="50" y="120"/>
      <point x="251" y="135"/>
      <point x="251" y="43" type="curve" smooth="yes"/>
      <point x="251" y="14"/>
      <point x="228" y="-4"/>
      <point x="198" y="-4" type="curve" smooth="yes"/>
      <point x="165" y="-4"/>
      <point x="126" y="15"/>
      <point x="103" y="79" type="curve"/>
      <point x="59" y="30" type="line"/>
      <point x="84" y="-12"/>
      <point x="132" y="-28"/>
      <point x="176" y="-28" type="curve" smooth="yes"/>
      <point x="238" y="-28"/>
      <point x="296" y="7"/>
      <point x="296" y="75" type="curve" smooth="yes"/>
      <point x="296" y="188"/>
      <point x="101" y="158"/>
      <point x="101" y="276" type="curve" smooth="yes"/>
      <point x="101" y="306"/>
      <point x="117" y="329"/>
      <point x="142" y="339" type="curve"/>
      <point x="125" y="361" type="line"/>
    </contour>
  </outline>
</glyph>
<glyph name="copyright" format="1">
  <advance width="421"/>
  <unicode hex="00A9"/>
  <outline>
    <contour>
      <point x="119" y="418"/>
      <point x="44" y="343"/>
      <point x="44" y="251" type="curve" smooth="yes"/>
      <point x="44" y="160"/>
      <point x="119" y="85"/>
      <point x="211" y="85" type="curve" smooth="yes"/>
      <point x="302" y="85"/>
      <point x="377" y="160"/>
      <point x="377" y="251" type="curve" smooth="yes"/>
      <point x="377" y="343"/>
      <point x="302" y="418"/>
      <point x="211" y="418" type="curve" smooth="yes"/>
    </contour>
    <contour>
      <point x="170" y="362"/>
      <point x="122" y="300"/>
      <point x="122" y="236" type="curve" smooth="yes"/>
      <point x="122" y="193"/>
      <point x="150" y="151"/>
      <point x="194" y="151" type="curve" smooth="yes"/>
      <point x="227" y="151"/>
      <point x="254" y="171"/>
      <point x="271" y="194" type="curve"/>
      <point x="266" y="199" type="line"/>
      <point x="253" y="185"/>
      <point x="237" y="175"/>
      <point x="218" y="175" type="curve" smooth="yes"/>
      <point x="177" y="175"/>
      <point x="157" y="213"/>
      <point x="157" y="257" type="curve" smooth="yes"/>
      <point x="157" y="292"/>
      <point x="176" y="345"/>
      <point x="217" y="345" type="curve" smooth="yes"/>
      <point x="239" y="345"/>
      <point x="250" y="328"/>
      <point x="250" y="307" type="curve" smooth="yes"/>
      <point x="250" y="289"/>
      <point x="239" y="270"/>
      <point x="223" y="262" type="curve"/>
      <point x="227" y="256" type="line"/>
      <point x="254" y="265"/>
      <point x="281" y="294"/>
      <point x="281" y="324" type="curve" smooth="yes"/>
      <point x="281" y="348"/>
      <point x="263" y="362"/>
      <point x="239" y="362" type="curve" smooth="yes"/>
    </contour>
    <contour>
      <point x="293" y="401"/>
      <point x="361" y="334"/>
      <point x="361" y="251" type="curve" smooth="yes"/>
      <point x="361" y="169"/>
      <point x="293" y="102"/>
      <point x="211" y="102" type="curve" smooth="yes"/>
      <point x="128" y="102"/>
      <point x="61" y="169"/>
      <point x="61" y="251" type="curve" smooth="yes"/>
      <point x="61" y="334"/>
      <point x="128" y="401"/>
      <point x="211" y="401" type="curve" smooth="yes"/>
    </contour>
  </outline>
</glyph>
<glyph name="ordfeminine" format="1">
  <advance width="304"/>
  <unicode hex="00AA"/>
  <outline>
    <contour>
      <point x="259" y="231" type="line"/>
      <point x="242" y="183" type="line"/>
      <point x="40" y="183" type="line"/>
      <point x="57" y="231" type="line"/>
    </contour>
    <component base="a" xOffset="23" yOffset="291" xScale="0.8" yScale="0.8"/>
  </outline>
</glyph>
<glyph name="macron" format="1">
  <advance width="180"/>
  <unicode hex="00AF"/>
  <outline>
    <contour>
      <point x="1" y="372" type="line"/>
      <point x="27" y="421" type="line"/>
      <point x="180" y="421" type="line"/>
      <point x="155" y="372" type="line"/>
    </contour>
    <contour>
      <point x="90" y="300" type="move" name="_top"/>
    </contour>
  </outline>
</glyph>
<glyph name="degree" format="1">
  <advance width="281"/>
  <unicode hex="00B0"/>
  <outline>
    <contour>
      <point x="81" y="543"/>
      <point x="37" y="497"/>
      <point x="37" y="441" type="curve" smooth="yes"/>
      <point x="37" y="384"/>
      <point x="83" y="339"/>
      <point x="140" y="339" type="curve" smooth="yes"/>
      <point x="200" y="339"/>
      <point x="246" y="384"/>
      <point x="246" y="441" type="curve" smooth="yes"/>
      <point x="246" y="497"/>
      <point x="198" y="543"/>
      <point x="140" y="543" type="curve" smooth="yes"/>
    </contour>
    <contour>
      <point x="164" y="513"/>
      <point x="192" y="451"/>
      <point x="192" y="415" type="curve" smooth="yes"/>
      <point x="192" y="393"/>
      <point x="184" y="370"/>
      <point x="159" y="370" type="curve" smooth="yes"/>
      <point x="118" y="370"/>
      <point x="89" y="431"/>
      <point x="89" y="468" type="curve" smooth="yes"/>
      <point x="89" y="490"/>
      <point x="98" y="513"/>
      <point x="122" y="513" type="curve" smooth="yes"/>
    </contour>
  </outline>
</glyph>
<glyph name="threesuperior" format="1">
  <advance width="229"/>
  <unicode hex="00B3"/>
  <outline>
    <contour>
      <point x="99" y="384" type="line"/>
      <point x="105" y="386"/>
      <point x="116" y="387"/>
      <point x="124" y="387" type="curve" smooth="yes"/>
      <point x="168" y="387"/>
      <point x="205" y="359"/>
      <point x="205" y="315" type="curve" smooth="yes"/>
      <point x="205" y="237"/>
      <point x="95" y="207"/>
      <point x="27" y="207" type="curve"/>
      <point x="25" y="220" type="line"/>
      <point x="73" y="226"/>
      <point x="146" y="258"/>
      <point x="146" y="314" type="curve" smooth="yes"/>
      <point x="146" y="347"/>
      <point x="121" y="367"/>
      <point x="90" y="367" type="curve" smooth="yes"/>
      <point x="74" y="367"/>
      <point x="56" y="362"/>
      <point x="40" y="355" type="curve"/>
      <point x="34" y="368" type="line"/>
      <point x="66" y="383"/>
      <point x="115" y="413"/>
      <point x="115" y="453" type="curve" smooth="yes"/>
      <point x="115" y="473"/>
      <point x="104" y="480"/>
      <point x="88" y="480" type="curve" smooth="yes"/>
      <point x="69" y="480"/>
      <point x="43" y="465"/>
      <point x="29" y="449" type="curve"/>
      <point x="19" y="459" type="line"/>
      <point x="47" y="495"/>
      <point x="89" y="513"/>
      <point x="122" y="513" type="curve" smooth="yes"/>
      <point x="153" y="513"/>
      <point x="177" y="498"/>
      <point x="177" y="469" type="curve" smooth="yes"/>
      <point x="177" y="432"/>
      <point x="129" y="402"/>
      <point x="98" y="386" type="curve"/>
    </contour>
  </outline>
</glyph>
<glyph name="acute" format="1">
  <advance width="132"/>
  <unicode hex="00B4"/>
  <outline>
    <contour>
      <point x="11" y="326" type="line"/>
      <point x="1" y="341" type="line"/>
      <point x="90" y="443" type="line"/>
      <point x="133" y="389" type="line"/>
    </contour>
    <contour>
      <point x="65" y="300" type="move" name="_top"/>
    </contour>
  </outline>
</glyph>
<glyph name="mu" format="1">
  <advance width="373"/>
  <unicode hex="00B5"/>
  <outline>
    <contour>
      <point x="236" y="263" type="line"/>
      <point x="222" y="179"/>
      <point x="188" y="56"/>
      <point x="150" y="56" type="curve" smooth="yes"/>
      <point x="144" y="56"/>
      <point x="140" y="61"/>
      <point x="140" y="76" type="curve" smooth="yes"/>
      <point x="140" y="226" type="line" smooth="yes"/>
      <point x="140" y="266"/>
      <point x="114" y="283"/>
      <point x="91" y="283" type="curve" smooth="yes"/>
      <point x="70" y="283"/>
      <point x="40" y="269"/>
      <point x="22" y="237" type="curve"/>
      <point x="32" y="227" type="line"/>
      <point x="42" y="241"/>
      <point x="53" y="248"/>
      <point x="60" y="248" type="curve" smooth="yes"/>
      <point x="70" y="248"/>
      <point x="77" y="240"/>
      <point x="77" y="227" type="curve" smooth="yes"/>
      <point x="77" y="-135" type="line"/>
      <point x="140" y="-108" type="line"/>
      <point x="140" y="-4" type="line"/>
      <point x="200" y="22"/>
      <point x="226" y="131"/>
      <point x="236" y="177" type="curve"/>
      <point x="238" y="177" type="line"/>
      <point x="238" y="50" type="line" smooth="yes"/>
      <point x="237" y="12"/>
      <point x="261" y="-4"/>
      <point x="285" y="-4" type="curve" smooth="yes"/>
      <point x="308" y="-4"/>
      <point x="336" y="10"/>
      <point x="353" y="43" type="curve"/>
      <point x="344" y="53" type="line"/>
      <point x="334" y="38"/>
      <point x="323" y="32"/>
      <point x="315" y="32" type="curve" smooth="yes"/>
      <point x="307" y="32"/>
      <point x="299" y="39"/>
      <point x="299" y="51" type="curve" smooth="yes"/>
      <point x="299" y="287" type="line"/>
    </contour>
  </outline>
</glyph>
<glyph name="Eth" format="1">
  <advance width="490"/>
  <unicode hex="00D0"/>
  <outline>
    <contour>
      <point x="7" y="271" type="line"/>
      <point x="-8" y="235" type="line"/>
      <point x="241" y="235" type="line"/>
      <point x="256" y="271" type="line"/>
    </contour>
    <component base="D"/>
  </outline>
</glyph>
<glyph name="Oslash" format="1">
  <advance width="528"/>
  <unicode hex="00D8"/>
  <outline>
    <component base="O"/>
    <component base="slash" xOffset="55"/>
    <contour>
      <point x="265" y="538" type="move" name="top"/>
    </contour>
  </outline>
</glyph>
<glyph name="Thorn" format="1">
  <advance width="449"/>
  <unicode hex="00DE"/>
  <outline>
    <contour>
      <point x="190" y="454"/>
      <point x="89" y="404"/>
      <point x="21" y="341" type="curve"/>
      <point x="35" y="325" type="line"/>
      <point x="90" y="376"/>
      <point x="171" y="411"/>
      <point x="238" y="411" type="curve" smooth="yes"/>
      <point x="328" y="411"/>
      <point x="369" y="360"/>
      <point x="369" y="291" type="curve" smooth="yes"/>
      <point x="369" y="185"/>
      <point x="263" y="114"/>
      <point x="168" y="103" type="curve"/>
      <point x="164" y="83" type="line"/>
      <point x="166" y="82"/>
      <point x="170" y="82"/>
      <point x="173" y="82" type="curve" smooth="yes"/>
      <point x="298" y="82"/>
      <point x="439" y="181"/>
      <point x="439" y="305" type="curve" smooth="yes"/>
      <point x="439" y="409"/>
      <point x="368" y="454"/>
      <point x="282" y="454" type="curve"/>
    </contour>
    <contour>
      <point x="66" y="504" type="line"/>
      <point x="66" y="-28" type="line"/>
      <point x="133" y="-3" type="line"/>
      <point x="133" y="530" type="line"/>
    </contour>
  </outline>
</glyph>
<glyph name="germandbls" format="1">
  <advance width="365"/>
  <unicode hex="00DF"/>
  <outline>
    <contour>
      <point x="53" y="521"/>
      <point x="53" y="359"/>
      <point x="53" y="267" type="curve"/>
      <point x="34" y="267" type="line"/>
      <point x="18" y="232" type="line"/>
      <point x="53" y="232" type="line"/>
      <point x="53" y="-103" type="line"/>
      <point x="117" y="-75" type="line"/>
      <point x="117" y="419" type="line" smooth="yes"/>
      <point x="117" y="452"/>
      <point x="123" y="496"/>
      <point x="169" y="496" type="curve" smooth="yes"/>
      <point x="199" y="496"/>
      <point x="221" y="468"/>
      <point x="221" y="441" type="curve" smooth="yes"/>
      <point x="221" y="393"/>
      <point x="175" y="336"/>
      <point x="175" y="294" type="curve" smooth="yes"/>
      <point x="175" y="156"/>
      <point x="312" y="137"/>
      <point x="312" y="78" type="curve" smooth="yes"/>
      <point x="312" y="49"/>
      <point x="289" y="28"/>
      <point x="257" y="28" type="curve" smooth="yes"/>
      <point x="233" y="28"/>
      <point x="209" y="54"/>
      <point x="198" y="72" type="curve"/>
      <point x="152" y="19" type="line"/>
      <point x="171" y="-3"/>
      <point x="208" y="-10"/>
      <point x="232" y="-10" type="curve" smooth="yes"/>
      <point x="294" y="-10"/>
      <point x="342" y="37"/>
      <point x="342" y="97" type="curve" smooth="yes"/>
      <point x="342" y="197"/>
      <point x="210" y="211"/>
      <point x="210" y="296" type="curve" smooth="yes"/>
      <point x="210" y="352"/>
      <point x="270" y="387"/>
      <point x="270" y="442" type="curve" smooth="yes"/>
      <point x="270" y="493"/>
      <point x="234" y="521"/>
      <point x="186" y="521" type="curve" smooth="yes"/>
    </contour>
  </outline>
</glyph>
<glyph name="ae" format="1">
  <advance width="475"/>
  <unicode hex="00E6"/>
  <outline>
    <contour>
      <point x="281" y="284"/>
      <point x="203" y="204"/>
      <point x="203" y="117" type="curve" smooth="yes"/>
      <point x="203" y="48"/>
      <point x="254" y="-7"/>
      <point x="325" y="-7" type="curve" smooth="yes"/>
      <point x="380" y="-7"/>
      <point x="429" y="27"/>
      <point x="462" y="70" type="curve"/>
      <point x="451" y="82" type="line"/>
      <point x="428" y="60"/>
      <point x="392" y="31"/>
      <point x="357" y="31" type="curve" smooth="yes"/>
      <point x="331" y="31"/>
      <point x="306" y="46"/>
      <point x="289" y="68" type="curve"/>
      <point x="336" y="89"/>
      <point x="442" y="166"/>
      <point x="442" y="220" type="curve" smooth="yes"/>
      <point x="442" y="265"/>
      <point x="408" y="284"/>
      <point x="368" y="284" type="curve" smooth="yes"/>
    </contour>
    <contour>
      <point x="362" y="249"/>
      <point x="376" y="235"/>
      <point x="376" y="207" type="curve" smooth="yes"/>
      <point x="376" y="165"/>
      <point x="316" y="106"/>
      <point x="277" y="86" type="curve"/>
      <point x="267" y="101"/>
      <point x="261" y="122"/>
      <point x="261" y="143" type="curve" smooth="yes"/>
      <point x="261" y="193"/>
      <point x="292" y="249"/>
      <point x="337" y="249" type="curve" smooth="yes"/>
    </contour>
    <contour>
      <point x="179" y="243"/>
      <point x="204" y="230"/>
      <point x="204" y="195" type="curve" smooth="yes"/>
      <point x="204" y="107"/>
      <point x="191" y="34"/>
      <point x="140" y="34" type="curve" smooth="yes"/>
      <point x="94" y="34"/>
      <point x="79" y="96"/>
      <point x="79" y="133" type="curve" smooth="yes"/>
      <point x="79" y="194"/>
      <point x="111" y="243"/>
      <point x="162" y="243" type="curve" smooth="yes"/>
    </contour>
    <contour>
      <point x="84" y="279"/>
      <point x="23" y="194"/>
      <point x="23" y="105" type="curve" smooth="yes"/>
      <point x="23" y="44"/>
      <point x="56" y="-7"/>
      <point x="119" y="-7" type="curve" smooth="yes"/>
      <point x="165" y="-7"/>
      <point x="204" y="24"/>
      <point x="218" y="96" type="curve"/>
      <point x="278" y="228" type="line"/>
      <point x="258" y="255"/>
      <point x="212" y="279"/>
      <point x="174" y="279" type="curve" smooth="yes"/>
    </contour>
    <contour>
      <point x="236" y="300" type="move" name="top"/>
    </contour>
  </outline>
</glyph>
<glyph name="eth" format="1">
  <advance width="327"/>
  <unicode hex="00F0"/>
  <outline>
    <contour>
      <point x="51" y="476" type="line"/>
      <point x="164" y="410"/>
      <point x="235" y="295"/>
      <point x="235" y="165" type="curve" smooth="yes"/>
      <point x="235" y="91"/>
      <point x="199" y="26"/>
      <point x="141" y="26" type="curve" smooth="yes"/>
      <point x="89" y="26"/>
      <point x="64" y="65"/>
      <point x="64" y="109" type="curve" smooth="yes"/>
      <point x="64" y="160"/>
      <point x="113" y="241"/>
      <point x="209" y="240" type="curve"/>
      <point x="192" y="259"/>
      <point x="170" y="274"/>
      <point x="148" y="290" type="curve"/>
      <point x="78" y="282"/>
      <point x="21" y="217"/>
      <point x="21" y="149" type="curve" smooth="yes"/>
      <point x="21" y="48"/>
      <point x="81" y="-8"/>
      <point x="154" y="-8" type="curve" smooth="yes"/>
      <point x="233" y="-8"/>
      <point x="298" y="71"/>
      <point x="298" y="156" type="curve" smooth="yes"/>
      <point x="298" y="316"/>
      <point x="202" y="436"/>
      <point x="61" y="488" type="curve"/>
    </contour>
    <contour>
      <point x="73" y="382" type="line"/>
      <point x="73" y="344" type="line"/>
      <point x="266" y="414" type="line"/>
      <point x="266" y="453" type="line"/>
    </contour>
  </outline>
</glyph>
<glyph name="oslash" format="1">
  <advance width="311"/>
  <unicode hex="00F8"/>
  <outline>
    <component base="o"/>
    <component base="slash" xScale="0" yScale="0"/>
    <contour>
      <point x="155" y="300" type="move" name="top"/>
    </contour>
  </outline>
</glyph>
<glyph name="dcroat" format="1">
  <advance width="331"/>
  <unicode hex="0111"/>
  <outline>
    <contour>
      <point x="148" y="366" type="line"/>
      <point x="133" y="329" type="line"/>
      <point x="306" y="329" type="line"/>
      <point x="321" y="366" type="line"/>
    </contour>
    <component base="d"/>
  </outline>
</glyph>
<glyph name="Hbar" format="1">
  <advance width="478"/>
  <unicode hex="0126"/>
  <outline>
    <contour>
      <point x="17" y="302" type="line"/>
      <point x="35" y="342" type="line"/>
      <point x="452" y="342" type="line"/>
      <point x="434" y="302" type="line"/>
    </contour>
    <component base="H"/>
  </outline>
</glyph>
<glyph name="hbar" format="1">
  <advance width="323"/>
  <unicode hex="0127"/>
  <outline>
    <contour>
      <point x="9" y="366" type="line"/>
      <point x="-6" y="329" type="line"/>
      <point x="161" y="329" type="line"/>
      <point x="175" y="366" type="line"/>
    </contour>
    <component base="h"/>
  </outline>
</glyph>
<glyph name="dotlessi" format="1">
  <advance width="172"/>
  <unicode hex="0131"/>
  <outline>
    <contour>
      <point x="47" y="257" type="line"/>
      <point x="47" y="54" type="line" smooth="yes"/>
      <point x="47" y="14"/>
      <point x="63" y="-4"/>
      <point x="96" y="-4" type="curve" smooth="yes"/>
      <point x="117" y="-4"/>
      <point x="146" y="10"/>
      <point x="164" y="42" type="curve"/>
      <point x="154" y="52" type="line"/>
      <point x="144" y="38"/>
      <point x="134" y="32"/>
      <point x="125" y="32" type="curve" smooth="yes"/>
      <point x="116" y="32"/>
      <point x="110" y="39"/>
      <point x="110" y="51" type="curve" smooth="yes"/>
      <point x="110" y="279" type="line"/>
    </contour>
    <contour>
      <point x="162" y="4" type="move" name="ogonek"/>
    </contour>
    <contour>
      <point x="76" y="300" type="move" name="top"/>
    </contour>
  </outline>
</glyph>
<glyph name="kgreenlandic" format="1">
  <advance width="318"/>
  <unicode hex="0138"/>
  <outline>
    <contour>
      <point x="46" y="-8" type="line"/>
      <point x="108" y="8" type="line"/>
      <point x="110" y="27"/>
      <point x="113" y="69"/>
      <point x="118" y="88" type="curve"/>
      <point x="123" y="88" type="line"/>
      <point x="149" y="64"/>
      <point x="198" y="-6"/>
      <point x="235" y="-6" type="curve" smooth="yes"/>
      <point x="263" y="-6"/>
      <point x="294" y="14"/>
      <point x="308" y="39" type="curve"/>
      <point x="295" y="50" type="line"/>
      <point x="288" y="40"/>
      <point x="276" y="33"/>
      <point x="262" y="33" type="curve" smooth="yes"/>
      <point x="231" y="33"/>
      <point x="192" y="96"/>
      <point x="173" y="110" type="curve"/>
      <point x="216" y="133"/>
      <point x="279" y="180"/>
      <point x="279" y="236" type="curve" smooth="yes"/>
      <point x="279" y="262"/>
      <point x="261" y="284"/>
      <point x="235" y="284" type="curve" smooth="yes"/>
      <point x="168" y="284"/>
      <point x="129" y="181"/>
      <point x="113" y="120" type="curve"/>
      <point x="109" y="120" type="line"/>
      <point x="109" y="292" type="line"/>
      <point x="46" y="269" type="line"/>
    </contour>
    <contour>
      <point x="208" y="226"/>
      <point x="213" y="216"/>
      <point x="213" y="210" type="curve" smooth="yes"/>
      <point x="213" y="186"/>
      <point x="143" y="123"/>
      <point x="126" y="111" type="curve"/>
      <point x="132" y="128"/>
      <point x="164" y="226"/>
      <point x="196" y="226" type="curve" smooth="yes"/>
    </contour>
  </outline>
</glyph>
<glyph name="Eng" format="1">
  <advance width="413"/>
  <unicode hex="014A"/>
  <outline>
    <contour>
      <point x="72" y="506" type="line"/>
      <point x="72" y="-9" type="line"/>
      <point x="139" y="17" type="line"/>
      <point x="139" y="260" type="line" smooth="yes"/>
      <point x="139" y="326"/>
      <point x="169" y="491"/>
      <point x="255" y="491" type="curve" smooth="yes"/>
      <point x="302" y="491"/>
      <point x="303" y="433"/>
      <point x="303" y="398" type="curve" smooth="yes"/>
      <point x="303" y="-22" type="line"/>
      <point x="303" y="-56"/>
      <point x="293" y="-113"/>
      <point x="242" y="-113" type="curve" smooth="yes"/>
      <point x="208" y="-113"/>
      <point x="171" y="-82"/>
      <point x="156" y="-55" type="curve"/>
      <point x="99" y="-107" type="line"/>
      <point x="130" y="-131"/>
      <point x="172" y="-145"/>
      <point x="208" y="-145" type="curve" smooth="yes"/>
      <point x="316" y="-145"/>
      <point x="371" y="-59"/>
      <point x="371" y="34" type="curve"/>
      <point x="371" y="427" type="line" smooth="yes"/>
      <point x="371" y="481"/>
      <point x="345" y="530"/>
      <point x="285" y="530" type="curve" smooth="yes"/>
      <point x="201" y="530"/>
      <point x="157" y="461"/>
      <point x="139" y="391" type="curve"/>
      <point x="139" y="531" type="line"/>
    </contour>
  </outline>
</glyph>
<glyph name="eng" format="1">
  <advance width="334"/>
  <unicode hex="014B"/>
  <outline>
    <contour>
      <point x="180" y="284"/>
      <point x="139" y="172"/>
      <point x="124" y="111" type="curve"/>
      <point x="123" y="111" type="line"/>
      <point x="123" y="231" type="line"/>
      <point x="123" y="263"/>
      <point x="108" y="284"/>
      <point x="71" y="284" type="curve" smooth="yes"/>
      <point x="44" y="284"/>
      <point x="19" y="263"/>
      <point x="8" y="237" type="curve"/>
      <point x="18" y="226" type="line"/>
      <point x="24" y="236"/>
      <point x="34" y="248"/>
      <point x="46" y="248" type="curve" smooth="yes"/>
      <point x="56" y="248"/>
      <point x="62" y="238"/>
      <point x="62" y="228" type="curve" smooth="yes"/>
      <point x="62" y="-8" type="line"/>
      <point x="122" y="8" type="line"/>
      <point x="122" y="49"/>
      <point x="169" y="221"/>
      <point x="212" y="221" type="curve" smooth="yes"/>
      <point x="221" y="221"/>
      <point x="223" y="207"/>
      <point x="223" y="201" type="curve" smooth="yes"/>
      <point x="223" y="29" type="line" smooth="yes"/>
      <point x="223" y="-63"/>
      <point x="222" y="-118"/>
      <point x="162" y="-118" type="curve" smooth="yes"/>
      <point x="147" y="-118"/>
      <point x="128" y="-114"/>
      <point x="108" y="-97" type="curve"/>
      <point x="68" y="-148" type="line"/>
      <point x="84" y="-160"/>
      <point x="100" y="-164"/>
      <point x="116" y="-164" type="curve" smooth="yes"/>
      <point x="207" y="-164"/>
      <point x="284" y="-61"/>
      <point x="284" y="30" type="curve"/>
      <point x="284" y="205" type="line" smooth="yes"/>
      <point x="284" y="239"/>
      <point x="284" y="284"/>
      <point x="242" y="284" type="curve"/>
    </contour>
  </outline>
</glyph>
<glyph name="tbar" format="1">
  <advance width="193"/>
  <unicode hex="0167"/>
  <outline>
    <contour>
      <point x="23" y="173" type="line"/>
      <point x="8" y="146" type="line"/>
      <point x="171" y="146" type="line"/>
      <point x="184" y="173" type="line"/>
    </contour>
    <component base="t"/>
  </outline>
</glyph>
<glyph name="caron" format="1">
  <advance width="203"/>
  <unicode hex="02C7"/>
  <outline>
    <contour>
      <point x="5" y="421" type="line"/>
      <point x="105" y="330" type="line"/>
      <point x="199" y="437" type="line"/>
      <point x="179" y="454" type="line"/>
      <point x="123" y="390" type="line"/>
      <point x="43" y="462" type="line"/>
    </contour>
    <contour>
      <point x="102" y="300" type="move" name="_top"/>
    </contour>
  </outline>
</glyph>
<glyph name="tilde" format="1">
  <advance width="166"/>
  <unicode hex="02DC"/>
  <outline>
    <contour>
      <point x="128" y="441" type="line"/>
      <point x="132" y="435"/>
      <point x="133" y="429"/>
      <point x="133" y="424" type="curve" smooth="yes"/>
      <point x="133" y="410"/>
      <point x="128" y="402"/>
      <point x="119" y="402" type="curve" smooth="yes"/>
      <point x="99" y="402"/>
      <point x="88" y="442"/>
      <point x="52" y="442" type="curve" smooth="yes"/>
      <point x="19" y="442"/>
      <point x="1" y="419"/>
      <point x="1" y="389" type="curve" smooth="yes"/>
      <point x="1" y="379"/>
      <point x="4" y="362"/>
      <point x="17" y="346" type="curve"/>
      <point x="38" y="353" type="line"/>
      <point x="35" y="359"/>
      <point x="34" y="365"/>
      <point x="34" y="371" type="curve" smooth="yes"/>
      <point x="34" y="385"/>
      <point x="39" y="392"/>
      <point x="47" y="392" type="curve" smooth="yes"/>
      <point x="67" y="392"/>
      <point x="78" y="352"/>
      <point x="115" y="352" type="curve" smooth="yes"/>
      <point x="147" y="352"/>
      <point x="165" y="375"/>
      <point x="165" y="405" type="curve" smooth="yes"/>
      <point x="165" y="415"/>
      <point x="163" y="432"/>
      <point x="150" y="448" type="curve"/>
    </contour>
    <contour>
      <point x="82" y="300" type="move" name="_top"/>
    </contour>
  </outline>
</glyph>
<glyph name="Omega" format="1">
  <advance width="683"/>
  <unicode hex="03A9"/>
  <outline>
    <contour>
      <point x="206" y="531"/>
      <point x="75" y="451"/>
      <point x="75" y="276" type="curve" smooth="yes"/>
      <point x="75" y="176"/>
      <point x="150" y="83"/>
      <point x="220" y="55" type="curve"/>
      <point x="71" y="55" type="line"/>
      <point x="47" y="0" type="line"/>
      <point x="294" y="0" type="line"/>
      <point x="294" y="51" type="line"/>
      <point x="232" y="83"/>
      <point x="155" y="169"/>
      <point x="155" y="277" type="curve" smooth="yes"/>
      <point x="155" y="421"/>
      <point x="235" y="495"/>
      <point x="342" y="495" type="curve"/>
      <point x="450" y="495"/>
      <point x="529" y="421"/>
      <point x="529" y="277" type="curve" smooth="yes"/>
      <point x="529" y="169"/>
      <point x="452" y="83"/>
      <point x="390" y="51" type="curve"/>
      <point x="390" y="0" type="line"/>
      <point x="637" y="0" type="line"/>
      <point x="613" y="55" type="line"/>
      <point x="464" y="55" type="line"/>
      <point x="534" y="83"/>
      <point x="609" y="176"/>
      <point x="609" y="276" type="curve" smooth="yes"/>
      <point x="609" y="451"/>
      <point x="479" y="531"/>
      <point x="342" y="531" type="curve"/>
    </contour>
  </outline>
</glyph>
<glyph name="pi" format="1">
  <advance width="362"/>
  <unicode hex="03C0"/>
  <outline>
    <contour>
      <point x="343" y="52" type="line"/>
      <point x="334" y="38"/>
      <point x="323" y="32"/>
      <point x="315" y="32" type="curve" smooth="yes"/>
      <point x="306" y="32"/>
      <point x="300" y="39"/>
      <point x="300" y="51" type="curve" smooth="yes"/>
      <point x="300" y="290" type="line"/>
      <point x="237" y="269" type="line"/>
      <point x="42" y="269" type="line"/>
      <point x="27" y="233" type="line"/>
      <point x="63" y="233" type="line"/>
      <point x="63" y="-15" type="line"/>
      <point x="126" y="0" type="line"/>
      <point x="126" y="233" type="line"/>
      <point x="237" y="233" type="line"/>
      <point x="237" y="54" type="line" smooth="yes"/>
      <point x="237" y="14"/>
      <point x="261" y="-4"/>
      <point x="287" y="-4" type="curve" smooth="yes"/>
      <point x="309" y="-4"/>
      <point x="336" y="10"/>
      <point x="353" y="42" type="curve"/>
    </contour>
  </outline>
</glyph>
<glyph name="visarga-deva" format="1">
  <advance width="268"/>
  <unicode hex="0903"/>
  <outline>
    <contour>
      <point x="133" y="63" type="line"/>
      <point x="194" y="118" type="line"/>
      <point x="134" y="172" type="line"/>
      <point x="74" y="118" type="line"/>
    </contour>
    <contour>
      <point x="194" y="303" type="line"/>
      <point x="134" y="358" type="line"/>
      <point x="74" y="303" type="line"/>
      <point x="134" y="249" type="line"/>
    </contour>
  </outline>
</glyph>
<glyph name="aa-deva" format="1">
  <advance width="771"/>
  <unicode hex="0906"/>
  <outline>
    <component base="a-deva"/>
    <component base="aaMatra-deva" xOffset="563"/>
    <contour>
      <point x="78" y="0" type="move" name="nukta"/>
    </contour>
    <contour>
      <point x="674" y="0" type="move" name="bottom"/>
    </contour>
    <contour>
      <point x="656" y="500" type="move" name="top"/>
    </contour>
  </outline>
</glyph>
<glyph name="i-deva" format="1">
  <advance width="361"/>
  <unicode hex="0907"/>
  <outline>
    <contour>
      <point x="220" y="442" type="line"/>
      <point x="234" y="428"/>
      <point x="244" y="411"/>
      <point x="244" y="397" type="curve" smooth="yes"/>
      <point x="244" y="383"/>
      <point x="231" y="373"/>
      <point x="215" y="373" type="curve" smooth="yes"/>
      <point x="120" y="373" type="line" smooth="yes"/>
      <point x="79" y="373"/>
      <point x="32" y="336"/>
      <point x="32" y="297" type="curve" smooth="yes"/>
      <point x="32" y="253"/>
      <point x="101" y="186"/>
      <point x="161" y="186" type="curve" smooth="yes"/>
      <point x="203" y="186"/>
      <point x="238" y="228"/>
      <point x="258" y="228" type="curve" smooth="yes"/>
      <point x="275" y="228"/>
      <point x="292" y="211"/>
      <point x="292" y="190" type="curve" smooth="yes"/>
      <point x="292" y="145"/>
      <point x="211" y="90"/>
      <point x="152" y="90" type="curve"/>
      <point x="125" y="118"/>
      <point x="99" y="135"/>
      <point x="76" y="135" type="curve" smooth="yes"/>
      <point x="56" y="135"/>
      <point x="38" y="121"/>
      <point x="38" y="103" type="curve" smooth="yes"/>
      <point x="38" y="65"/>
      <point x="89" y="33"/>
      <point x="153" y="33" type="curve"/>
      <point x="220" y="-44"/>
      <point x="295" y="-88"/>
      <point x="359" y="-88" type="curve" smooth="yes"/>
      <point x="378" y="-88"/>
      <point x="398" y="-81"/>
      <point x="413" y="-67" type="curve"/>
      <point x="365" y="-24" type="line"/>
      <point x="352" y="-39"/>
      <point x="334" y="-45"/>
      <point x="317" y="-45" type="curve" smooth="yes"/>
      <point x="275" y="-45"/>
      <point x="223" y="-15"/>
      <point x="178" y="37" type="curve"/>
      <point x="266" y="52"/>
      <point x="332" y="104"/>
      <point x="332" y="159" type="curve" smooth="yes"/>
      <point x="332" y="208"/>
      <point x="282" y="268"/>
      <point x="232" y="268" type="curve" smooth="yes"/>
      <point x="200" y="268"/>
      <point x="167" y="225"/>
      <point x="130" y="225" type="curve" smooth="yes"/>
      <point x="103" y="225"/>
      <point x="80" y="243"/>
      <point x="80" y="266" type="curve" smooth="yes"/>
      <point x="80" y="293"/>
      <point x="116" y="321"/>
      <point x="153" y="322" type="curve" smooth="yes"/>
      <point x="246" y="323" type="line" smooth="yes"/>
      <point x="269" y="323"/>
      <point x="287" y="340"/>
      <point x="287" y="362" type="curve" smooth="yes"/>
      <point x="287" y="387"/>
      <point x="274" y="415"/>
      <point x="251" y="442" type="curve"/>
      <point x="193" y="500" type="line"/>
      <point x="-10" y="500" type="line"/>
      <point x="-10" y="442" type="line"/>
    </contour>
    <contour>
      <point x="371" y="442" type="line"/>
      <point x="371" y="500" type="line"/>
      <point x="226" y="500" type="line"/>
      <point x="284" y="442" type="line"/>
    </contour>
    <contour>
      <point x="210" y="500" type="move" name="top"/>
    </contour>
  </outline>
</glyph>
<glyph name="rVocalic-deva" format="1">
  <advance width="598"/>
  <unicode hex="090B"/>
  <outline>
    <contour>
      <point x="-10" y="500" type="line"/>
      <point x="-10" y="442" type="line"/>
      <point x="262" y="442" type="line"/>
      <point x="262" y="299" type="line"/>
      <point x="216" y="355"/>
      <point x="168" y="387"/>
      <point x="127" y="387" type="curve" smooth="yes"/>
      <point x="83" y="387"/>
      <point x="40" y="370"/>
      <point x="11" y="340" type="curve"/>
      <point x="51" y="286" type="line"/>
      <point x="84" y="319"/>
      <point x="125" y="338"/>
      <point x="161" y="338" type="curve" smooth="yes"/>
      <point x="186" y="338"/>
      <point x="221" y="315"/>
      <point x="252" y="276" type="curve"/>
      <point x="210" y="227"/>
      <point x="153" y="191"/>
      <point x="81" y="168" type="curve"/>
      <point x="137" y="120" type="line"/>
      <point x="187" y="142"/>
      <point x="229" y="171"/>
      <point x="262" y="204" type="curve"/>
      <point x="262" y="120" type="line" smooth="yes"/>
      <point x="262" y="62"/>
      <point x="412" y="-44"/>
      <point x="500" y="-44" type="curve" smooth="yes"/>
      <point x="516" y="-44"/>
      <point x="532" y="-36"/>
      <point x="546" y="-22" type="curve"/>
      <point x="492" y="12" type="line"/>
      <point x="482" y="-2"/>
      <point x="468" y="-9"/>
      <point x="455" y="-9" type="curve" smooth="yes"/>
      <point x="410" y="-9"/>
      <point x="322" y="48"/>
      <point x="322" y="81" type="curve" smooth="yes"/>
      <point x="322" y="263" type="line"/>
      <point x="353" y="240"/>
      <point x="386" y="228"/>
      <point x="421" y="228" type="curve" smooth="yes"/>
      <point x="438" y="228"/>
      <point x="452" y="230"/>
      <point x="462" y="234" type="curve"/>
      <point x="497" y="204"/>
      <point x="517" y="176"/>
      <point x="517" y="159" type="curve" smooth="yes"/>
      <point x="517" y="128"/>
      <point x="490" y="101"/>
      <point x="459" y="101" type="curve" smooth="yes"/>
      <point x="441" y="101"/>
      <point x="420" y="112"/>
      <point x="404" y="128" type="curve"/>
      <point x="389" y="112" type="line"/>
      <point x="421" y="78"/>
      <point x="462" y="55"/>
      <point x="497" y="55" type="curve" smooth="yes"/>
      <point x="534" y="55"/>
      <point x="570" y="91"/>
      <point x="570" y="130" type="curve" smooth="yes"/>
      <point x="570" y="159"/>
      <point x="541" y="195"/>
      <point x="486" y="245" type="curve"/>
      <point x="514" y="258"/>
      <point x="535" y="281"/>
      <point x="535" y="299" type="curve" smooth="yes"/>
      <point x="535" y="331"/>
      <point x="490" y="373"/>
      <point x="454" y="373" type="curve" smooth="yes"/>
      <point x="432" y="373"/>
      <point x="413" y="355"/>
      <point x="413" y="333" type="curve" smooth="yes"/>
      <point x="413" y="316"/>
      <point x="419" y="300"/>
      <point x="433" y="284" type="curve"/>
      <point x="418" y="275"/>
      <point x="401" y="270"/>
      <point x="386" y="270" type="curve" smooth="yes"/>
      <point x="361" y="270"/>
      <point x="338" y="277"/>
      <point x="322" y="293" type="curve"/>
      <point x="322" y="442" type="line"/>
      <point x="264" y="500" type="line"/>
    </contour>
    <contour>
      <point x="297" y="500" type="line"/>
      <point x="355" y="442" type="line"/>
      <point x="608" y="442" type="line"/>
      <point x="608" y="500" type="line"/>
    </contour>
    <contour>
      <point x="281" y="500" type="move" name="top"/>
    </contour>
    <contour>
      <point x="292" y="0" type="move" name="bottom"/>
    </contour>
  </outline>
</glyph>
<glyph name="eCandra-deva" format="1">
  <advance width="399"/>
  <unicode hex="090D"/>
  <outline>
    <component base="e-deva"/>
    <component base="eCandraMatra-deva" xOffset="380" yOffset="3"/>
    <contour>
      <point x="268" y="500" type="move" name="top"/>
    </contour>
  </outline>
</glyph>
<glyph name="eShort-deva" format="1">
  <advance width="399"/>
  <unicode hex="090E"/>
  <outline>
    <component base="e-deva"/>
    <component base="eShortMatra-deva" xOffset="380"/>
    <contour>
      <point x="267" y="500" type="move" name="top"/>
    </contour>
  </outline>
</glyph>
<glyph name="o-deva" format="1">
  <advance width="771"/>
  <unicode hex="0913"/>
  <outline>
    <component base="aa-deva"/>
    <component base="eMatra-deva" xOffset="769"/>
    <contour>
      <point x="656" y="500" type="move" name="top"/>
    </contour>
  </outline>
</glyph>
<glyph name="ka-deva" format="1">
  <advance width="533"/>
  <unicode hex="0915"/>
  <outline>
    <contour>
      <point x="-10" y="500" type="line"/>
      <point x="-10" y="442" type="line"/>
      <point x="244" y="442" type="line"/>
      <point x="244" y="271" type="line"/>
      <point x="209" y="227"/>
      <point x="164" y="202"/>
      <point x="123" y="202" type="curve" smooth="yes"/>
      <point x="94" y="202"/>
      <point x="70" y="223"/>
      <point x="70" y="247" type="curve" smooth="yes"/>
      <point x="70" y="292"/>
      <point x="127" y="334"/>
      <point x="186" y="334" type="curve" smooth="yes"/>
      <point x="195" y="334"/>
      <point x="206" y="331"/>
      <point x="220" y="323" type="curve"/>
      <point x="225" y="336" type="line"/>
      <point x="203" y="363"/>
      <point x="186" y="378"/>
      <point x="175" y="378" type="curve" smooth="yes"/>
      <point x="136" y="378" type="line" smooth="yes"/>
      <point x="80" y="378"/>
      <point x="23" y="330"/>
      <point x="23" y="283" type="curve" smooth="yes"/>
      <point x="23" y="224"/>
      <point x="93" y="157"/>
      <point x="161" y="157" type="curve" smooth="yes"/>
      <point x="191" y="157"/>
      <point x="219" y="171"/>
      <point x="244" y="195" type="curve"/>
      <point x="244" y="120" type="line" smooth="yes"/>
      <point x="244" y="62"/>
      <point x="395" y="-44"/>
      <point x="482" y="-44" type="curve" smooth="yes"/>
      <point x="498" y="-44"/>
      <point x="514" y="-36"/>
      <point x="528" y="-22" type="curve"/>
      <point x="474" y="12" type="line"/>
      <point x="461" y="-3"/>
      <point x="448" y="-9"/>
      <point x="437" y="-9" type="curve" smooth="yes"/>
      <point x="392" y="-9"/>
      <point x="304" y="48"/>
      <point x="304" y="81" type="curve" smooth="yes"/>
      <point x="304" y="241" type="line"/>
      <point x="344" y="294"/>
      <point x="386" y="328"/>
      <point x="423" y="328" type="curve" smooth="yes"/>
      <point x="444" y="328"/>
      <point x="460" y="308"/>
      <point x="460" y="286" type="curve" smooth="yes"/>
      <point x="460" y="239"/>
      <point x="415" y="194"/>
      <point x="356" y="184" type="curve"/>
      <point x="391" y="137" type="line"/>
      <point x="449" y="143"/>
      <point x="506" y="196"/>
      <point x="506" y="247" type="curve" smooth="yes"/>
      <point x="506" y="302"/>
      <point x="443" y="374"/>
      <point x="389" y="374" type="curve" smooth="yes"/>
      <point x="361" y="374"/>
      <point x="331" y="353"/>
      <point x="304" y="323" type="curve"/>
      <point x="304" y="442" type="line"/>
      <point x="250" y="500" type="line"/>
    </contour>
    <contour>
      <point x="283" y="500" type="line"/>
      <point x="337" y="442" type="line"/>
      <point x="542" y="442" type="line"/>
      <point x="542" y="500" type="line"/>
    </contour>
    <contour>
      <point x="104" y="35" type="move" name="nukta"/>
    </contour>
    <contour>
      <point x="274" y="0" type="move" name="bottom"/>
    </contour>
    <contour>
      <point x="267" y="500" type="move" name="top"/>
    </contour>
  </outline>
</glyph>
<glyph name="kha-deva" format="1">
  <advance width="664"/>
  <unicode hex="0916"/>
  <outline>
    <contour>
      <point x="189" y="500" type="line"/>
      <point x="240" y="442" type="line"/>
      <point x="529" y="442" type="line"/>
      <point x="529" y="294" type="line"/>
      <point x="499" y="328"/>
      <point x="456" y="350"/>
      <point x="415" y="350" type="curve" smooth="yes"/>
      <point x="352" y="350"/>
      <point x="301" y="308"/>
      <point x="301" y="260" type="curve" smooth="yes"/>
      <point x="301" y="210"/>
      <point x="376" y="146"/>
      <point x="433" y="146" type="curve" smooth="yes"/>
      <point x="469" y="146"/>
      <point x="504" y="163"/>
      <point x="529" y="194" type="curve"/>
      <point x="529" y="134" type="line"/>
      <point x="482" y="74"/>
      <point x="417" y="38"/>
      <point x="360" y="38" type="curve" smooth="yes"/>
      <point x="301" y="38"/>
      <point x="218" y="88"/>
      <point x="132" y="175" type="curve"/>
      <point x="199" y="199"/>
      <point x="248" y="249"/>
      <point x="248" y="303" type="curve" smooth="yes"/>
      <point x="248" y="347"/>
      <point x="239" y="401"/>
      <point x="206" y="442" type="curve" smooth="yes"/>
      <point x="156" y="500" type="line"/>
      <point x="-10" y="500" type="line"/>
      <point x="-10" y="442" type="line"/>
      <point x="183" y="442" type="line"/>
      <point x="202" y="410"/>
      <point x="211" y="380"/>
      <point x="211" y="351" type="curve" smooth="yes"/>
      <point x="211" y="320"/>
      <point x="197" y="292"/>
      <point x="174" y="275" type="curve"/>
      <point x="147" y="319"/>
      <point x="114" y="348"/>
      <point x="88" y="348" type="curve" smooth="yes"/>
      <point x="54" y="348"/>
      <point x="26" y="324"/>
      <point x="26" y="296" type="curve" smooth="yes"/>
      <point x="26" y="251"/>
      <point x="75" y="187"/>
      <point x="169" y="111" type="curve" smooth="yes"/>
      <point x="261" y="36"/>
      <point x="337" y="-2"/>
      <point x="396" y="-2" type="curve" smooth="yes"/>
      <point x="448" y="-2"/>
      <point x="503" y="26"/>
      <point x="548" y="76" type="curve"/>
      <point x="620" y="0"/>
      <point x="702" y="-44"/>
      <point x="763" y="-44" type="curve" smooth="yes"/>
      <point x="780" y="-44"/>
      <point x="797" y="-38"/>
      <point x="813" y="-22" type="curve"/>
      <point x="759" y="12" type="line"/>
      <point x="746" y="-3"/>
      <point x="733" y="-9"/>
      <point x="722" y="-9" type="curve" smooth="yes"/>
      <point x="677" y="-9"/>
      <point x="589" y="48"/>
      <point x="589" y="81" type="curve" smooth="yes"/>
      <point x="589" y="442" type="line"/>
      <point x="531" y="500" type="line"/>
    </contour>
    <contour>
      <point x="129" y="302"/>
      <point x="144" y="288"/>
      <point x="158" y="262" type="curve"/>
      <point x="139" y="242"/>
      <point x="117" y="229"/>
      <point x="93" y="222" type="curve"/>
      <point x="79" y="234"/>
      <point x="71" y="248"/>
      <point x="71" y="262" type="curve" smooth="yes"/>
      <point x="71" y="284"/>
      <point x="95" y="302"/>
      <point x="117" y="302" type="curve" smooth="yes"/>
    </contour>
    <contour>
      <point x="482" y="308"/>
      <point x="510" y="292"/>
      <point x="529" y="266" type="curve"/>
      <point x="498" y="220"/>
      <point x="448" y="191"/>
      <point x="398" y="191" type="curve" smooth="yes"/>
      <point x="373" y="191"/>
      <point x="349" y="205"/>
      <point x="349" y="227" type="curve" smooth="yes"/>
      <point x="349" y="267"/>
      <point x="403" y="308"/>
      <point x="455" y="308" type="curve" smooth="yes"/>
    </contour>
    <contour>
      <point x="565" y="500" type="line"/>
      <point x="623" y="442" type="line"/>
      <point x="674" y="442" type="line"/>
      <point x="674" y="500" type="line"/>
    </contour>
    <contour>
      <point x="116" y="0" type="move" name="nukta"/>
    </contour>
    <contour>
      <point x="559" y="0" type="move" name="bottom"/>
    </contour>
    <contour>
      <point x="548" y="500" type="move" name="top"/>
    </contour>
  </outline>
</glyph>
<glyph name="nga-deva" format="1">
  <advance width="507"/>
  <unicode hex="0919"/>
  <outline>
    <contour>
      <point x="294" y="442" type="line"/>
      <point x="311" y="424"/>
      <point x="322" y="402"/>
      <point x="322" y="388" type="curve" smooth="yes"/>
      <point x="322" y="374"/>
      <point x="304" y="362"/>
      <point x="282" y="362" type="curve" smooth="yes"/>
      <point x="189" y="362" type="line" smooth="yes"/>
      <point x="145" y="362"/>
      <point x="104" y="331"/>
      <point x="104" y="291" type="curve" smooth="yes"/>
      <point x="104" y="229"/>
      <point x="194" y="168"/>
      <point x="269" y="168" type="curve" smooth="yes"/>
      <point x="313" y="168"/>
      <point x="325" y="198"/>
      <point x="355" y="198" type="curve" smooth="yes"/>
      <point x="378" y="198"/>
      <point x="395" y="175"/>
      <point x="395" y="149" type="curve" smooth="yes"/>
      <point x="395" y="102"/>
      <point x="326" y="54"/>
      <point x="262" y="54" type="curve" smooth="yes"/>
      <point x="162" y="54"/>
      <point x="75" y="133"/>
      <point x="40" y="229" type="curve"/>
      <point x="18" y="218" type="line"/>
      <point x="65" y="90"/>
      <point x="179" y="3"/>
      <point x="299" y="3" type="curve" smooth="yes"/>
      <point x="374" y="3"/>
      <point x="439" y="52"/>
      <point x="439" y="113" type="curve" smooth="yes"/>
      <point x="439" y="174"/>
      <point x="375" y="242"/>
      <point x="317" y="242" type="curve" smooth="yes"/>
      <point x="280" y="242"/>
      <point x="258" y="208"/>
      <point x="219" y="208" type="curve" smooth="yes"/>
      <point x="184" y="208"/>
      <point x="156" y="232"/>
      <point x="156" y="258" type="curve" smooth="yes"/>
      <point x="156" y="286"/>
      <point x="185" y="310"/>
      <point x="219" y="310" type="curve" smooth="yes"/>
      <point x="299" y="310" type="line" smooth="yes"/>
      <point x="332" y="310"/>
      <point x="359" y="332"/>
      <point x="359" y="358" type="curve" smooth="yes"/>
      <point x="359" y="378"/>
      <point x="345" y="408"/>
      <point x="324" y="442" type="curve"/>
      <point x="272" y="500" type="line"/>
      <point x="-10" y="500" type="line"/>
      <point x="-10" y="442" type="line"/>
    </contour>
    <contour>
      <point x="493" y="291" type="line"/>
      <point x="440" y="343" type="line"/>
      <point x="386" y="291" type="line"/>
      <point x="440" y="239" type="line"/>
    </contour>
    <contour>
      <point x="517" y="442" type="line"/>
      <point x="517" y="500" type="line"/>
      <point x="305" y="500" type="line"/>
      <point x="356" y="442" type="line"/>
    </contour>
    <contour>
      <point x="299" y="-135" type="move" name="nukta"/>
    </contour>
    <contour>
      <point x="299" y="-3" type="move" name="bottom"/>
    </contour>
    <contour>
      <point x="288" y="500" type="move" name="top"/>
    </contour>
  </outline>
</glyph>
<glyph name="cha-deva" format="1">
  <advance width="552"/>
  <unicode hex="091B"/>
  <outline>
    <contour>
      <point x="-10" y="500" type="line"/>
      <point x="-10" y="442" type="line"/>
      <point x="379" y="442" type="line"/>
      <point x="379" y="354" type="line"/>
      <point x="335" y="352"/>
      <point x="287" y="301"/>
      <point x="287" y="257" type="curve" smooth="yes"/>
      <point x="287" y="215"/>
      <point x="336" y="169"/>
      <point x="407" y="142" type="curve"/>
      <point x="356" y="82"/>
      <point x="288" y="45"/>
      <point x="224" y="45" type="curve" smooth="yes"/>
      <point x="177" y="45"/>
      <point x="136" y="67"/>
      <point x="136" y="96" type="curve" smooth="yes"/>
      <point x="136" y="134"/>
      <point x="193" y="181"/>
      <point x="237" y="181" type="curve" smooth="yes"/>
      <point x="248" y="181"/>
      <point x="259" y="176"/>
      <point x="267" y="170" type="curve"/>
      <point x="278" y="181" type="line"/>
      <point x="254" y="208"/>
      <point x="224" y="226"/>
      <point x="199" y="226" type="curve" smooth="yes"/>
      <point x="187" y="226"/>
      <point x="172" y="222"/>
      <point x="153" y="213" type="curve"/>
      <point x="114" y="225"/>
      <point x="85" y="246"/>
      <point x="85" y="266" type="curve" smooth="yes"/>
      <point x="85" y="298"/>
      <point x="138" y="331"/>
      <point x="189" y="331" type="curve" smooth="yes"/>
      <point x="198" y="331"/>
      <point x="214" y="326"/>
      <point x="232" y="312" type="curve"/>
      <point x="246" y="328" type="line"/>
      <point x="212" y="360"/>
      <point x="180" y="373"/>
      <point x="159" y="373" type="curve" smooth="yes"/>
      <point x="90" y="373"/>
      <point x="26" y="330"/>
      <point x="26" y="286" type="curve" smooth="yes"/>
      <point x="26" y="255"/>
      <point x="71" y="221"/>
      <point x="133" y="198" type="curve"/>
      <point x="99" y="177"/>
      <point x="79" y="147"/>
      <point x="79" y="123" type="curve" smooth="yes"/>
      <point x="79" y="65"/>
      <point x="179" y="12"/>
      <point x="273" y="12" type="curve" smooth="yes"/>
      <point x="340" y="12"/>
      <point x="410" y="52"/>
      <point x="459" y="117" type="curve"/>
      <point x="480" y="102"/>
      <point x="493" y="83"/>
      <point x="493" y="65" type="curve" smooth="yes"/>
      <point x="493" y="18"/>
      <point x="450" y="-4"/>
      <point x="414" y="16" type="curve"/>
      <point x="403" y="1" type="line"/>
      <point x="430" y="-17"/>
      <point x="455" y="-28"/>
      <point x="475" y="-28" type="curve" smooth="yes"/>
      <point x="510" y="-28"/>
      <point x="540" y="2"/>
      <point x="540" y="40" type="curve" smooth="yes"/>
      <point x="540" y="75"/>
      <point x="514" y="111"/>
      <point x="472" y="135" type="curve"/>
      <point x="492" y="163"/>
      <point x="502" y="191"/>
      <point x="502" y="221" type="curve" smooth="yes"/>
      <point x="502" y="261"/>
      <point x="477" y="301"/>
      <point x="439" y="326" type="curve"/>
      <point x="439" y="442" type="line"/>
      <point x="381" y="500" type="line"/>
    </contour>
    <contour>
      <point x="437" y="306"/>
      <point x="459" y="280"/>
      <point x="459" y="249" type="curve" smooth="yes"/>
      <point x="459" y="219"/>
      <point x="444" y="187"/>
      <point x="418" y="161" type="curve"/>
      <point x="374" y="176"/>
      <point x="340" y="205"/>
      <point x="340" y="232" type="curve" smooth="yes"/>
      <point x="340" y="269"/>
      <point x="378" y="306"/>
      <point x="410" y="306" type="curve" smooth="yes"/>
    </contour>
    <contour>
      <point x="414" y="500" type="line"/>
      <point x="472" y="442" type="line"/>
      <point x="562" y="442" type="line"/>
      <point x="562" y="500" type="line"/>
    </contour>
    <contour>
      <point x="398" y="500" type="move" name="top"/>
    </contour>
    <contour>
      <point x="398" y="0" type="move" name="bottom"/>
    </contour>
  </outline>
</glyph>
<glyph name="tta-deva" format="1">
  <advance width="407"/>
  <unicode hex="091F"/>
  <outline>
    <contour>
      <point x="256" y="442" type="line"/>
      <point x="282" y="419"/>
      <point x="298" y="391"/>
      <point x="298" y="363" type="curve" smooth="yes"/>
      <point x="298" y="277"/>
      <point x="34" y="357"/>
      <point x="34" y="202" type="curve" smooth="yes"/>
      <point x="34" y="95"/>
      <point x="148" y="0"/>
      <point x="255" y="0" type="curve" smooth="yes"/>
      <point x="310" y="0"/>
      <point x="364" y="24"/>
      <point x="399" y="65" type="curve"/>
      <point x="351" y="108" type="line"/>
      <point x="317" y="66"/>
      <point x="264" y="42"/>
      <point x="214" y="42" type="curve" smooth="yes"/>
      <point x="146" y="42"/>
      <point x="76" y="101"/>
      <point x="76" y="159" type="curve" smooth="yes"/>
      <point x="76" y="294"/>
      <point x="341" y="216"/>
      <point x="341" y="323" type="curve" smooth="yes"/>
      <point x="341" y="359"/>
      <point x="322" y="404"/>
      <point x="289" y="442" type="curve" smooth="yes"/>
      <point x="236" y="500" type="line"/>
      <point x="-10" y="500" type="line"/>
      <point x="-10" y="442" type="line"/>
    </contour>
    <contour>
      <point x="418" y="442" type="line"/>
      <point x="418" y="500" type="line"/>
      <point x="270" y="500" type="line"/>
      <point x="323" y="442" type="line"/>
    </contour>
    <contour>
      <point x="225" y="-120" type="move" name="nukta"/>
    </contour>
    <contour>
      <point x="263" y="0" type="move" name="bottom"/>
    </contour>
    <contour>
      <point x="253" y="500" type="move" name="top"/>
    </contour>
  </outline>
</glyph>
<glyph name="ddha-deva" format="1">
  <advance width="424"/>
  <unicode hex="0922"/>
  <outline>
    <contour>
      <point x="280" y="442" type="line"/>
      <point x="300" y="416"/>
      <point x="312" y="393"/>
      <point x="312" y="373" type="curve" smooth="yes"/>
      <point x="312" y="357"/>
      <point x="298" y="342"/>
      <point x="276" y="342" type="curve" smooth="yes"/>
      <point x="160" y="341" type="line" smooth="yes"/>
      <point x="94" y="341"/>
      <point x="40" y="292"/>
      <point x="40" y="234" type="curve" smooth="yes"/>
      <point x="40" y="112"/>
      <point x="135" y="-5"/>
      <point x="259" y="-5" type="curve" smooth="yes"/>
      <point x="329" y="-5"/>
      <point x="400" y="56"/>
      <point x="400" y="113" type="curve" smooth="yes"/>
      <point x="400" y="161"/>
      <point x="349" y="213"/>
      <point x="301" y="213" type="curve" smooth="yes"/>
      <point x="254" y="213"/>
      <point x="206" y="169"/>
      <point x="206" y="124" type="curve" smooth="yes"/>
      <point x="206" y="97"/>
      <point x="230" y="67"/>
      <point x="267" y="46" type="curve"/>
      <point x="258" y="40"/>
      <point x="241" y="37"/>
      <point x="218" y="37" type="curve" smooth="yes"/>
      <point x="151" y="37"/>
      <point x="83" y="110"/>
      <point x="83" y="183" type="curve" smooth="yes"/>
      <point x="83" y="240"/>
      <point x="131" y="288"/>
      <point x="188" y="288" type="curve" smooth="yes"/>
      <point x="291" y="289" type="line" smooth="yes"/>
      <point x="321" y="290"/>
      <point x="347" y="311"/>
      <point x="347" y="340" type="curve" smooth="yes"/>
      <point x="347" y="380"/>
      <point x="329" y="417"/>
      <point x="307" y="442" type="curve" smooth="yes"/>
      <point x="255" y="500" type="line"/>
      <point x="-10" y="500" type="line"/>
      <point x="-10" y="442" type="line"/>
    </contour>
    <contour>
      <point x="269" y="65"/>
      <point x="258" y="81"/>
      <point x="258" y="95" type="curve" smooth="yes"/>
      <point x="258" y="132"/>
      <point x="300" y="173"/>
      <point x="332" y="173" type="curve" smooth="yes"/>
      <point x="347" y="173"/>
      <point x="360" y="161"/>
      <point x="360" y="147" type="curve" smooth="yes"/>
      <point x="360" y="115"/>
      <point x="332" y="83"/>
      <point x="288" y="57" type="curve"/>
    </contour>
    <contour>
      <point x="435" y="442" type="line"/>
      <point x="435" y="500" type="line"/>
      <point x="288" y="500" type="line"/>
      <point x="341" y="442" type="line"/>
    </contour>
    <contour>
      <point x="257" y="-120" type="move" name="nukta"/>
    </contour>
    <contour>
      <point x="272" y="0" type="move" name="bottom"/>
    </contour>
    <contour>
      <point x="271" y="500" type="move" name="top"/>
    </contour>
  </outline>
</glyph>
<glyph name="ta-deva" format="1">
  <advance width="472"/>
  <unicode hex="0924"/>
  <outline>
    <contour>
      <point x="338" y="442" type="line"/>
      <point x="338" y="290" type="line"/>
      <point x="288" y="331"/>
      <point x="234" y="354"/>
      <point x="189" y="354" type="curve" smooth="yes"/>
      <point x="109" y="354"/>
      <point x="40" y="294"/>
      <point x="40" y="218" type="curve" smooth="yes"/>
      <point x="40" y="114"/>
      <point x="144" y="-21"/>
      <point x="242" y="-21" type="curve" smooth="yes"/>
      <point x="260" y="-21"/>
      <point x="279" y="-16"/>
      <point x="289" y="-5" type="curve"/>
      <point x="243" y="33" type="line"/>
      <point x="232" y="22"/>
      <point x="220" y="17"/>
      <point x="211" y="17" type="curve" smooth="yes"/>
      <point x="159" y="17"/>
      <point x="88" y="108"/>
      <point x="88" y="170" type="curve" smooth="yes"/>
      <point x="88" y="245"/>
      <point x="158" y="306"/>
      <point x="242" y="306" type="curve" smooth="yes"/>
      <point x="273" y="306"/>
      <point x="309" y="289"/>
      <point x="338" y="259" type="curve"/>
      <point x="338" y="122" type="line" smooth="yes"/>
      <point x="338" y="62"/>
      <point x="490" y="-44"/>
      <point x="576" y="-44" type="curve" smooth="yes"/>
      <point x="593" y="-44"/>
      <point x="608" y="-36"/>
      <point x="622" y="-22" type="curve"/>
      <point x="568" y="13" type="line"/>
      <point x="557" y="-2"/>
      <point x="544" y="-9"/>
      <point x="530" y="-9" type="curve" smooth="yes"/>
      <point x="485" y="-9"/>
      <point x="398" y="48"/>
      <point x="398" y="81" type="curve" smooth="yes"/>
      <point x="398" y="442" type="line"/>
      <point x="340" y="500" type="line"/>
      <point x="-10" y="500" type="line"/>
      <point x="-10" y="442" type="line"/>
    </contour>
    <contour>
      <point x="482" y="442" type="line"/>
      <point x="482" y="500" type="line"/>
      <point x="373" y="500" type="line"/>
      <point x="431" y="442" type="line"/>
    </contour>
    <contour>
      <point x="70" y="-30" type="move" name="nukta"/>
    </contour>
    <contour>
      <point x="368" y="0" type="move" name="bottom"/>
    </contour>
    <contour>
      <point x="357" y="500" type="move" name="top"/>
    </contour>
  </outline>
</glyph>
<glyph name="na-deva" format="1">
  <advance width="482"/>
  <unicode hex="0928"/>
  <outline>
    <contour>
      <point x="348" y="442" type="line"/>
      <point x="348" y="260" type="line"/>
      <point x="300" y="315"/>
      <point x="237" y="348"/>
      <point x="171" y="348" type="curve" smooth="yes"/>
      <point x="98" y="348"/>
      <point x="31" y="296"/>
      <point x="31" y="242" type="curve" smooth="yes"/>
      <point x="31" y="175"/>
      <point x="115" y="92"/>
      <point x="187" y="92" type="curve" smooth="yes"/>
      <point x="227" y="92"/>
      <point x="263" y="123"/>
      <point x="263" y="163" type="curve" smooth="yes"/>
      <point x="263" y="197"/>
      <point x="230" y="246"/>
      <point x="174" y="292" type="curve"/>
      <point x="180" y="296"/>
      <point x="191" y="297"/>
      <point x="220" y="297" type="curve" smooth="yes"/>
      <point x="266" y="297"/>
      <point x="311" y="272"/>
      <point x="348" y="231" type="curve"/>
      <point x="348" y="122" type="line" smooth="yes"/>
      <point x="348" y="61"/>
      <point x="500" y="-44"/>
      <point x="585" y="-44" type="curve" smooth="yes"/>
      <point x="602" y="-44"/>
      <point x="618" y="-36"/>
      <point x="631" y="-22" type="curve"/>
      <point x="578" y="13" type="line"/>
      <point x="567" y="-2"/>
      <point x="553" y="-9"/>
      <point x="540" y="-9" type="curve" smooth="yes"/>
      <point x="495" y="-9"/>
      <point x="408" y="48"/>
      <point x="408" y="81" type="curve" smooth="yes"/>
      <point x="408" y="442" type="line"/>
      <point x="350" y="500" type="line"/>
      <point x="-10" y="500" type="line"/>
      <point x="-10" y="442" type="line"/>
    </contour>
    <contour>
      <point x="112" y="136"/>
      <point x="77" y="171"/>
      <point x="77" y="203" type="curve" smooth="yes"/>
      <point x="77" y="236"/>
      <point x="108" y="268"/>
      <point x="151" y="284" type="curve"/>
      <point x="188" y="254"/>
      <point x="210" y="220"/>
      <point x="210" y="196" type="curve" smooth="yes"/>
      <point x="210" y="161"/>
      <point x="179" y="136"/>
      <point x="144" y="136" type="curve" smooth="yes"/>
    </contour>
    <contour>
      <point x="492" y="442" type="line"/>
      <point x="492" y="500" type="line"/>
      <point x="383" y="500" type="line"/>
      <point x="441" y="442" type="line"/>
    </contour>
    <contour>
      <point x="152" y="-5" type="move" name="nukta"/>
    </contour>
    <contour>
      <point x="378" y="0" type="move" name="bottom"/>
    </contour>
    <contour>
      <point x="366" y="500" type="move" name="top"/>
    </contour>
  </outline>
</glyph>
<glyph name="la-deva" format="1">
  <advance width="534"/>
  <unicode hex="0932"/>
  <outline>
    <contour>
      <point x="400" y="442" type="line"/>
      <point x="400" y="302" type="line"/>
      <point x="367" y="334"/>
      <point x="335" y="350"/>
      <point x="314" y="350" type="curve" smooth="yes"/>
      <point x="281" y="350"/>
      <point x="250" y="322"/>
      <point x="239" y="283" type="curve"/>
      <point x="208" y="328"/>
      <point x="166" y="355"/>
      <point x="132" y="355" type="curve" smooth="yes"/>
      <point x="87" y="355"/>
      <point x="41" y="294"/>
      <point x="41" y="234" type="curve" smooth="yes"/>
      <point x="41" y="126"/>
      <point x="184" y="-29"/>
      <point x="296" y="-29" type="curve" smooth="yes"/>
      <point x="316" y="-29"/>
      <point x="335" y="-23"/>
      <point x="350" y="-8" type="curve"/>
      <point x="312" y="33" type="line"/>
      <point x="298" y="18"/>
      <point x="279" y="11"/>
      <point x="261" y="11" type="curve" smooth="yes"/>
      <point x="194" y="11"/>
      <point x="92" y="118"/>
      <point x="92" y="192" type="curve" smooth="yes"/>
      <point x="92" y="247"/>
      <point x="127" y="302"/>
      <point x="169" y="302" type="curve" smooth="yes"/>
      <point x="190" y="302"/>
      <point x="213" y="283"/>
      <point x="228" y="257" type="curve"/>
      <point x="225" y="237"/>
      <point x="223" y="219"/>
      <point x="223" y="201" type="curve"/>
      <point x="281" y="173" type="line"/>
      <point x="281" y="264"/>
      <point x="312" y="305"/>
      <point x="350" y="305" type="curve" smooth="yes"/>
      <point x="364" y="305"/>
      <point x="382" y="292"/>
      <point x="400" y="268" type="curve"/>
      <point x="400" y="122" type="line" smooth="yes"/>
      <point x="400" y="61"/>
      <point x="553" y="-44"/>
      <point x="637" y="-44" type="curve" smooth="yes"/>
      <point x="654" y="-44"/>
      <point x="670" y="-36"/>
      <point x="683" y="-22" type="curve"/>
      <point x="630" y="13" type="line"/>
      <point x="619" y="-2"/>
      <point x="605" y="-9"/>
      <point x="591" y="-9" type="curve" smooth="yes"/>
      <point x="547" y="-9"/>
      <point x="460" y="48"/>
      <point x="460" y="81" type="curve" smooth="yes"/>
      <point x="460" y="442" type="line"/>
      <point x="401" y="500" type="line"/>
      <point x="-10" y="500" type="line"/>
      <point x="-10" y="442" type="line"/>
    </contour>
    <contour>
      <point x="544" y="442" type="line"/>
      <point x="544" y="500" type="line"/>
      <point x="435" y="500" type="line"/>
      <point x="493" y="442" type="line"/>
    </contour>
    <contour>
      <point x="70" y="0" type="move" name="nukta"/>
    </contour>
    <contour>
      <point x="430" y="0" type="move" name="bottom"/>
    </contour>
    <contour>
      <point x="418" y="500" type="move" name="top"/>
    </contour>
  </outline>
</glyph>
<glyph name="sha-deva" format="1">
  <advance width="538"/>
  <unicode hex="0936"/>
  <outline>
    <contour>
      <point x="259" y="500" type="line"/>
      <point x="307" y="442" type="line"/>
      <point x="404" y="442" type="line"/>
      <point x="404" y="120" type="line" smooth="yes"/>
      <point x="404" y="62"/>
      <point x="554" y="-44"/>
      <point x="642" y="-44" type="curve" smooth="yes"/>
      <point x="658" y="-44"/>
      <point x="674" y="-36"/>
      <point x="687" y="-22" type="curve"/>
      <point x="634" y="12" type="line"/>
      <point x="624" y="-2"/>
      <point x="610" y="-9"/>
      <point x="597" y="-9" type="curve" smooth="yes"/>
      <point x="552" y="-9"/>
      <point x="464" y="48"/>
      <point x="464" y="81" type="curve" smooth="yes"/>
      <point x="464" y="442" type="line"/>
      <point x="407" y="500" type="line"/>
    </contour>
    <contour>
      <point x="87" y="513"/>
      <point x="39" y="462"/>
      <point x="39" y="411" type="curve" smooth="yes"/>
      <point x="39" y="352"/>
      <point x="108" y="292"/>
      <point x="160" y="292" type="curve" smooth="yes"/>
      <point x="183" y="292"/>
      <point x="206" y="305"/>
      <point x="221" y="329" type="curve"/>
      <point x="224" y="328" type="line"/>
      <point x="216" y="264"/>
      <point x="184" y="213"/>
      <point x="144" y="193" type="curve"/>
      <point x="122" y="221"/>
      <point x="95" y="239"/>
      <point x="77" y="239" type="curve" smooth="yes"/>
      <point x="58" y="239"/>
      <point x="41" y="225"/>
      <point x="41" y="205" type="curve" smooth="yes"/>
      <point x="41" y="162"/>
      <point x="83" y="121"/>
      <point x="126" y="121" type="curve" smooth="yes"/>
      <point x="137" y="121"/>
      <point x="146" y="123"/>
      <point x="154" y="127" type="curve"/>
      <point x="238" y="32" type="line" smooth="yes"/>
      <point x="284" y="-21"/>
      <point x="324" y="-45"/>
      <point x="361" y="-45" type="curve" smooth="yes"/>
      <point x="379" y="-45"/>
      <point x="400" y="-40"/>
      <point x="415" y="-25" type="curve"/>
      <point x="366" y="14" type="line"/>
      <point x="358" y="5"/>
      <point x="347" y="-2"/>
      <point x="333" y="-2" type="curve" smooth="yes"/>
      <point x="313" y="-2"/>
      <point x="276" y="18"/>
      <point x="235" y="68" type="curve" smooth="yes"/>
      <point x="175" y="138" type="line"/>
      <point x="235" y="173"/>
      <point x="277" y="245"/>
      <point x="277" y="327" type="curve" smooth="yes"/>
      <point x="277" y="417"/>
      <point x="205" y="513"/>
      <point x="137" y="513" type="curve" smooth="yes"/>
    </contour>
    <contour>
      <point x="194" y="468"/>
      <point x="213" y="440"/>
      <point x="213" y="418" type="curve" smooth="yes"/>
      <point x="213" y="375"/>
      <point x="169" y="331"/>
      <point x="130" y="331" type="curve" smooth="yes"/>
      <point x="112" y="331"/>
      <point x="86" y="357"/>
      <point x="86" y="375" type="curve" smooth="yes"/>
      <point x="86" y="418"/>
      <point x="128" y="468"/>
      <point x="173" y="468" type="curve" smooth="yes"/>
    </contour>
    <contour>
      <point x="440" y="500" type="line"/>
      <point x="497" y="442" type="line"/>
      <point x="548" y="442" type="line"/>
      <point x="548" y="500" type="line"/>
    </contour>
    <contour>
      <point x="98" y="25" type="move" name="nukta"/>
    </contour>
    <contour>
      <point x="436" y="0" type="move" name="bottom"/>
    </contour>
    <contour>
      <point x="424" y="500" type="move" name="top"/>
    </contour>
  </outline>
</glyph>
<glyph name="sa-deva" format="1">
  <advance width="510"/>
  <unicode hex="0938"/>
  <outline>
    <contour>
      <point x="182" y="500" type="line"/>
      <point x="236" y="442" type="line"/>
      <point x="375" y="442" type="line"/>
      <point x="375" y="122" type="line" smooth="yes"/>
      <point x="375" y="63"/>
      <point x="525" y="-44"/>
      <point x="612" y="-44" type="curve" smooth="yes"/>
      <point x="629" y="-44"/>
      <point x="645" y="-36"/>
      <point x="658" y="-22" type="curve"/>
      <point x="605" y="13" type="line"/>
      <point x="594" y="-2"/>
      <point x="580" y="-9"/>
      <point x="567" y="-9" type="curve" smooth="yes"/>
      <point x="522" y="-9"/>
      <point x="435" y="48"/>
      <point x="435" y="81" type="curve" smooth="yes"/>
      <point x="435" y="442" type="line"/>
      <point x="377" y="500" type="line"/>
    </contour>
    <contour>
      <point x="133" y="313"/>
      <point x="156" y="293"/>
      <point x="164" y="268" type="curve"/>
      <point x="141" y="257"/>
      <point x="117" y="252"/>
      <point x="93" y="252" type="curve" smooth="yes"/>
      <point x="81" y="252"/>
      <point x="70" y="266"/>
      <point x="70" y="283" type="curve" smooth="yes"/>
      <point x="70" y="299"/>
      <point x="92" y="313"/>
      <point x="113" y="313" type="curve" smooth="yes"/>
    </contour>
    <contour>
      <point x="-10" y="500" type="line"/>
      <point x="-10" y="442" type="line"/>
      <point x="166" y="442" type="line"/>
      <point x="197" y="412"/>
      <point x="216" y="373"/>
      <point x="216" y="338" type="curve" smooth="yes"/>
      <point x="216" y="314"/>
      <point x="202" y="292"/>
      <point x="181" y="281" type="curve"/>
      <point x="163" y="330"/>
      <point x="127" y="364"/>
      <point x="93" y="364" type="curve" smooth="yes"/>
      <point x="62" y="364"/>
      <point x="30" y="343"/>
      <point x="30" y="313" type="curve" smooth="yes"/>
      <point x="30" y="220"/>
      <point x="242" y="-24"/>
      <point x="331" y="-24" type="curve" smooth="yes"/>
      <point x="353" y="-24"/>
      <point x="376" y="-15"/>
      <point x="390" y="1" type="curve"/>
      <point x="342" y="39" type="line"/>
      <point x="331" y="25"/>
      <point x="320" y="18"/>
      <point x="307" y="18" type="curve" smooth="yes"/>
      <point x="262" y="18"/>
      <point x="189" y="86"/>
      <point x="111" y="198" type="curve"/>
      <point x="160" y="193"/>
      <point x="210" y="208"/>
      <point x="243" y="253" type="curve"/>
      <point x="273" y="232"/>
      <point x="306" y="219"/>
      <point x="337" y="219" type="curve" smooth="yes"/>
      <point x="349" y="219"/>
      <point x="363" y="221"/>
      <point x="377" y="225" type="curve"/>
      <point x="377" y="280" type="line"/>
      <point x="354" y="268"/>
      <point x="328" y="261"/>
      <point x="303" y="261" type="curve" smooth="yes"/>
      <point x="285" y="261"/>
      <point x="269" y="265"/>
      <point x="254" y="274" type="curve"/>
      <point x="258" y="287"/>
      <point x="260" y="299"/>
      <point x="260" y="313" type="curve" smooth="yes"/>
      <point x="260" y="356"/>
      <point x="235" y="408"/>
      <point x="203" y="442" type="curve" smooth="yes"/>
      <point x="149" y="500" type="line"/>
    </contour>
    <contour>
      <point x="410" y="500" type="line"/>
      <point x="468" y="442" type="line"/>
      <point x="519" y="442" type="line"/>
      <point x="519" y="500" type="line"/>
    </contour>
    <contour>
      <point x="93" y="25" type="move" name="nukta"/>
    </contour>
    <contour>
      <point x="406" y="0" type="move" name="bottom"/>
    </contour>
    <contour>
      <point x="394" y="500" type="move" name="top"/>
    </contour>
  </outline>
</glyph>
<glyph name="iiMatra-deva" format="1">
  <advance width="208"/>
  <unicode hex="0940"/>
  <outline>
    <contour>
      <point x="-204" y="579"/>
      <point x="-173" y="539"/>
      <point x="-126" y="505" type="curve"/>
      <point x="-108" y="519" type="line"/>
      <point x="-135" y="542"/>
      <point x="-151" y="565"/>
      <point x="-151" y="582" type="curve" smooth="yes"/>
      <point x="-151" y="621"/>
      <point x="-105" y="656"/>
      <point x="-64" y="656" type="curve" smooth="yes"/>
      <point x="16" y="656"/>
      <point x="37" y="505"/>
      <point x="94" y="505" type="curve" smooth="yes"/>
      <point x="111" y="505"/>
      <point x="129" y="514"/>
      <point x="143" y="531" type="curve"/>
      <point x="108" y="573" type="line"/>
      <point x="101" y="563"/>
      <point x="92" y="553"/>
      <point x="83" y="553" type="curve" smooth="yes"/>
      <point x="45" y="553"/>
      <point x="17" y="708"/>
      <point x="-98" y="708" type="curve" smooth="yes"/>
      <point x="-151" y="708"/>
      <point x="-204" y="661"/>
      <point x="-204" y="615" type="curve" smooth="yes"/>
    </contour>
    <contour>
      <point x="74" y="442" type="line"/>
      <point x="74" y="122" type="line" smooth="yes"/>
      <point x="74" y="63"/>
      <point x="224" y="-44"/>
      <point x="311" y="-44" type="curve" smooth="yes"/>
      <point x="328" y="-44"/>
      <point x="343" y="-36"/>
      <point x="357" y="-22" type="curve"/>
      <point x="304" y="13" type="line"/>
      <point x="293" y="-2"/>
      <point x="279" y="-9"/>
      <point x="265" y="-9" type="curve" smooth="yes"/>
      <point x="221" y="-9"/>
      <point x="134" y="48"/>
      <point x="134" y="81" type="curve" smooth="yes"/>
      <point x="134" y="442" type="line"/>
      <point x="75" y="500" type="line"/>
      <point x="-10" y="500" type="line"/>
      <point x="-10" y="442" type="line"/>
    </contour>
    <contour>
      <point x="217" y="442" type="line"/>
      <point x="217" y="500" type="line"/>
      <point x="108" y="500" type="line"/>
      <point x="166" y="442" type="line"/>
    </contour>
    <contour>
      <point x="-113" y="500" type="move" name="iimatra"/>
    </contour>
    <contour>
      <point x="218" y="500" type="move" name="top"/>
    </contour>
  </outline>
</glyph>
<glyph name="uMatra-deva" format="1">
  <advance width="0"/>
  <unicode hex="0941"/>
  <outline>
    <contour>
      <point x="-381" y="-163" type="line"/>
      <point x="-298" y="-245"/>
      <point x="-204" y="-294"/>
      <point x="-99" y="-294" type="curve" smooth="yes"/>
      <point x="-33" y="-294"/>
      <point x="40" y="-240"/>
      <point x="40" y="-181" type="curve" smooth="yes"/>
      <point x="40" y="-121"/>
      <point x="-44" y="-50"/>
      <point x="-113" y="-50" type="curve" smooth="yes"/>
      <point x="-159" y="-50"/>
      <point x="-207" y="-85"/>
      <point x="-207" y="-122" type="curve" smooth="yes"/>
      <point x="-207" y="-157"/>
      <point x="-147" y="-198"/>
      <point x="-97" y="-198" type="curve" smooth="yes"/>
      <point x="-79" y="-198"/>
      <point x="-59" y="-185"/>
      <point x="-44" y="-164" type="curve"/>
      <point x="-82" y="-138" type="line"/>
      <point x="-97" y="-157"/>
      <point x="-113" y="-171"/>
      <point x="-122" y="-171" type="curve" smooth="yes"/>
      <point x="-137" y="-171"/>
      <point x="-150" y="-162"/>
      <point x="-150" y="-148" type="curve" smooth="yes"/>
      <point x="-150" y="-123"/>
      <point x="-112" y="-95"/>
      <point x="-77" y="-95" type="curve" smooth="yes"/>
      <point x="-44" y="-95"/>
      <point x="-14" y="-120"/>
      <point x="-14" y="-152" type="curve" smooth="yes"/>
      <point x="-14" y="-201"/>
      <point x="-76" y="-255"/>
      <point x="-142" y="-255" type="curve" smooth="yes"/>
      <point x="-218" y="-255"/>
      <point x="-299" y="-207"/>
      <point x="-360" y="-142" type="curve"/>
    </contour>
    <contour>
      <point x="-113" y="0" type="move" name="_bottom"/>
    </contour>
  </outline>
</glyph>
<glyph name="uuMatra-deva" format="1">
  <advance width="0"/>
  <unicode hex="0942"/>
  <outline>
    <contour>
      <point x="-234" y="-203"/>
      <point x="-161" y="-256"/>
      <point x="-104" y="-256" type="curve" smooth="yes"/>
      <point x="-68" y="-256"/>
      <point x="-25" y="-221"/>
      <point x="-25" y="-187" type="curve" smooth="yes"/>
      <point x="-25" y="-165"/>
      <point x="-50" y="-134"/>
      <point x="-90" y="-112" type="curve"/>
      <point x="-105" y="-123" type="line"/>
      <point x="-88" y="-136"/>
      <point x="-78" y="-150"/>
      <point x="-78" y="-160" type="curve" smooth="yes"/>
      <point x="-78" y="-183"/>
      <point x="-114" y="-212"/>
      <point x="-141" y="-212" type="curve" smooth="yes"/>
      <point x="-162" y="-212"/>
      <point x="-181" y="-197"/>
      <point x="-181" y="-176" type="curve" smooth="yes"/>
      <point x="-181" y="-138"/>
      <point x="-126" y="-96"/>
      <point x="-82" y="-96" type="curve" smooth="yes"/>
      <point x="-53" y="-96"/>
      <point x="-21" y="-115"/>
      <point x="5" y="-144" type="curve" smooth="yes"/>
      <point x="100" y="-251" type="line" smooth="yes"/>
      <point x="133" y="-289"/>
      <point x="171" y="-308"/>
      <point x="202" y="-308" type="curve" smooth="yes"/>
      <point x="223" y="-308"/>
      <point x="243" y="-300"/>
      <point x="258" y="-284" type="curve"/>
      <point x="214" y="-239" type="line"/>
      <point x="202" y="-254"/>
      <point x="188" y="-262"/>
      <point x="170" y="-262" type="curve" smooth="yes"/>
      <point x="152" y="-262"/>
      <point x="131" y="-247"/>
      <point x="114" y="-228" type="curve" smooth="yes"/>
      <point x="14" y="-115" type="line" smooth="yes"/>
      <point x="-22" y="-76"/>
      <point x="-61" y="-50"/>
      <point x="-114" y="-50" type="curve" smooth="yes"/>
      <point x="-174" y="-50"/>
      <point x="-234" y="-95"/>
      <point x="-234" y="-147" type="curve" smooth="yes"/>
    </contour>
    <contour>
      <point x="-113" y="0" type="move" name="_bottom"/>
    </contour>
  </outline>
</glyph>
<glyph name="rrVocalicMatra-deva" format="1">
  <advance width="0"/>
  <unicode hex="0944"/>
  <outline>
    <contour>
      <point x="-229" y="-72"/>
      <point x="-200" y="-122"/>
      <point x="-133" y="-122" type="curve"/>
      <point x="-149" y="-133"/>
      <point x="-160" y="-147"/>
      <point x="-160" y="-161" type="curve" smooth="yes"/>
      <point x="-160" y="-200"/>
      <point x="-81" y="-241"/>
      <point x="-13" y="-241" type="curve" smooth="yes"/>
      <point x="37" y="-241"/>
      <point x="83" y="-222"/>
      <point x="114" y="-186" type="curve"/>
      <point x="69" y="-146" type="line"/>
      <point x="34" y="-188"/>
      <point x="-13" y="-211"/>
      <point x="-59" y="-211" type="curve" smooth="yes"/>
      <point x="-85" y="-211"/>
      <point x="-108" y="-197"/>
      <point x="-108" y="-180" type="curve" smooth="yes"/>
      <point x="-108" y="-161"/>
      <point x="-72" y="-136"/>
      <point x="-22" y="-117" type="curve"/>
      <point x="-55" y="-73" type="line"/>
      <point x="-86" y="-91"/>
      <point x="-116" y="-100"/>
      <point x="-145" y="-100" type="curve" smooth="yes"/>
      <point x="-161" y="-100"/>
      <point x="-178" y="-93"/>
      <point x="-178" y="-82" type="curve" smooth="yes"/>
      <point x="-178" y="-57"/>
      <point x="-131" y="-28"/>
      <point x="-65" y="-11" type="curve"/>
      <point x="-114" y="26" type="line"/>
      <point x="-181" y="9"/>
      <point x="-229" y="-25"/>
      <point x="-229" y="-52" type="curve" smooth="yes"/>
    </contour>
    <contour>
      <point x="-113" y="0" type="move" name="_bottom"/>
    </contour>
  </outline>
</glyph>
<glyph name="eShortMatra-deva" format="1">
  <advance width="0"/>
  <unicode hex="0946"/>
  <outline>
    <contour>
      <point x="-456" y="736" type="line"/>
      <point x="-445" y="644"/>
      <point x="-361" y="600"/>
      <point x="-279" y="600" type="curve" smooth="yes"/>
      <point x="-191" y="600"/>
      <point x="-125" y="554"/>
      <point x="-125" y="500" type="curve"/>
      <point x="-101" y="500" type="line"/>
      <point x="-102" y="601"/>
      <point x="-182" y="657"/>
      <point x="-283" y="657" type="curve" smooth="yes"/>
      <point x="-362" y="657"/>
      <point x="-425" y="689"/>
      <point x="-434" y="736" type="curve"/>
    </contour>
    <contour>
      <point x="-113" y="500" type="move" name="_top"/>
    </contour>
  </outline>
</glyph>
<glyph name="oMatra-deva" format="1">
  <advance width="208"/>
  <unicode hex="094B"/>
  <outline>
    <component base="aaMatra-deva"/>
    <component base="eMatra-deva" xOffset="205"/>
    <contour>
      <point x="133" y="500" type="move" name="top"/>
    </contour>
  </outline>
</glyph>
<glyph name="halant-deva" format="1">
  <advance width="0"/>
  <unicode hex="094D"/>
  <outline>
    <contour>
      <point x="81" y="-208" type="line"/>
      <point x="-45" y="-99" type="line" smooth="yes"/>
      <point x="-80" y="-70"/>
      <point x="-120" y="-50"/>
      <point x="-159" y="-50" type="curve" smooth="yes"/>
      <point x="-195" y="-50"/>
      <point x="-223" y="-53"/>
      <point x="-244" y="-56" type="curve"/>
      <point x="-205" y="-108" type="line"/>
      <point x="-168" y="-101"/>
      <point x="-137" y="-98"/>
      <point x="-114" y="-98" type="curve" smooth="yes"/>
      <point x="-79" y="-98"/>
      <point x="-22" y="-141"/>
      <point x="60" y="-224" type="curve"/>
    </contour>
    <contour>
      <point x="-113" y="0" type="move" name="_bottom"/>
    </contour>
  </outline>
</glyph>
<glyph name="anudatta-deva" format="1">
  <advance width="0"/>
  <unicode hex="0952"/>
  <outline>
    <contour>
      <point x="-399" y="-101" type="line"/>
      <point x="9" y="-101" type="line"/>
      <point x="-24" y="-57" type="line"/>
      <point x="-428" y="-57" type="line"/>
    </contour>
  </outline>
</glyph>
<glyph name="grave-deva" format="1">
  <advance width="0"/>
  <unicode hex="0953"/>
  <outline>
    <contour>
      <point x="-68" y="492" type="line"/>
      <point x="-37" y="492" type="line"/>
      <point x="-82" y="689" type="line"/>
      <point x="-175" y="689" type="line"/>
    </contour>
  </outline>
</glyph>
<glyph name="acute-deva" format="1">
  <advance width="0"/>
  <unicode hex="0954"/>
  <outline>
    <contour>
      <point x="-145" y="502" type="line"/>
      <point x="-37" y="698" type="line"/>
      <point x="-131" y="698" type="line"/>
      <point x="-175" y="502" type="line"/>
    </contour>
  </outline>
</glyph>
<glyph name="qa-deva" format="1">
  <advance width="533"/>
  <unicode hex="0958"/>
  <outline>
    <component base="ka-deva"/>
    <component base="nukta-deva" xOffset="217" yOffset="35"/>
    <contour>
      <point x="267" y="500" type="move" name="top"/>
    </contour>
    <contour>
      <point x="274" y="0" type="move" name="bottom"/>
    </contour>
  </outline>
</glyph>
<glyph name="fa-deva" format="1">
  <advance width="542"/>
  <unicode hex="095E"/>
  <outline>
    <component base="pha-deva"/>
    <component base="nukta-deva" xOffset="228" yOffset="34"/>
    <contour>
      <point x="268" y="500" type="move" name="top"/>
    </contour>
    <contour>
      <point x="279" y="0" type="move" name="bottom"/>
    </contour>
  </outline>
</glyph>
<glyph name="yya-deva" format="1">
  <advance width="444"/>
  <unicode hex="095F"/>
  <outline>
    <component base="ya-deva"/>
    <component base="nukta-deva" xOffset="226" yOffset="28"/>
    <contour>
      <point x="328" y="500" type="move" name="top"/>
    </contour>
    <contour>
      <point x="330" y="0" type="move" name="bottom"/>
    </contour>
  </outline>
</glyph>
<glyph name="lVocalicMatra-deva" format="1">
  <advance width="0"/>
  <unicode hex="0962"/>
  <outline>
    <contour>
      <point x="-358" y="-121"/>
      <point x="-319" y="-83"/>
      <point x="-278" y="-83" type="curve" smooth="yes"/>
      <point x="-251" y="-83"/>
      <point x="-219" y="-101"/>
      <point x="-191" y="-130" type="curve"/>
      <point x="-177" y="-99"/>
      <point x="-147" y="-80"/>
      <point x="-114" y="-80" type="curve" smooth="yes"/>
      <point x="-55" y="-80"/>
      <point x="9" y="-133"/>
      <point x="9" y="-181" type="curve" smooth="yes"/>
      <point x="9" y="-254"/>
      <point x="-95" y="-252"/>
      <point x="-95" y="-290" type="curve" smooth="yes"/>
      <point x="-95" y="-306"/>
      <point x="-74" y="-319"/>
      <point x="-47" y="-319" type="curve" smooth="yes"/>
      <point x="-31" y="-319"/>
      <point x="-9" y="-307"/>
      <point x="14" y="-287" type="curve"/>
      <point x="53" y="-319" type="line"/>
      <point x="32" y="-337"/>
      <point x="5" y="-347"/>
      <point x="-20" y="-347" type="curve" smooth="yes"/>
      <point x="-71" y="-347"/>
      <point x="-136" y="-305"/>
      <point x="-136" y="-273" type="curve" smooth="yes"/>
      <point x="-136" y="-219"/>
      <point x="-28" y="-207"/>
      <point x="-28" y="-162" type="curve" smooth="yes"/>
      <point x="-28" y="-135"/>
      <point x="-54" y="-112"/>
      <point x="-86" y="-112" type="curve" smooth="yes"/>
      <point x="-120" y="-112"/>
      <point x="-149" y="-129"/>
      <point x="-149" y="-201" type="curve"/>
      <point x="-204" y="-183" type="line"/>
      <point x="-204" y="-172"/>
      <point x="-203" y="-159"/>
      <point x="-201" y="-148" type="curve"/>
      <point x="-213" y="-132"/>
      <point x="-228" y="-122"/>
      <point x="-244" y="-122" type="curve" smooth="yes"/>
      <point x="-280" y="-122"/>
      <point x="-314" y="-158"/>
      <point x="-314" y="-197" type="curve" smooth="yes"/>
      <point x="-314" y="-229"/>
      <point x="-263" y="-279"/>
      <point x="-231" y="-279" type="curve" smooth="yes"/>
      <point x="-217" y="-279"/>
      <point x="-203" y="-273"/>
      <point x="-190" y="-264" type="curve"/>
      <point x="-162" y="-297" type="line"/>
      <point x="-175" y="-308"/>
      <point x="-190" y="-312"/>
      <point x="-202" y="-312" type="curve" smooth="yes"/>
      <point x="-267" y="-312"/>
      <point x="-358" y="-222"/>
      <point x="-358" y="-159" type="curve" smooth="yes"/>
    </contour>
    <contour>
      <point x="-84" y="30" type="line"/>
      <point x="-84" y="-101" type="line"/>
      <point x="-144" y="-101" type="line"/>
      <point x="-144" y="30" type="line"/>
    </contour>
    <contour>
      <point x="-113" y="0" type="move" name="_bottom"/>
    </contour>
  </outline>
</glyph>
<glyph name="danda-deva" format="1">
  <advance width="506"/>
  <unicode hex="0964"/>
  <outline>
    <contour>
      <point x="148" y="80" type="line" smooth="yes"/>
      <point x="148" y="19"/>
      <point x="302" y="-86"/>
      <point x="386" y="-86" type="curve" smooth="yes"/>
      <point x="403" y="-86"/>
      <point x="418" y="-78"/>
      <point x="431" y="-63" type="curve"/>
      <point x="378" y="-29" type="line"/>
      <point x="367" y="-43"/>
      <point x="353" y="-51"/>
      <point x="340" y="-51" type="curve" smooth="yes"/>
      <point x="295" y="-51"/>
      <point x="208" y="6"/>
      <point x="208" y="39" type="curve" smooth="yes"/>
      <point x="208" y="548" type="line"/>
      <point x="148" y="600" type="line"/>
    </contour>
  </outline>
</glyph>
<glyph name="zero-deva" format="1">
  <advance width="458"/>
  <unicode hex="0966"/>
  <outline>
    <contour>
      <point x="31" y="129"/>
      <point x="138" y="0"/>
      <point x="220" y="0" type="curve" smooth="yes"/>
      <point x="328" y="0"/>
      <point x="428" y="165"/>
      <point x="428" y="341" type="curve" smooth="yes"/>
      <point x="428" y="448"/>
      <point x="317" y="576"/>
      <point x="226" y="576" type="curve" smooth="yes"/>
      <point x="124" y="576"/>
      <point x="31" y="405"/>
      <point x="31" y="228" type="curve" smooth="yes"/>
    </contour>
    <contour>
      <point x="130" y="49"/>
      <point x="94" y="109"/>
      <point x="94" y="181" type="curve" smooth="yes"/>
      <point x="94" y="367"/>
      <point x="176" y="528"/>
      <point x="274" y="528" type="curve" smooth="yes"/>
      <point x="324" y="528"/>
      <point x="366" y="463"/>
      <point x="366" y="383" type="curve" smooth="yes"/>
      <point x="366" y="204"/>
      <point x="280" y="49"/>
      <point x="176" y="49" type="curve" smooth="yes"/>
    </contour>
  </outline>
</glyph>
<glyph name="one-deva" format="1">
  <advance width="458"/>
  <unicode hex="0967"/>
  <outline>
    <contour>
      <point x="102" y="415"/>
      <point x="180" y="341"/>
      <point x="235" y="341" type="curve" smooth="yes"/>
      <point x="257" y="341"/>
      <point x="282" y="354"/>
      <point x="295" y="378" type="curve"/>
      <point x="295" y="87" type="line" smooth="yes"/>
      <point x="295" y="64"/>
      <point x="278" y="42"/>
      <point x="252" y="36" type="curve"/>
      <point x="301" y="0" type="line"/>
      <point x="334" y="6"/>
      <point x="355" y="31"/>
      <point x="355" y="60" type="curve" smooth="yes"/>
      <point x="355" y="408" type="line" smooth="yes"/>
      <point x="355" y="489"/>
      <point x="281" y="580"/>
      <point x="213" y="580" type="curve" smooth="yes"/>
      <point x="158" y="580"/>
      <point x="102" y="523"/>
      <point x="102" y="467" type="curve" smooth="yes"/>
    </contour>
    <contour>
      <point x="181" y="382"/>
      <point x="161" y="402"/>
      <point x="161" y="426" type="curve" smooth="yes"/>
      <point x="161" y="473"/>
      <point x="212" y="534"/>
      <point x="253" y="534" type="curve" smooth="yes"/>
      <point x="275" y="534"/>
      <point x="294" y="514"/>
      <point x="294" y="489" type="curve" smooth="yes"/>
      <point x="294" y="443"/>
      <point x="244" y="382"/>
      <point x="205" y="382" type="curve" smooth="yes"/>
    </contour>
  </outline>
</glyph>
<glyph name="two-deva" format="1">
  <advance width="458"/>
  <unicode hex="0968"/>
  <outline>
    <contour>
      <point x="70" y="450" type="line"/>
      <point x="112" y="503"/>
      <point x="175" y="537"/>
      <point x="242" y="537" type="curve" smooth="yes"/>
      <point x="286" y="537"/>
      <point x="323" y="497"/>
      <point x="323" y="448" type="curve" smooth="yes"/>
      <point x="323" y="381"/>
      <point x="271" y="315"/>
      <point x="195" y="276" type="curve"/>
      <point x="174" y="330"/>
      <point x="139" y="367"/>
      <point x="106" y="367" type="curve" smooth="yes"/>
      <point x="68" y="367"/>
      <point x="35" y="339"/>
      <point x="35" y="308" type="curve" smooth="yes"/>
      <point x="35" y="261"/>
      <point x="82" y="201"/>
      <point x="131" y="201" type="curve" smooth="yes"/>
      <point x="153" y="201"/>
      <point x="171" y="204"/>
      <point x="185" y="211" type="curve"/>
      <point x="230" y="98" type="line" smooth="yes"/>
      <point x="257" y="32"/>
      <point x="296" y="-13"/>
      <point x="361" y="-13" type="curve" smooth="yes"/>
      <point x="393" y="-13"/>
      <point x="423" y="11"/>
      <point x="441" y="47" type="curve"/>
      <point x="385" y="94" type="line"/>
      <point x="371" y="61"/>
      <point x="345" y="38"/>
      <point x="315" y="38" type="curve" smooth="yes"/>
      <point x="294" y="38"/>
      <point x="265" y="74"/>
      <point x="245" y="127" type="curve" smooth="yes"/>
      <point x="211" y="217" type="line"/>
      <point x="304" y="250"/>
      <point x="369" y="331"/>
      <point x="369" y="415" type="curve" smooth="yes"/>
      <point x="369" y="494"/>
      <point x="281" y="580"/>
      <point x="201" y="580" type="curve" smooth="yes"/>
      <point x="129" y="580"/>
      <point x="63" y="553"/>
      <point x="17" y="505" type="curve"/>
    </contour>
    <contour>
      <point x="91" y="250"/>
      <point x="76" y="264"/>
      <point x="76" y="278" type="curve" smooth="yes"/>
      <point x="76" y="296"/>
      <point x="96" y="312"/>
      <point x="123" y="312" type="curve" smooth="yes"/>
      <point x="142" y="312"/>
      <point x="160" y="291"/>
      <point x="170" y="265" type="curve"/>
      <point x="147" y="255"/>
      <point x="127" y="250"/>
      <point x="112" y="250" type="curve" smooth="yes"/>
    </contour>
  </outline>
</glyph>
<glyph name="five-deva" format="1">
  <advance width="458"/>
  <unicode hex="096B"/>
  <outline>
    <contour>
      <point x="27" y="322"/>
      <point x="124" y="240"/>
      <point x="245" y="240" type="curve" smooth="yes"/>
      <point x="257" y="240"/>
      <point x="272" y="242"/>
      <point x="291" y="245" type="curve"/>
      <point x="342" y="210"/>
      <point x="371" y="169"/>
      <point x="371" y="137" type="curve" smooth="yes"/>
      <point x="371" y="78"/>
      <point x="306" y="26"/>
      <point x="225" y="26" type="curve" smooth="yes"/>
      <point x="176" y="26"/>
      <point x="125" y="46"/>
      <point x="87" y="83" type="curve"/>
      <point x="72" y="62" type="line"/>
      <point x="142" y="13"/>
      <point x="209" y="-11"/>
      <point x="273" y="-11" type="curve" smooth="yes"/>
      <point x="357" y="-11"/>
      <point x="431" y="37"/>
      <point x="431" y="103" type="curve" smooth="yes"/>
      <point x="431" y="151"/>
      <point x="389" y="209"/>
      <point x="320" y="255" type="curve"/>
      <point x="376" y="270"/>
      <point x="419" y="310"/>
      <point x="419" y="353" type="curve" smooth="yes"/>
      <point x="419" y="395"/>
      <point x="359" y="452"/>
      <point x="314" y="452" type="curve" smooth="yes"/>
      <point x="259" y="452"/>
      <point x="209" y="409"/>
      <point x="209" y="363" type="curve" smooth="yes"/>
      <point x="209" y="335"/>
      <point x="229" y="305"/>
      <point x="260" y="284" type="curve"/>
      <point x="246" y="277"/>
      <point x="228" y="274"/>
      <point x="206" y="274" type="curve" smooth="yes"/>
      <point x="135" y="274"/>
      <point x="79" y="317"/>
      <point x="79" y="369" type="curve" smooth="yes"/>
      <point x="79" y="444"/>
      <point x="164" y="514"/>
      <point x="276" y="534" type="curve"/>
      <point x="226" y="586" type="line"/>
      <point x="112" y="566"/>
      <point x="27" y="495"/>
      <point x="27" y="420" type="curve" smooth="yes"/>
    </contour>
    <contour>
      <point x="271" y="304"/>
      <point x="262" y="318"/>
      <point x="262" y="333" type="curve" smooth="yes"/>
      <point x="262" y="366"/>
      <point x="308" y="411"/>
      <point x="343" y="411" type="curve" smooth="yes"/>
      <point x="357" y="411"/>
      <point x="370" y="399"/>
      <point x="370" y="384" type="curve" smooth="yes"/>
      <point x="370" y="354"/>
      <point x="335" y="318"/>
      <point x="285" y="295" type="curve"/>
    </contour>
  </outline>
</glyph>
<glyph name="six-deva" format="1">
  <advance width="458"/>
  <unicode hex="096C"/>
  <outline>
    <contour>
      <point x="16" y="422"/>
      <point x="61" y="376"/>
      <point x="128" y="343" type="curve"/>
      <point x="81" y="310"/>
      <point x="52" y="271"/>
      <point x="52" y="238" type="curve" smooth="yes"/>
      <point x="52" y="162"/>
      <point x="135" y="96"/>
      <point x="253" y="96" type="curve"/>
      <point x="285" y="7"/>
      <point x="339" y="-54"/>
      <point x="390" y="-54" type="curve" smooth="yes"/>
      <point x="409" y="-54"/>
      <point x="428" y="-47"/>
      <point x="442" y="-34" type="curve"/>
      <point x="398" y="16" type="line"/>
      <point x="385" y="4"/>
      <point x="370" y="-3"/>
      <point x="355" y="-3" type="curve" smooth="yes"/>
      <point x="330" y="-3"/>
      <point x="299" y="38"/>
      <point x="279" y="96" type="curve"/>
      <point x="320" y="103"/>
      <point x="352" y="125"/>
      <point x="352" y="149" type="curve" smooth="yes"/>
      <point x="352" y="177"/>
      <point x="305" y="213"/>
      <point x="269" y="213" type="curve" smooth="yes"/>
      <point x="251" y="213"/>
      <point x="234" y="199"/>
      <point x="234" y="180" type="curve" smooth="yes"/>
      <point x="234" y="168"/>
      <point x="237" y="157"/>
      <point x="241" y="145" type="curve"/>
      <point x="235" y="140"/>
      <point x="218" y="137"/>
      <point x="197" y="137" type="curve" smooth="yes"/>
      <point x="145" y="137"/>
      <point x="103" y="163"/>
      <point x="103" y="196" type="curve" smooth="yes"/>
      <point x="103" y="236"/>
      <point x="133" y="279"/>
      <point x="181" y="304" type="curve"/>
      <point x="198" y="297"/>
      <point x="216" y="294"/>
      <point x="233" y="294" type="curve" smooth="yes"/>
      <point x="263" y="294"/>
      <point x="285" y="311"/>
      <point x="285" y="328" type="curve" smooth="yes"/>
      <point x="285" y="351"/>
      <point x="239" y="377"/>
      <point x="210" y="377" type="curve" smooth="yes"/>
      <point x="191" y="377"/>
      <point x="171" y="369"/>
      <point x="149" y="354" type="curve"/>
      <point x="103" y="375"/>
      <point x="74" y="405"/>
      <point x="74" y="434" type="curve" smooth="yes"/>
      <point x="74" y="485"/>
      <point x="136" y="527"/>
      <point x="213" y="527" type="curve" smooth="yes"/>
      <point x="230" y="527"/>
      <point x="250" y="516"/>
      <point x="270" y="500" type="curve"/>
      <point x="281" y="511" type="line"/>
      <point x="219" y="570" type="line"/>
      <point x="209" y="573"/>
      <point x="193" y="576"/>
      <point x="174" y="576" type="curve" smooth="yes"/>
      <point x="90" y="576"/>
      <point x="16" y="527"/>
      <point x="16" y="465" type="curve" smooth="yes"/>
    </contour>
  </outline>
</glyph>
<glyph name="seven-deva" format="1">
  <advance width="458"/>
  <unicode hex="096D"/>
  <outline>
    <contour>
      <point x="29" y="197"/>
      <point x="127" y="-1"/>
      <point x="270" y="-1" type="curve" smooth="yes"/>
      <point x="358" y="-1"/>
      <point x="428" y="98"/>
      <point x="428" y="215" type="curve" smooth="yes"/>
      <point x="428" y="320"/>
      <point x="362" y="427"/>
      <point x="288" y="427" type="curve" smooth="yes"/>
      <point x="231" y="427"/>
      <point x="186" y="368"/>
      <point x="186" y="292" type="curve" smooth="yes"/>
      <point x="186" y="227"/>
      <point x="255" y="149"/>
      <point x="312" y="149" type="curve" smooth="yes"/>
      <point x="332" y="149"/>
      <point x="354" y="163"/>
      <point x="368" y="183" type="curve"/>
      <point x="360" y="117"/>
      <point x="297" y="46"/>
      <point x="239" y="46" type="curve" smooth="yes"/>
      <point x="146" y="46"/>
      <point x="72" y="184"/>
      <point x="72" y="343" type="curve" smooth="yes"/>
      <point x="72" y="411"/>
      <point x="82" y="478"/>
      <point x="101" y="542" type="curve"/>
      <point x="46" y="568" type="line"/>
      <point x="35" y="512"/>
      <point x="29" y="464"/>
      <point x="29" y="421" type="curve" smooth="yes"/>
    </contour>
    <contour>
      <point x="261" y="186"/>
      <point x="241" y="215"/>
      <point x="241" y="250" type="curve" smooth="yes"/>
      <point x="241" y="320"/>
      <point x="275" y="376"/>
      <point x="319" y="376" type="curve" smooth="yes"/>
      <point x="347" y="376"/>
      <point x="366" y="350"/>
      <point x="366" y="313" type="curve" smooth="yes"/>
      <point x="366" y="239"/>
      <point x="333" y="186"/>
      <point x="285" y="186" type="curve" smooth="yes"/>
    </contour>
  </outline>
</glyph>
<glyph name="eight-deva" format="1">
  <advance width="458"/>
  <unicode hex="096E"/>
  <outline>
    <contour>
      <point x="32" y="87"/>
      <point x="128" y="-5"/>
      <point x="211" y="-5" type="curve" smooth="yes"/>
      <point x="288" y="-5"/>
      <point x="361" y="24"/>
      <point x="422" y="76" type="curve"/>
      <point x="377" y="134" type="line"/>
      <point x="320" y="75"/>
      <point x="242" y="40"/>
      <point x="165" y="40" type="curve" smooth="yes"/>
      <point x="119" y="40"/>
      <point x="81" y="75"/>
      <point x="81" y="116" type="curve" smooth="yes"/>
      <point x="81" y="141"/>
      <point x="104" y="176"/>
      <point x="145" y="222" type="curve" smooth="yes"/>
      <point x="426" y="529" type="line"/>
      <point x="379" y="581" type="line"/>
      <point x="102" y="276" type="line" smooth="yes"/>
      <point x="58" y="228"/>
      <point x="32" y="185"/>
      <point x="32" y="157" type="curve" smooth="yes"/>
    </contour>
  </outline>
</glyph>
<glyph name="zha-deva" format="1">
  <advance width="566"/>
  <unicode hex="0979"/>
  <outline>
    <component base="ja-deva"/>
    <component base="nukta-deva" xOffset="244" yOffset="-6"/>
    <component base="nukta-deva" xOffset="411" yOffset="-6"/>
    <component base="nukta-deva" xOffset="328" yOffset="-90"/>
    <contour>
      <point x="109" y="35" type="move" name="nukta"/>
    </contour>
    <contour>
      <point x="459" y="0" type="move" name="bottom"/>
    </contour>
    <contour>
      <point x="447" y="500" type="move" name="top"/>
    </contour>
  </outline>
</glyph>
<glyph name="jjya-deva" format="1">
  <advance width="444"/>
  <unicode hex="097A"/>
  <outline>
    <contour>
      <point x="172" y="308" type="line"/>
      <point x="307" y="223" type="line"/>
      <point x="296" y="261" type="line"/>
      <point x="161" y="345" type="line"/>
    </contour>
    <component base="ya-deva"/>
    <contour>
      <point x="113" y="28" type="move" name="nukta"/>
    </contour>
    <contour>
      <point x="330" y="0" type="move" name="bottom"/>
    </contour>
    <contour>
      <point x="328" y="500" type="move" name="top"/>
    </contour>
  </outline>
</glyph>
<glyph name="ddda-deva" format="1">
  <advance width="459"/>
  <unicode hex="097E"/>
  <outline>
    <contour>
      <point x="429" y="-101" type="line"/>
      <point x="396" y="-57" type="line"/>
      <point x="30" y="-57" type="line"/>
      <point x="59" y="-101" type="line"/>
    </contour>
    <component base="dda-deva"/>
  </outline>
</glyph>
<glyph name="quoteleft" format="1">
  <advance width="177"/>
  <unicode hex="2018"/>
  <outline>
    <contour>
      <point x="132" y="400"/>
      <point x="112" y="381"/>
      <point x="88" y="381" type="curve" smooth="yes"/>
      <point x="64" y="381"/>
      <point x="45" y="400"/>
      <point x="45" y="425" type="curve" smooth="yes"/>
      <point x="45" y="465"/>
      <point x="74" y="494"/>
      <point x="106" y="515" type="curve"/>
      <point x="120" y="503" type="line"/>
      <point x="110" y="494"/>
      <point x="101" y="480"/>
      <point x="99" y="467" type="curve"/>
      <point x="118" y="463"/>
      <point x="132" y="445"/>
      <point x="132" y="425" type="curve" smooth="yes"/>
    </contour>
  </outline>
</glyph>
<glyph name="quotesinglbase" format="1">
  <advance width="158"/>
  <unicode hex="201A"/>
  <outline>
    <contour>
      <point x="55" y="75"/>
      <point x="35" y="54"/>
      <point x="35" y="30" type="curve" smooth="yes"/>
      <point x="35" y="10"/>
      <point x="50" y="-7"/>
      <point x="69" y="-12" type="curve"/>
      <point x="67" y="-25"/>
      <point x="57" y="-39"/>
      <point x="48" y="-48" type="curve"/>
      <point x="62" y="-59" type="line"/>
      <point x="95" y="-40"/>
      <point x="123" y="-9"/>
      <point x="123" y="30" type="curve" smooth="yes"/>
      <point x="123" y="54"/>
      <point x="103" y="75"/>
      <point x="79" y="75" type="curve" smooth="yes"/>
    </contour>
  </outline>
</glyph>
<glyph name="daggerdbl" format="1">
  <advance width="288"/>
  <unicode hex="2021"/>
  <outline>
    <contour>
      <point x="110" y="517" type="line"/>
      <point x="110" y="362" type="line"/>
      <point x="35" y="362" type="line"/>
      <point x="28" y="337" type="line"/>
      <point x="110" y="337" type="line"/>
      <point x="110" y="130" type="line"/>
      <point x="35" y="130" type="line"/>
      <point x="28" y="105" type="line"/>
      <point x="110" y="105" type="line"/>
      <point x="110" y="-103" type="line"/>
      <point x="177" y="-76" type="line"/>
      <point x="177" y="105" type="line"/>
      <point x="252" y="105" type="line"/>
      <point x="259" y="130" type="line"/>
      <point x="177" y="130" type="line"/>
      <point x="177" y="337" type="line"/>
      <point x="252" y="337" type="line"/>
      <point x="259" y="362" type="line"/>
      <point x="177" y="362" type="line"/>
      <point x="177" y="541" type="line"/>
    </contour>
  </outline>
</glyph>
<glyph name="guilsinglright" format="1">
  <advance width="201"/>
  <unicode hex="203A"/>
  <outline>
    <contour>
      <point x="38" y="219" type="line"/>
      <point x="96" y="137" type="line"/>
      <point x="38" y="58" type="line"/>
      <point x="52" y="41" type="line"/>
      <point x="179" y="137" type="line"/>
      <point x="52" y="233" type="line"/>
    </contour>
  </outline>
</glyph>
<glyph name="foursuperior" format="1">
  <advance width="232"/>
  <unicode hex="2074"/>
  <outline>
    <contour>
      <point x="215" y="346" type="line"/>
      <point x="201" y="306" type="line"/>
      <point x="182" y="306" type="line"/>
      <point x="182" y="241" type="line"/>
      <point x="130" y="225" type="line"/>
      <point x="130" y="306" type="line"/>
      <point x="-3" y="306" type="line"/>
      <point x="40" y="356"/>
      <point x="66" y="411"/>
      <point x="82" y="478" type="curve"/>
      <point x="120" y="462" type="line"/>
      <point x="111" y="426"/>
      <point x="83" y="374"/>
      <point x="56" y="346" type="curve"/>
      <point x="130" y="346" type="line"/>
      <point x="130" y="495" type="line"/>
      <point x="182" y="510" type="line"/>
      <point x="182" y="346" type="line"/>
    </contour>
  </outline>
</glyph>
<glyph name="sevensuperior" format="1">
  <advance width="191"/>
  <unicode hex="2077"/>
  <outline>
    <contour>
      <point x="188" y="510"/>
      <point x="175" y="507"/>
      <point x="160" y="507" type="curve" smooth="yes"/>
      <point x="41" y="507" type="line"/>
      <point x="4" y="440" type="line"/>
      <point x="15" y="431" type="line"/>
      <point x="32" y="453"/>
      <point x="45" y="459"/>
      <point x="86" y="459" type="curve" smooth="yes"/>
      <point x="147" y="459" type="line"/>
      <point x="93" y="400"/>
      <point x="45" y="311"/>
      <point x="45" y="225" type="curve"/>
      <point x="110" y="248" type="line"/>
      <point x="109" y="252"/>
      <point x="108" y="261"/>
      <point x="108" y="274" type="curve" smooth="yes"/>
      <point x="108" y="358"/>
      <point x="156" y="446"/>
      <point x="210" y="508" type="curve"/>
      <point x="199" y="519" type="line"/>
    </contour>
  </outline>
</glyph>
<glyph name="rupeeIndian" format="1">
  <advance width="638"/>
  <unicode hex="20B9"/>
  <outline>
    <contour>
      <point x="74" y="550" type="line"/>
      <point x="74" y="511" type="line"/>
      <point x="270" y="511" type="line"/>
      <point x="296" y="481"/>
      <point x="314" y="456"/>
      <point x="322" y="435" type="curve"/>
      <point x="74" y="435" type="line"/>
      <point x="74" y="394" type="line"/>
      <point x="332" y="394" type="line"/>
      <point x="341" y="347"/>
      <point x="332" y="307"/>
      <point x="280" y="283" type="curve"/>
      <point x="262" y="329"/>
      <point x="223" y="361"/>
      <point x="183" y="361" type="curve" smooth="yes"/>
      <point x="150" y="361"/>
      <point x="124" y="338"/>
      <point x="124" y="308" type="curve" smooth="yes"/>
      <point x="124" y="215"/>
      <point x="327" y="-8"/>
      <point x="496" y="-8" type="curve" smooth="yes"/>
      <point x="526" y="-8"/>
      <point x="549" y="1"/>
      <point x="563" y="14" type="curve"/>
      <point x="507" y="54" type="line"/>
      <point x="494" y="38"/>
      <point x="473" y="28"/>
      <point x="451" y="28" type="curve" smooth="yes"/>
      <point x="387" y="28"/>
      <point x="293" y="92"/>
      <point x="221" y="198" type="curve"/>
      <point x="350" y="205"/>
      <point x="414" y="291"/>
      <point x="384" y="394" type="curve"/>
      <point x="564" y="394" type="line"/>
      <point x="564" y="435" type="line"/>
      <point x="367" y="435" type="line"/>
      <point x="356" y="457"/>
      <point x="340" y="482"/>
      <point x="314" y="511" type="curve"/>
      <point x="564" y="511" type="line"/>
      <point x="564" y="550" type="line"/>
    </contour>
    <contour>
      <point x="232" y="307"/>
      <point x="249" y="292"/>
      <point x="258" y="270" type="curve"/>
      <point x="235" y="259"/>
      <point x="213" y="253"/>
      <point x="192" y="253" type="curve" smooth="yes"/>
      <point x="180" y="253"/>
      <point x="170" y="264"/>
      <point x="170" y="277" type="curve" smooth="yes"/>
      <point x="170" y="294"/>
      <point x="190" y="307"/>
      <point x="214" y="307" type="curve" smooth="yes"/>
    </contour>
  </outline>
</glyph>
<glyph name="trademark" format="1">
  <advance width="380"/>
  <unicode hex="2122"/>
  <outline>
    <contour>
      <point x="130" y="517"/>
      <point x="116" y="515"/>
      <point x="107" y="515" type="curve"/>
      <point x="50" y="515" type="line"/>
      <point x="22" y="515"/>
      <point x="8" y="494"/>
      <point x="-3" y="477" type="curve"/>
      <point x="3" y="471" type="line"/>
      <point x="12" y="482"/>
      <point x="21" y="488"/>
      <point x="32" y="488" type="curve"/>
      <point x="69" y="488" type="line"/>
      <point x="57" y="477"/>
      <point x="42" y="462"/>
      <point x="42" y="446" type="curve"/>
      <point x="42" y="352" type="line"/>
      <point x="42" y="343"/>
      <point x="42" y="333"/>
      <point x="36" y="326" type="curve"/>
      <point x="42" y="319" type="line"/>
      <point x="67" y="334"/>
      <point x="81" y="353"/>
      <point x="81" y="376" type="curve"/>
      <point x="81" y="462" type="line"/>
      <point x="81" y="473"/>
      <point x="84" y="481"/>
      <point x="91" y="488" type="curve"/>
      <point x="113" y="488"/>
      <point x="133" y="502"/>
      <point x="144" y="519" type="curve"/>
      <point x="139" y="525" type="line"/>
    </contour>
    <contour>
      <point x="154" y="510" type="line"/>
      <point x="154" y="319" type="line"/>
      <point x="193" y="330" type="line"/>
      <point x="193" y="429" type="line" smooth="yes"/>
      <point x="193" y="453"/>
      <point x="206" y="502"/>
      <point x="222" y="502" type="curve" smooth="yes"/>
      <point x="232" y="502"/>
      <point x="234" y="490"/>
      <point x="234" y="479" type="curve"/>
      <point x="234" y="319" type="line"/>
      <point x="273" y="330" type="line"/>
      <point x="273" y="429" type="line" smooth="yes"/>
      <point x="273" y="453"/>
      <point x="286" y="502"/>
      <point x="303" y="502" type="curve" smooth="yes"/>
      <point x="312" y="502"/>
      <point x="314" y="490"/>
      <point x="314" y="479" type="curve"/>
      <point x="314" y="359" type="line" smooth="yes"/>
      <point x="314" y="335"/>
      <point x="325" y="322"/>
      <point x="345" y="322" type="curve" smooth="yes"/>
      <point x="365" y="322"/>
      <point x="375" y="331"/>
      <point x="383" y="342" type="curve"/>
      <point x="376" y="348" type="line"/>
      <point x="372" y="343"/>
      <point x="366" y="339"/>
      <point x="361" y="339" type="curve" smooth="yes"/>
      <point x="354" y="339"/>
      <point x="352" y="345"/>
      <point x="352" y="351" type="curve" smooth="yes"/>
      <point x="352" y="484" type="line"/>
      <point x="352" y="503"/>
      <point x="343" y="520"/>
      <point x="319" y="520" type="curve" smooth="yes"/>
      <point x="299" y="520"/>
      <point x="281" y="506"/>
      <point x="272" y="470" type="curve"/>
      <point x="272" y="503"/>
      <point x="264" y="520"/>
      <point x="238" y="520" type="curve" smooth="yes"/>
      <point x="219" y="520"/>
      <point x="200" y="504"/>
      <point x="193" y="471" type="curve"/>
      <point x="193" y="522" type="line"/>
    </contour>
  </outline>
</glyph>
<glyph name="increment" format="1">
  <advance width="529"/>
  <unicode hex="2206"/>
  <outline>
    <contour>
      <point x="40" y="8" type="line"/>
      <point x="44" y="0" type="line"/>
      <point x="482" y="0" type="line"/>
      <point x="487" y="9" type="line"/>
      <point x="273" y="526" type="line"/>
      <point x="242" y="526" type="line"/>
    </contour>
    <contour>
      <point x="86" y="29" type="line"/>
      <point x="234" y="424" type="line"/>
      <point x="395" y="29" type="line"/>
    </contour>
  </outline>
</glyph>
<glyph name="product" format="1">
  <advance width="564"/>
  <unicode hex="220F"/>
  <outline>
    <contour>
      <point x="176" y="-81" type="line"/>
      <point x="176" y="470" type="line"/>
      <point x="388" y="470" type="line"/>
      <point x="388" y="-81" type="line"/>
      <point x="456" y="-81" type="line"/>
      <point x="456" y="470" type="line"/>
      <point x="535" y="470" type="line"/>
      <point x="535" y="516" type="line"/>
      <point x="28" y="516" type="line"/>
      <point x="28" y="470" type="line"/>
      <point x="108" y="470" type="line"/>
      <point x="108" y="-81" type="line"/>
    </contour>
  </outline>
</glyph>
<glyph name="summation" format="1">
  <advance width="353"/>
  <unicode hex="2211"/>
  <outline>
    <contour>
      <point x="321" y="0" type="line"/>
      <point x="30" y="0" type="line"/>
      <point x="30" y="26" type="line"/>
      <point x="175" y="256" type="line"/>
      <point x="30" y="489" type="line"/>
      <point x="30" y="516" type="line"/>
      <point x="321" y="516" type="line"/>
      <point x="321" y="488" type="line"/>
      <point x="113" y="488" type="line"/>
      <point x="259" y="257" type="line"/>
      <point x="113" y="28" type="line"/>
      <point x="321" y="28" type="line"/>
    </contour>
  </outline>
</glyph>
<glyph name="minus" format="1">
  <advance width="363"/>
  <unicode hex="2212"/>
  <outline>
    <contour>
      <point x="319" y="301" type="line"/>
      <point x="297" y="243" type="line"/>
      <point x="51" y="243" type="line"/>
      <point x="74" y="301" type="line"/>
    </contour>
  </outline>
</glyph>
<glyph name="lozenge" format="1">
  <advance width="474"/>
  <unicode hex="25CA"/>
  <outline>
    <contour>
      <point x="205" y="0" type="line"/>
      <point x="267" y="0" type="line"/>
      <point x="434" y="251" type="line"/>
      <point x="434" y="268" type="line"/>
      <point x="270" y="524" type="line"/>
      <point x="207" y="524" type="line"/>
      <point x="40" y="274" type="line"/>
      <point x="40" y="256" type="line"/>
    </contour>
    <contour>
      <point x="239" y="51" type="line"/>
      <point x="103" y="271" type="line"/>
      <point x="233" y="475" type="line"/>
      <point x="371" y="252" type="line"/>
    </contour>
  </outline>
</glyph>
<glyph name="dottedCircle" format="1">
  <advance width="688"/>
  <unicode hex="25CC"/>
  <outline>
    <contour>
      <point x="74" y="244"/>
      <point x="78" y="235"/>
      <point x="86" y="228" type="curve" smooth="yes"/>
      <point x="93" y="220"/>
      <point x="102" y="216"/>
      <point x="112" y="216" type="curve" smooth="yes"/>
      <point x="123" y="216"/>
      <point x="131" y="220"/>
      <point x="139" y="228" type="curve" smooth="yes"/>
      <point x="146" y="235"/>
      <point x="150" y="244"/>
      <point x="150" y="254" type="curve" smooth="yes"/>
      <point x="150" y="265"/>
      <point x="146" y="273"/>
      <point x="139" y="281" type="curve" smooth="yes"/>
      <point x="131" y="288"/>
      <point x="123" y="292"/>
      <point x="112" y="292" type="curve" smooth="yes"/>
      <point x="102" y="292"/>
      <point x="93" y="288"/>
      <point x="86" y="281" type="curve" smooth="yes"/>
      <point x="78" y="273"/>
      <point x="74" y="265"/>
      <point x="74" y="254" type="curve" smooth="yes"/>
    </contour>
    <contour>
      <point x="306" y="476"/>
      <point x="310" y="467"/>
      <point x="318" y="460" type="curve" smooth="yes"/>
      <point x="325" y="452"/>
      <point x="334" y="448"/>
      <point x="344" y="448" type="curve" smooth="yes"/>
      <point x="355" y="448"/>
      <point x="363" y="452"/>
      <point x="371" y="460" type="curve" smooth="yes"/>
      <point x="378" y="467"/>
      <point x="382" y="476"/>
      <point x="382" y="486" type="curve" smooth="yes"/>
      <point x="382" y="497"/>
      <point x="378" y="505"/>
      <point x="371" y="513" type="curve" smooth="yes"/>
      <point x="363" y="520"/>
      <point x="355" y="524"/>
      <point x="344" y="524" type="curve" smooth="yes"/>
      <point x="334" y="524"/>
      <point x="325" y="520"/>
      <point x="318" y="513" type="curve" smooth="yes"/>
      <point x="310" y="505"/>
      <point x="306" y="497"/>
      <point x="306" y="486" type="curve" smooth="yes"/>
    </contour>
    <contour>
      <point x="306" y="12"/>
      <point x="310" y="3"/>
      <point x="318" y="-4" type="curve" smooth="yes"/>
      <point x="325" y="-12"/>
      <point x="334" y="-16"/>
      <point x="344" y="-16" type="curve" smooth="yes"/>
      <point x="355" y="-16"/>
      <point x="363" y="-12"/>
      <point x="371" y="-4" type="curve" smooth="yes"/>
      <point x="378" y="3"/>
      <point x="382" y="12"/>
      <point x="382" y="22" type="curve" smooth="yes"/>
      <point x="382" y="33"/>
      <point x="378" y="42"/>
      <point x="371" y="49" type="curve" smooth="yes"/>
      <point x="363" y="56"/>
      <point x="355" y="60"/>
      <point x="344" y="60" type="curve" smooth="yes"/>
      <point x="334" y="60"/>
      <point x="325" y="56"/>
      <point x="318" y="49" type="curve" smooth="yes"/>
      <point x="310" y="42"/>
      <point x="306" y="33"/>
      <point x="306" y="22" type="curve" smooth="yes"/>
    </contour>
    <contour>
      <point x="538" y="244"/>
      <point x="542" y="235"/>
      <point x="550" y="228" type="curve" smooth="yes"/>
      <point x="557" y="220"/>
      <point x="566" y="216"/>
      <point x="576" y="216" type="curve" smooth="yes"/>
      <point x="587" y="216"/>
      <point x="595" y="220"/>
      <point x="603" y="228" type="curve" smooth="yes"/>
      <point x="610" y="235"/>
      <point x="614" y="244"/>
      <point x="614" y="254" type="curve" smooth="yes"/>
      <point x="614" y="265"/>
      <point x="610" y="273"/>
      <point x="603" y="281" type="curve" smooth="yes"/>
      <point x="595" y="288"/>
      <point x="587" y="292"/>
      <point x="576" y="292" type="curve" smooth="yes"/>
      <point x="566" y="292"/>
      <point x="557" y="288"/>
      <point x="550" y="281" type="curve" smooth="yes"/>
      <point x="542" y="273"/>
      <point x="538" y="265"/>
      <point x="538" y="254" type="curve" smooth="yes"/>
    </contour>
    <contour>
      <point x="106" y="128"/>
      <point x="110" y="119"/>
      <point x="118" y="112" type="curve" smooth="yes"/>
      <point x="125" y="105"/>
      <point x="134" y="100"/>
      <point x="144" y="100" type="curve" smooth="yes"/>
      <point x="155" y="100"/>
      <point x="163" y="105"/>
      <point x="171" y="112" type="curve" smooth="yes"/>
      <point x="178" y="119"/>
      <point x="182" y="128"/>
      <point x="182" y="138" type="curve" smooth="yes"/>
      <point x="182" y="149"/>
      <point x="178" y="158"/>
      <point x="171" y="165" type="curve" smooth="yes"/>
      <point x="163" y="172"/>
      <point x="155" y="176"/>
      <point x="144" y="176" type="curve" smooth="yes"/>
      <point x="134" y="176"/>
      <point x="125" y="172"/>
      <point x="118" y="165" type="curve" smooth="yes"/>
      <point x="110" y="158"/>
      <point x="106" y="149"/>
      <point x="106" y="138" type="curve" smooth="yes"/>
    </contour>
    <contour>
      <point x="507" y="360"/>
      <point x="511" y="351"/>
      <point x="519" y="344" type="curve" smooth="yes"/>
      <point x="526" y="336"/>
      <point x="535" y="332"/>
      <point x="545" y="332" type="curve" smooth="yes"/>
      <point x="556" y="332"/>
      <point x="564" y="336"/>
      <point x="572" y="344" type="curve" smooth="yes"/>
      <point x="579" y="351"/>
      <point x="583" y="360"/>
      <point x="583" y="370" type="curve" smooth="yes"/>
      <point x="583" y="381"/>
      <point x="579" y="389"/>
      <point x="572" y="397" type="curve" smooth="yes"/>
      <point x="564" y="404"/>
      <point x="556" y="408"/>
      <point x="545" y="408" type="curve" smooth="yes"/>
      <point x="535" y="408"/>
      <point x="526" y="404"/>
      <point x="519" y="397" type="curve" smooth="yes"/>
      <point x="511" y="389"/>
      <point x="507" y="381"/>
      <point x="507" y="370" type="curve" smooth="yes"/>
    </contour>
    <contour>
      <point x="422" y="445"/>
      <point x="426" y="436"/>
      <point x="434" y="429" type="curve" smooth="yes"/>
      <point x="441" y="421"/>
      <point x="450" y="417"/>
      <point x="460" y="417" type="curve" smooth="yes"/>
      <point x="471" y="417"/>
      <point x="479" y="421"/>
      <point x="487" y="429" type="curve" smooth="yes"/>
      <point x="494" y="436"/>
      <point x="498" y="445"/>
      <point x="498" y="455" type="curve" smooth="yes"/>
      <point x="498" y="466"/>
      <point x="494" y="475"/>
      <point x="487" y="482" type="curve" smooth="yes"/>
      <point x="479" y="489"/>
      <point x="471" y="493"/>
      <point x="460" y="493" type="curve" smooth="yes"/>
      <point x="450" y="493"/>
      <point x="441" y="489"/>
      <point x="434" y="482" type="curve" smooth="yes"/>
      <point x="426" y="475"/>
      <point x="422" y="466"/>
      <point x="422" y="455" type="curve" smooth="yes"/>
    </contour>
    <contour>
      <point x="190" y="44"/>
      <point x="194" y="34"/>
      <point x="202" y="27" type="curve" smooth="yes"/>
      <point x="209" y="19"/>
      <point x="218" y="15"/>
      <point x="228" y="15" type="curve" smooth="yes"/>
      <point x="239" y="15"/>
      <point x="247" y="19"/>
      <point x="255" y="27" type="curve" smooth="yes"/>
      <point x="262" y="34"/>
      <point x="266" y="44"/>
      <point x="266" y="54" type="curve" smooth="yes"/>
      <point x="266" y="65"/>
      <point x="262" y="73"/>
      <point x="255" y="81" type="curve" smooth="yes"/>
      <point x="247" y="88"/>
      <point x="239" y="92"/>
      <point x="228" y="92" type="curve" smooth="yes"/>
      <point x="218" y="92"/>
      <point x="209" y="88"/>
      <point x="202" y="81" type="curve" smooth="yes"/>
      <point x="194" y="73"/>
      <point x="190" y="65"/>
      <point x="190" y="54" type="curve" smooth="yes"/>
    </contour>
    <contour>
      <point x="106" y="360"/>
      <point x="110" y="351"/>
      <point x="118" y="344" type="curve" smooth="yes"/>
      <point x="125" y="336"/>
      <point x="134" y="332"/>
      <point x="144" y="332" type="curve" smooth="yes"/>
      <point x="155" y="332"/>
      <point x="163" y="336"/>
      <point x="171" y="344" type="curve" smooth="yes"/>
      <point x="178" y="351"/>
      <point x="182" y="360"/>
      <point x="182" y="370" type="curve" smooth="yes"/>
      <point x="182" y="381"/>
      <point x="178" y="389"/>
      <point x="171" y="397" type="curve" smooth="yes"/>
      <point x="163" y="404"/>
      <point x="155" y="408"/>
      <point x="144" y="408" type="curve" smooth="yes"/>
      <point x="134" y="408"/>
      <point x="125" y="404"/>
      <point x="118" y="397" type="curve" smooth="yes"/>
      <point x="110" y="389"/>
      <point x="106" y="381"/>
      <point x="106" y="370" type="curve" smooth="yes"/>
    </contour>
    <contour>
      <point x="507" y="128"/>
      <point x="511" y="119"/>
      <point x="519" y="112" type="curve" smooth="yes"/>
      <point x="526" y="105"/>
      <point x="535" y="100"/>
      <point x="545" y="100" type="curve" smooth="yes"/>
      <point x="556" y="100"/>
      <point x="564" y="105"/>
      <point x="572" y="112" type="curve" smooth="yes"/>
      <point x="579" y="119"/>
      <point x="583" y="128"/>
      <point x="583" y="138" type="curve" smooth="yes"/>
      <point x="583" y="149"/>
      <point x="579" y="158"/>
      <point x="572" y="165" type="curve" smooth="yes"/>
      <point x="564" y="172"/>
      <point x="556" y="176"/>
      <point x="545" y="176" type="curve" smooth="yes"/>
      <point x="535" y="176"/>
      <point x="526" y="172"/>
      <point x="519" y="165" type="curve" smooth="yes"/>
      <point x="511" y="158"/>
      <point x="507" y="149"/>
      <point x="507" y="138" type="curve" smooth="yes"/>
    </contour>
    <contour>
      <point x="190" y="445"/>
      <point x="194" y="436"/>
      <point x="202" y="429" type="curve" smooth="yes"/>
      <point x="209" y="421"/>
      <point x="218" y="417"/>
      <point x="228" y="417" type="curve" smooth="yes"/>
      <point x="239" y="417"/>
      <point x="247" y="421"/>
      <point x="255" y="429" type="curve" smooth="yes"/>
      <point x="262" y="436"/>
      <point x="266" y="445"/>
      <point x="266" y="455" type="curve" smooth="yes"/>
      <point x="266" y="466"/>
      <point x="262" y="475"/>
      <point x="255" y="482" type="curve" smooth="yes"/>
      <point x="247" y="489"/>
      <point x="239" y="493"/>
      <point x="228" y="493" type="curve" smooth="yes"/>
      <point x="218" y="493"/>
      <point x="209" y="489"/>
      <point x="202" y="482" type="curve" smooth="yes"/>
      <point x="194" y="475"/>
      <point x="190" y="466"/>
      <point x="190" y="455" type="curve" smooth="yes"/>
    </contour>
    <contour>
      <point x="422" y="44"/>
      <point x="426" y="34"/>
      <point x="434" y="27" type="curve" smooth="yes"/>
      <point x="441" y="19"/>
      <point x="450" y="15"/>
      <point x="460" y="15" type="curve" smooth="yes"/>
      <point x="471" y="15"/>
      <point x="479" y="19"/>
      <point x="487" y="27" type="curve" smooth="yes"/>
      <point x="494" y="34"/>
      <point x="498" y="44"/>
      <point x="498" y="54" type="curve" smooth="yes"/>
      <point x="498" y="65"/>
      <point x="494" y="73"/>
      <point x="487" y="81" type="curve" smooth="yes"/>
      <point x="479" y="88"/>
      <point x="471" y="92"/>
      <point x="460" y="92" type="curve" smooth="yes"/>
      <point x="450" y="92"/>
      <point x="441" y="88"/>
      <point x="434" y="81" type="curve" smooth="yes"/>
      <point x="426" y="73"/>
      <point x="422" y="65"/>
      <point x="422" y="54" type="curve" smooth="yes"/>
    </contour>
  </outline>
</glyph>
<glyph name="fi" format="1">
  <advance width="378"/>
  <unicode hex="FB01"/>
  <outline>
    <contour>
      <point x="360" y="52" type="line"/>
      <point x="350" y="38"/>
      <point x="340" y="32"/>
      <point x="333" y="32" type="curve" smooth="yes"/>
      <point x="324" y="32"/>
      <point x="317" y="39"/>
      <point x="317" y="51" type="curve" smooth="yes"/>
      <point x="317" y="300" type="line"/>
      <point x="254" y="279" type="line"/>
      <point x="116" y="279" type="line"/>
      <point x="116" y="420" type="line" smooth="yes"/>
      <point x="116" y="454"/>
      <point x="123" y="497"/>
      <point x="175" y="497" type="curve" smooth="yes"/>
      <point x="212" y="497"/>
      <point x="235" y="463"/>
      <point x="246" y="425" type="curve"/>
      <point x="307" y="447" type="line"/>
      <point x="278" y="493"/>
      <point x="227" y="522"/>
      <point x="187" y="522" type="curve" smooth="yes"/>
      <point x="87" y="522"/>
      <point x="53" y="435"/>
      <point x="53" y="356" type="curve" smooth="yes"/>
      <point x="53" y="279" type="line"/>
      <point x="32" y="279" type="line"/>
      <point x="17" y="243" type="line"/>
      <point x="53" y="243" type="line"/>
      <point x="53" y="-101" type="line"/>
      <point x="116" y="-73" type="line"/>
      <point x="116" y="243" type="line"/>
      <point x="254" y="243" type="line"/>
      <point x="254" y="54" type="line" smooth="yes"/>
      <point x="254" y="14"/>
      <point x="278" y="-4"/>
      <point x="304" y="-4" type="curve" smooth="yes"/>
      <point x="326" y="-4"/>
      <point x="352" y="10"/>
      <point x="370" y="42" type="curve"/>
    </contour>
  </outline>
</glyph>
<glyph name="fl" format="1">
  <advance width="379"/>
  <unicode hex="FB02"/>
  <outline>
    <contour>
      <point x="362" y="52" type="line"/>
      <point x="356" y="44"/>
      <point x="345" y="32"/>
      <point x="334" y="32" type="curve" smooth="yes"/>
      <point x="322" y="32"/>
      <point x="319" y="43"/>
      <point x="319" y="51" type="curve" smooth="yes"/>
      <point x="319" y="516" type="line"/>
      <point x="261" y="495" type="line"/>
      <point x="238" y="512"/>
      <point x="210" y="522"/>
      <point x="187" y="522" type="curve" smooth="yes"/>
      <point x="87" y="522"/>
      <point x="53" y="435"/>
      <point x="53" y="356" type="curve" smooth="yes"/>
      <point x="53" y="279" type="line"/>
      <point x="32" y="279" type="line"/>
      <point x="17" y="243" type="line"/>
      <point x="53" y="243" type="line"/>
      <point x="53" y="-101" type="line"/>
      <point x="116" y="-73" type="line"/>
      <point x="116" y="243" type="line"/>
      <point x="198" y="243" type="line"/>
      <point x="215" y="279" type="line"/>
      <point x="116" y="279" type="line"/>
      <point x="116" y="420" type="line" smooth="yes"/>
      <point x="116" y="454"/>
      <point x="123" y="497"/>
      <point x="175" y="497" type="curve" smooth="yes"/>
      <point x="217" y="497"/>
      <point x="243" y="463"/>
      <point x="256" y="422" type="curve"/>
      <point x="256" y="54" type="line" smooth="yes"/>
      <point x="256" y="17"/>
      <point x="271" y="-4"/>
      <point x="308" y="-4" type="curve" smooth="yes"/>
      <point x="335" y="-4"/>
      <point x="360" y="18"/>
      <point x="371" y="42" type="curve"/>
    </contour>
  </outline>
</glyph>
<glyph name="acute.cap" format="1">
  <advance width="519"/>
  <outline>
    <contour>
      <point x="249" y="785" type="line"/>
      <point x="308" y="807"/>
      <point x="379" y="844"/>
      <point x="427" y="881" type="curve"/>
      <point x="373" y="938" type="line"/>
      <point x="227" y="807" type="line"/>
    </contour>
  </outline>
</glyph>
<glyph name="aiMatra_anusvara-deva" format="1">
  <advance width="0"/>
  <outline>
    <component base="aiMatra-deva"/>
    <component base="anusvara-deva" xOffset="63"/>
    <contour>
      <point x="-113" y="500" type="move" name="_top"/>
    </contour>
  </outline>
</glyph>
